<?xml version="1.0" encoding="UTF-8"?><svg id="Back" xmlns="http://www.w3.org/2000/svg" viewBox="0 0 1080 1080"><defs><style>.cls-1,.cls-2,.cls-3{stroke-width:6px;}.cls-1,.cls-2,.cls-3,.cls-4{stroke:#000;stroke-miterlimit:10;}.cls-1,.cls-5,.cls-4{fill:#e6e6e6;}.cls-6{fill:#9e005d;}.cls-2,.cls-7{fill:#6c5cc4;}.cls-3{fill:#fbb03b;}.cls-8{fill:#736357;}.cls-4{stroke-width:3px;}</style></defs><g><path class="cls-8" d="M492.72,1028.13c-13.82,0-26.09-2.41-34.54-6.79-18.77-9.72-33.88-39.04-33.88-56.84,0-38.32,31.18-69.5,69.5-69.5s69.5,31.18,69.5,69.5c0,18.47-15.58,48.3-33.77,56.78-9.2,4.29-22.96,6.85-36.81,6.85Z"/><path d="M493.8,898c36.67,0,66.5,29.83,66.5,66.5,0,8.61-3.63,20.11-9.72,30.75-6.4,11.19-14.53,19.68-22.32,23.31-8.82,4.11-22.11,6.57-35.54,6.57s-25.24-2.35-33.16-6.46c-7.96-4.13-16.18-12.81-22.55-23.82-6.08-10.51-9.71-21.85-9.71-30.35,0-36.67,29.83-66.5,66.5-66.5m0-6h0c-40.04,0-72.5,32.46-72.5,72.5,0,19.61,16.2,49.5,35.5,59.5,9.4,4.87,22.61,7.13,35.92,7.13,14.03,0,28.17-2.51,38.08-7.13,19.3-9,35.5-39.89,35.5-59.5,0-40.04-32.46-72.5-72.5-72.5h0Z"/></g><g><path class="cls-8" d="M482.3,961c-23.43,0-42.5-19.07-42.5-42.5s19.07-42.5,42.5-42.5h23c23.43,0,42.5,19.07,42.5,42.5s-19.07,42.5-42.5,42.5h-23Z"/><path d="M505.3,879c21.78,0,39.5,17.72,39.5,39.5s-17.72,39.5-39.5,39.5h-23c-21.78,0-39.5-17.72-39.5-39.5s17.72-39.5,39.5-39.5h23m0-6h-23c-25.13,0-45.5,20.37-45.5,45.5s20.37,45.5,45.5,45.5h23c25.13,0,45.5-20.37,45.5-45.5s-20.37-45.5-45.5-45.5h0Z"/></g><g><path class="cls-7" d="M494.65,931c-20.13,0-36.5-16.37-36.5-36.5v-65c0-20.13,16.37-36.5,36.5-36.5s36.5,16.37,36.5,36.5v65c0,20.13-16.37,36.5-36.5,36.5Z"/><path d="M494.65,796c18.47,0,33.5,15.03,33.5,33.5v65c0,18.47-15.03,33.5-33.5,33.5s-33.5-15.03-33.5-33.5v-65c0-18.47,15.03-33.5,33.5-33.5m0-6h0c-21.82,0-39.5,17.68-39.5,39.5v65c0,21.82,17.68,39.5,39.5,39.5h0c21.82,0,39.5-17.68,39.5-39.5v-65c0-21.82-17.68-39.5-39.5-39.5h0Z"/></g><g><path class="cls-5" d="M807.41,777.92c-3.01,0-5.91-1.1-8.17-3.1l-30.21-26.73c-5.09-4.51-5.57-12.32-1.06-17.41,2.34-2.64,5.71-4.16,9.24-4.16,3.01,0,5.91,1.1,8.17,3.1l30.21,26.73c5.09,4.5,5.57,12.31,1.06,17.41-2.34,2.64-5.71,4.16-9.24,4.16Z"/><path d="M777.22,729.53h0c2.28,0,4.47,.83,6.18,2.35l.5,.44,29.2,25.85,.5,.44c1.87,1.65,2.98,3.93,3.13,6.42s-.67,4.89-2.33,6.75c-1.77,2-4.32,3.15-7,3.15-2.28,0-4.47-.83-6.18-2.34l-.5-.44-29.21-25.85-.5-.44c-3.85-3.41-4.21-9.32-.8-13.18,1.77-2,4.32-3.15,7-3.15m0-6c-4.24,0-8.46,1.75-11.49,5.17h0c-5.61,6.34-5.02,16.03,1.32,21.64l.5,.44,29.21,25.85,.5,.44c2.92,2.58,6.54,3.85,10.16,3.85,4.24,0,8.46-1.75,11.49-5.17h0c5.61-6.34,5.02-16.03-1.32-21.64l-.5-.44-29.21-25.85-.5-.44c-2.92-2.58-6.54-3.85-10.16-3.85h0Z"/></g><g><path class="cls-5" d="M272.59,777.92c-3.53,0-6.9-1.52-9.24-4.16-4.51-5.09-4.03-12.9,1.06-17.41l30.21-26.73c2.25-2,5.16-3.1,8.17-3.1,3.53,0,6.9,1.52,9.24,4.16,4.51,5.09,4.03,12.9-1.06,17.41l-30.2,26.73c-2.26,2-5.16,3.1-8.17,3.1h0Z"/><path d="M302.78,729.53c2.68,0,5.22,1.15,7,3.15,3.41,3.85,3.05,9.76-.8,13.17l-.5,.44-29.21,25.85-.5,.44c-1.71,1.51-3.9,2.34-6.18,2.34-2.67,0-5.22-1.15-6.99-3.15-1.65-1.87-2.48-4.27-2.33-6.75,.15-2.49,1.26-4.77,3.13-6.42l.5-.44,29.2-25.85,.5-.44c1.71-1.51,3.9-2.34,6.18-2.34m0-6c-3.61,0-7.24,1.27-10.16,3.85l-.5,.44-29.21,25.85-.5,.44c-6.34,5.61-6.93,15.3-1.32,21.64h0c3.03,3.42,7.25,5.17,11.49,5.17,3.61,0,7.24-1.27,10.16-3.85l.5-.44,29.21-25.85,.5-.44c6.34-5.61,6.93-15.3,1.32-21.64h0c-3.03-3.42-7.25-5.17-11.49-5.17h0Z"/></g><g><path class="cls-7" d="M592.04,919c-20.13,0-36.5-10.47-36.5-23.33v-79.33c0-12.87,16.37-23.33,36.5-23.33s36.5,10.47,36.5,23.33v79.33c0,12.87-16.37,23.33-36.5,23.33Z"/><path d="M592.04,796c18.16,0,33.5,9.31,33.5,20.33v79.33c0,11.02-15.34,20.33-33.5,20.33s-33.5-9.31-33.5-20.33v-79.33c0-11.02,15.34-20.33,33.5-20.33m0-6h0c-21.82,0-39.5,11.79-39.5,26.33v79.33c0,14.54,17.68,26.33,39.5,26.33h0c21.82,0,39.5-11.79,39.5-26.33v-79.33c0-14.54-17.68-26.33-39.5-26.33h0Z"/></g><rect class="cls-2" x="458.85" y="613" width="174" height="224" rx="41.43" ry="41.43"/><g><path class="cls-7" d="M712.14,733.59c-30.55-32.98-67.25-49.69-109.15-49.69-6.22,0-12.64,.37-19.15,1.1l20.68-54.69c5.56-.52,11.08-.78,16.43-.78,42.91,0,79.53,16.15,111.88,49.35l-20.69,54.71Z"/><path d="M620.95,632.53c20.59,0,40.13,3.96,58.07,11.78,17.85,7.78,34.77,19.65,50.33,35.3l-18.32,48.45c-30.47-31.3-66.77-47.16-108.03-47.16-4.78,0-9.68,.21-14.64,.64l18.31-48.4c4.83-.4,9.63-.6,14.29-.6m0-6c-6.13,0-12.32,.33-18.58,.98l-23.1,61.09c8.05-1.12,15.97-1.69,23.72-1.69,41.44,0,78.47,16.32,110.22,52.35l23.1-61.09c-34.56-36.09-73.37-51.63-115.36-51.63h0Z"/></g><g><path class="cls-5" d="M841.18,753.17c-3.09,0-6.05-1.15-8.33-3.24l-29.72-27.26c-5.01-4.6-5.35-12.42-.75-17.43,2.33-2.54,5.64-4,9.09-4,3.09,0,6.05,1.15,8.33,3.24l29.73,27.26c5.01,4.6,5.35,12.41,.75,17.43-2.33,2.54-5.65,4-9.09,4Z"/><path d="M811.46,698.24v6c2.34,0,4.58,.87,6.3,2.46l.49,.45,28.74,26.36,.49,.45c3.79,3.48,4.05,9.39,.57,13.19-1.79,1.95-4.23,3.02-6.88,3.02-2.34,0-4.58-.87-6.31-2.46l-.49-.45-28.74-26.36-.49-.45c-1.84-1.69-2.91-3.98-3.02-6.48-.11-2.49,.76-4.87,2.45-6.71,1.79-1.95,4.23-3.02,6.88-3.02v-6m0,0c-4.15,0-8.28,1.67-11.3,4.97-5.72,6.24-5.3,15.94,.94,21.66l.49,.45,28.74,26.36,.49,.45c2.94,2.7,6.66,4.03,10.36,4.03,4.15,0,8.28-1.67,11.3-4.97h0c5.72-6.24,5.3-15.94-.94-21.66l-.49-.45-28.74-26.36-.49-.45c-2.94-2.7-6.66-4.03-10.36-4.03h0Z"/></g><g><path class="cls-5" d="M848.86,731.17c-.69,0-1.38-.06-2.06-.17l-39.78-6.69c-3.25-.55-6.09-2.32-8-5.01-1.91-2.68-2.66-5.95-2.12-9.2,1-5.96,6.11-10.29,12.14-10.29,.69,0,1.38,.06,2.06,.17l39.78,6.69c3.25,.55,6.09,2.32,8,5.01,1.91,2.68,2.66,5.95,2.12,9.2-1,5.96-6.11,10.29-12.14,10.29Z"/><path d="M809.05,702.82h0c.52,0,1.05,.04,1.56,.13l.66,.11,38.46,6.47,.66,.11c5.08,.85,8.51,5.68,7.66,10.75-.76,4.51-4.62,7.79-9.19,7.79-.52,0-1.05-.04-1.56-.13l-.66-.11-38.46-6.47-.66-.11c-5.08-.85-8.51-5.68-7.66-10.75,.76-4.51,4.62-7.79,9.19-7.79m0-6c-7.35,0-13.84,5.3-15.1,12.79h0c-1.4,8.35,4.23,16.26,12.58,17.66l.66,.11,38.46,6.47,.66,.11c.86,.14,1.72,.21,2.56,.21,7.35,0,13.84-5.3,15.1-12.79h0c1.4-8.35-4.23-16.26-12.58-17.66l-.66-.11-38.46-6.47-.66-.11c-.86-.14-1.72-.21-2.56-.21h0Z"/></g><g><path class="cls-5" d="M756.44,755.68c-4.54,0-9.24-.67-13.96-2l-.15-.04c-7.19-1.62-12.09-7.17-10.91-12.38l11.99-53.22c.92-4.09,5.55-6.95,11.25-6.95,1.3,0,2.61,.15,3.92,.44l.14,.03,.14,.02c19.72,2.51,37.67,8.18,53.37,16.86l1,.55,34.47-7.75c.9-.2,1.82-.31,2.73-.31,5.71,0,10.76,4.05,12.02,9.63,.72,3.21,.15,6.52-1.61,9.3-1.76,2.78-4.5,4.72-7.71,5.44l-39.35,8.85c-.87,.2-1.77,.3-2.66,.3-.63,0-1.28-.05-1.91-.15l-1.74-.27-1.08,1.39c-15.83,20.36-32.16,30.26-49.9,30.26Z"/><path d="M754.65,684.09h0c1.07,0,2.17,.12,3.26,.37l.28,.06,.28,.04c19.34,2.46,36.93,8.01,52.29,16.51l2,1.1,2.22-.5,32.71-7.36,.65-.15c.68-.15,1.38-.23,2.06-.23,4.32,0,8.14,3.07,9.09,7.29,.55,2.43,.11,4.93-1.22,7.04-1.33,2.11-3.41,3.57-5.84,4.12l-.65,.15-38.05,8.56-.65,.15c-.66,.15-1.33,.22-2.01,.22-.48,0-.97-.04-1.46-.11l-3.48-.54-2.16,2.78c-15.23,19.58-30.78,29.1-47.54,29.1-4.26,0-8.69-.64-13.15-1.89l-.15-.04-.15-.03c-5.96-1.34-9.34-5.71-8.65-8.8l11.99-53.22c.6-2.67,4.1-4.61,8.33-4.61m0-6c-6.98,0-12.91,3.66-14.18,9.29l-11.99,53.22c-1.54,6.83,4.36,13.98,13.18,15.97,5.07,1.42,9.99,2.11,14.77,2.11,19.46,0,36.71-11.4,52.27-31.42,.78,.12,1.57,.18,2.37,.18,1.1,0,2.21-.12,3.32-.37l.65-.15,38.05-8.56,.65-.15c8.26-1.86,13.45-10.06,11.59-18.33h0c-1.6-7.13-7.93-11.97-14.95-11.97-1.11,0-2.25,.12-3.38,.38l-.65,.15-32.71,7.36c-16.52-9.13-34.75-14.7-54.44-17.21-1.55-.35-3.09-.52-4.58-.52h0Z"/></g><g><path class="cls-5" d="M722.13,762.65c-2.41,0-4.79-.44-7.07-1.3-10.32-3.9-15.53-15.47-11.63-25.78l24.05-63.6c2.93-7.73,10.44-12.93,18.71-12.93,2.41,0,4.79,.44,7.07,1.3,5,1.89,8.96,5.61,11.16,10.48,2.2,4.87,2.37,10.3,.48,15.3l-24.05,63.6c-2.93,7.74-10.45,12.93-18.71,12.93Z"/><path d="M746.19,662.03h0c2.05,0,4.07,.37,6.01,1.11,8.77,3.32,13.2,13.15,9.89,21.91l-24.05,63.6c-2.49,6.57-8.88,10.99-15.9,10.99-2.05,0-4.07-.37-6.01-1.11-4.25-1.61-7.61-4.77-9.48-8.91-1.87-4.14-2.01-8.76-.4-13.01l24.05-63.6c2.49-6.58,8.88-10.99,15.91-10.99m0-6c-9.29,0-18.04,5.67-21.52,14.87l-24.05,63.6c-4.49,11.88,1.5,25.16,13.38,29.65,2.68,1.01,5.43,1.49,8.13,1.49,9.29,0,18.04-5.67,21.52-14.87l24.05-63.6c4.49-11.88-1.5-25.16-13.38-29.65-2.68-1.01-5.43-1.49-8.13-1.49h0Z"/></g><g><path class="cls-7" d="M347.17,678.88c32.35-33.2,68.97-49.35,111.88-49.35,5.36,0,10.87,.26,16.43,.78l20.68,54.69c-6.51-.73-12.93-1.1-19.15-1.1-41.9,0-78.6,16.71-109.15,49.69l-20.69-54.71Z"/><path d="M459.05,632.53c4.66,0,9.45,.2,14.28,.6l18.31,48.4c-4.96-.42-9.86-.64-14.64-.64-41.26,0-77.56,15.86-108.03,47.16l-18.32-48.45c15.56-15.66,32.47-27.52,50.33-35.3,17.94-7.82,37.48-11.78,58.07-11.78h0m0-6c-41.99,0-80.8,15.54-115.36,51.63l23.1,61.09c31.74-36.03,68.78-52.35,110.22-52.35,7.75,0,15.67,.57,23.72,1.69l-23.1-61.09c-6.26-.65-12.45-.98-18.58-.98h0Z"/></g><g><path class="cls-5" d="M238.82,753.17c-3.45,0-6.76-1.46-9.09-4-4.6-5.01-4.26-12.83,.75-17.43l29.73-27.26c2.28-2.09,5.24-3.24,8.33-3.24,3.45,0,6.76,1.46,9.09,4,4.6,5.01,4.26,12.83-.75,17.43l-29.73,27.26c-2.28,2.09-5.24,3.24-8.33,3.24h0Z"/><path d="M268.54,704.24c2.65,0,5.09,1.07,6.88,3.02,1.69,1.84,2.55,4.22,2.45,6.71-.11,2.49-1.18,4.79-3.02,6.48l-.49,.45-28.74,26.36-.49,.45c-1.73,1.58-3.97,2.45-6.3,2.45-2.65,0-5.09-1.07-6.88-3.02-1.69-1.84-2.55-4.22-2.45-6.71s1.18-4.79,3.02-6.48l.49-.45,28.74-26.36,.49-.45c1.73-1.58,3.97-2.45,6.3-2.45m0-6c-3.7,0-7.42,1.33-10.36,4.03l-.49,.45-28.74,26.36-.49,.45c-6.24,5.72-6.66,15.42-.94,21.66h0c3.02,3.3,7.16,4.97,11.3,4.97,3.7,0,7.42-1.33,10.36-4.03l.49-.45,28.74-26.36,.49-.45c6.24-5.72,6.66-15.42,.94-21.66-3.02-3.3-7.16-4.97-11.3-4.97h0Z"/></g><g><path class="cls-5" d="M231.14,731.17c-6.03,0-11.14-4.33-12.14-10.29-.55-3.25,.21-6.52,2.12-9.2,1.91-2.68,4.75-4.46,8-5.01l39.78-6.69c.68-.12,1.38-.17,2.06-.17,6.03,0,11.14,4.33,12.14,10.29,.55,3.25-.21,6.52-2.12,9.2-1.91,2.68-4.75,4.46-8,5.01l-39.78,6.69c-.68,.12-1.38,.17-2.06,.17h0Z"/><path d="M270.95,702.82c4.56,0,8.43,3.28,9.19,7.79,.85,5.08-2.58,9.9-7.66,10.75l-.66,.11-38.46,6.47-.66,.11c-.52,.09-1.05,.13-1.57,.13-4.56,0-8.43-3.28-9.19-7.79-.41-2.46,.16-4.93,1.6-6.96,1.45-2.03,3.6-3.38,6.06-3.79l.66-.11,38.46-6.47,.66-.11c.52-.09,1.05-.13,1.57-.13m0-6c-.84,0-1.7,.07-2.56,.21l-.66,.11-38.46,6.47-.66,.11c-8.35,1.4-13.98,9.31-12.58,17.66h0c1.26,7.49,7.75,12.79,15.1,12.79,.84,0,1.7-.07,2.56-.21l.66-.11,38.46-6.47,.66-.11c8.35-1.4,13.98-9.31,12.58-17.66h0c-1.26-7.49-7.75-12.79-15.1-12.79h0Z"/></g><g><path class="cls-5" d="M323.56,755.68c-17.75,0-34.07-9.9-49.9-30.26l-1.08-1.39-1.74,.27c-.64,.1-1.28,.15-1.91,.15-.9,0-1.79-.1-2.66-.3l-39.35-8.85c-3.21-.72-5.95-2.65-7.72-5.44-1.76-2.78-2.33-6.09-1.61-9.3,1.25-5.58,6.31-9.63,12.02-9.63,.91,0,1.83,.1,2.72,.3l34.47,7.76,1-.55c15.69-8.68,33.65-14.35,53.37-16.86l.14-.02,.14-.03c1.3-.29,2.62-.44,3.92-.44,5.7,0,10.33,2.86,11.25,6.95l11.99,53.22c1.17,5.21-3.72,10.76-10.91,12.38l-.15,.04c-4.73,1.33-9.43,2-13.96,2h0Z"/><path d="M325.35,684.09c4.22,0,7.72,1.94,8.33,4.61l11.99,53.22c.69,3.08-2.69,7.46-8.65,8.8l-.15,.03-.15,.04c-4.46,1.25-8.89,1.89-13.15,1.89-16.76,0-32.31-9.52-47.54-29.1l-2.16-2.78-3.49,.54c-.49,.07-.98,.11-1.46,.11-.68,0-1.35-.07-2.01-.22l-.65-.15-38.05-8.56-.65-.15c-2.43-.55-4.51-2.01-5.84-4.12-1.33-2.11-1.77-4.61-1.22-7.04,.95-4.22,4.77-7.29,9.09-7.29,.69,0,1.38,.08,2.06,.23l.65,.15,32.71,7.36,2.22,.5,2-1.1c15.36-8.49,32.96-14.04,52.29-16.51l.28-.04,.28-.06c1.09-.24,2.18-.37,3.26-.37m0-6c-1.49,0-3.03,.17-4.58,.52-19.69,2.51-37.91,8.07-54.44,17.21l-32.71-7.36-.65-.15c-1.13-.25-2.27-.38-3.38-.38-7.01,0-13.34,4.84-14.95,11.97h0c-1.86,8.26,3.33,16.47,11.59,18.33l.65,.15,38.05,8.56,.65,.15c1.11,.25,2.23,.37,3.32,.37,.8,0,1.59-.06,2.37-.18,15.56,20.02,32.81,31.42,52.27,31.42,4.79,0,9.71-.69,14.77-2.11,8.82-1.99,14.72-9.14,13.18-15.97l-11.99-53.22c-1.27-5.63-7.2-9.29-14.18-9.29h0Z"/></g><g><path class="cls-5" d="M357.87,762.65c-8.27,0-15.79-5.2-18.71-12.93l-24.05-63.6c-1.89-5-1.72-10.43,.48-15.3,2.2-4.87,6.16-8.59,11.16-10.48,2.28-.86,4.66-1.3,7.07-1.3,8.27,0,15.78,5.2,18.71,12.93l24.05,63.6c3.9,10.32-1.32,21.88-11.63,25.78-2.28,.86-4.66,1.3-7.07,1.3h0Z"/><path d="M333.81,662.03c7.03,0,13.42,4.42,15.9,10.99l24.05,63.6c1.61,4.25,1.46,8.87-.4,13-1.87,4.14-5.23,7.3-9.48,8.91-1.94,.73-3.96,1.11-6.01,1.11-7.03,0-13.42-4.42-15.9-10.99l-24.05-63.6c-3.32-8.77,1.12-18.6,9.89-21.91,1.94-.73,3.96-1.11,6.01-1.11m0-6c-2.7,0-5.45,.48-8.13,1.49-11.88,4.49-17.87,17.77-13.38,29.65l24.05,63.6c3.48,9.2,12.23,14.87,21.52,14.87,2.7,0,5.45-.48,8.13-1.49,11.88-4.49,17.87-17.77,13.38-29.65l-24.05-63.6c-3.48-9.2-12.23-14.87-21.52-14.87h0Z"/></g><g><path class="cls-5" d="M426.99,305h224.73c17.18,0,31.13,13.95,31.13,31.13v224.73c0,17.18-13.95,31.14-31.14,31.14h-224.73c-17.18,0-31.14-13.95-31.14-31.14v-224.73c0-17.18,13.95-31.13,31.13-31.13Z"/><path d="M651.72,308c15.51,0,28.14,12.62,28.14,28.14v224.73c0,15.51-12.62,28.14-28.14,28.14h-224.73c-15.51,0-28.13-12.62-28.13-28.14v-224.73c0-15.51,12.62-28.14,28.13-28.14h224.73m0-6h-224.73c-18.85,0-34.13,15.28-34.13,34.14v224.73c0,18.85,15.28,34.14,34.13,34.14h224.73c18.85,0,34.14-15.28,34.14-34.14v-224.73c0-18.85-15.28-34.14-34.14-34.14h0Z"/></g><circle cx="463.51" cy="457.22" r="40"/><circle cx="463.51" cy="366.47" r="40"/><circle cx="463.51" cy="547.97" r="40"/><circle cx="613.51" cy="457.22" r="40"/><circle cx="613.51" cy="366.47" r="40"/><circle cx="613.51" cy="547.97" r="40"/><g><polygon class="cls-1" points="678.64 219.76 678.64 171.42 720.5 147.26 762.36 171.42 762.36 219.76 720.5 243.92 678.64 219.76"/><path class="cls-4" d="M678.36,171.34v48.5l.07,.04,41.93,24.21,.07-.04,41.93-24.21v-48.5l-.07-.04-41.93-24.21-.07,.04-41.93,24.21Zm42-23.92l41.57,24-41.57,24-41.57-24,41.57-24Zm41.72,72.25l-41.57,24v-48l41.57-24v48Zm-83.43,0v-48l41.57,24v48l-41.57-24Z"/></g><g><path class="cls-7" d="M538.82,517.74c-81.34,0-157.79-4.31-215.26-12.13-64.02-8.71-86.74-19.65-86.74-26.37,0-.69,.29-1.45,.87-2.28l3.32-4.72h-1.81l.31-.5h-.27c38.96-61.51,89.4-110.27,150.03-145h298.49c32.47,16.29,61.64,36.77,86.7,60.89,24.9,23.96,46.52,52.24,64.29,84.11h-.24l1.28,2.37-1.19,1.34c1.47,1.39,2.22,2.67,2.22,3.79,0,6.72-22.72,17.66-86.74,26.37-57.48,7.82-133.93,12.13-215.26,12.13Z"/><path d="M687.05,329.74c31.95,16.1,60.65,36.3,85.34,60.06,23.52,22.63,44.09,49.16,61.22,78.94h-.15l4.17,7.67-1.08,1.21c.97,.92,1.22,1.47,1.27,1.62-.28,.72-6.5,13.07-86.55,23.72-57.06,7.59-132.51,11.77-212.44,11.77s-155.37-4.18-212.44-11.77c-80.5-10.71-86.34-23.14-86.55-23.71,.03-.07,.1-.26,.32-.57l6.64-9.45h-2.17l.31-.5h-.2c17.95-27.65,38.32-52.75,60.65-74.74,25.2-24.81,53.69-46.42,84.69-64.26h296.98m1.42-6H388.47c-65.28,37.24-115.97,88.39-154.65,151h.31c-.1,.17-.21,.33-.31,.5h1.42c-.93,1.32-1.42,2.65-1.42,4,0,22.92,136.55,41.5,305,41.5s305-18.58,305-41.5c0-2.03-1.09-4.02-3.16-5.98,.78,.65,1.42,1.31,1.89,1.98h1.27c-.09-.17-.19-.33-.28-.5h.28c-37.48-69.28-90.15-118.44-155.35-151h0Z"/></g><g><path class="cls-6" d="M391.82,321.74v-56.08c0-12.64,10.28-22.92,22.92-22.92h248.15c12.64,0,22.92,10.28,22.92,22.92v56.08H391.82Z"/><path d="M662.9,245.74c10.99,0,19.92,8.94,19.92,19.92v53.08H394.82v-53.08c0-10.99,8.94-19.92,19.92-19.92h248.15m0-6h-248.15c-14.32,0-25.92,11.61-25.92,25.92v59.08h300v-59.08c0-14.32-11.61-25.92-25.92-25.92h0Z"/></g><path class="cls-2" d="M410.36,239.74h249.07c-39.5-119.81-9.34-149.44,60.43-103.5C671.86-26.76,456.86-11.76,410.36,239.74Z"/><circle class="cls-3" cx="720.36" cy="146.74" r="17.5"/><g><path class="cls-6" d="M539.42,824c-37.44,0-75.56-28.28-113.32-84.04-13.1-27.57-16.49-50.04-10.07-66.79l.95-2.48-2.34-1.25c-1.99-1.06-3.28-2.31-4.32-4.18-3.17-5.7-6.39-13.79-3.73-20,1.92-4.48,6.79-7.77,14.49-9.78,14.81-3.85,19.82-9.74,24.24-14.93,1.71-2.01,3.33-3.91,5.45-5.58l5.83-4.6-7.38-.74c-4.96-.5-9.34-.72-13.2-.91-7.94-.4-13.68-.68-16.04-3.12l-.16-.16-.18-.14c-.88-.67-2.04-2.1-2.04-6.81,0-12.83,12.63-25.61,34.65-35.07,23.15-9.95,53.99-15.43,86.85-15.43,24.12,0,47.46,3,67.51,8.66l.16,.04c2.18,.62,4.36,1.28,6.44,1.96l.18,.06c1.08,.35,2.15,.71,3.2,1.08,2.07,.72,4.11,1.49,6.09,2.27l.12,.05c2.02,.81,3.92,1.62,5.72,2.44l.13,.06c.85,.39,1.7,.79,2.53,1.19l.18,.09c1.7,.83,3.36,1.7,4.94,2.58l.29,.16c1.57,.88,3.08,1.79,4.48,2.69l.21,.14c.64,.42,1.26,.83,1.86,1.25l.3,.21c1.28,.89,2.53,1.83,3.71,2.78l.34,.27c.51,.42,1.02,.85,1.52,1.29l.09,.08c.6,.53,1.12,1.01,1.62,1.49l.25,.25c.41,.4,.81,.8,1.2,1.21l.3,.31c.89,.95,1.72,1.93,2.47,2.9l.28,.36c.3,.41,.6,.82,.88,1.23l.17,.25c.32,.47,.62,.96,.91,1.45l.18,.32c.22,.39,.44,.79,.64,1.18l.2,.39c.23,.46,.44,.93,.64,1.4l.04,.11c.2,.48,.37,.96,.54,1.44l.1,.32c.15,.48,.27,.88,.37,1.28l.08,.32c.12,.49,.22,.98,.3,1.47l.05,.36c.06,.37,.1,.76,.14,1.16l.04,.44c.04,.48,.06,.98,.06,1.48,0,1.21-.08,2.3-.23,3.24-.14,.85-.34,1.6-.6,2.22-.3,.72-.69,1.31-1.19,1.79-.24,.23-.52,.44-.83,.64-.33,.21-.7,.39-1.1,.56-.65,.27-1.39,.5-2.26,.69-.86,.19-1.85,.35-3.01,.49-.76,.09-1.55,.17-2.39,.23-1.9,.15-4.05,.26-6.33,.37l-2.57,.13c-.74,.04-1.5,.08-2.28,.13l-8.12,.48,6.48,4.91c2.38,1.8,4.08,3.91,5.89,6.13,4.22,5.21,9.01,11.11,23.19,14.98,7.17,1.96,11.75,5.16,13.64,9.51,2.72,6.28-.38,14.52-3.46,20.33-.48,.9-1.02,1.66-1.65,2.31l-1.35,1.41,.74,1.81c6.59,16.04-8.04,47.05-19.67,69.04-38.24,55.8-76.63,84.1-114.08,84.1h0Z"/><path d="M539.1,550.99c23.85,0,46.91,2.96,66.67,8.54l.14,.04c2.2,.62,4.36,1.28,6.43,1.95h0l.12,.04c1.05,.34,2.11,.7,3.12,1.05h.04v.02c2.03,.71,4.03,1.45,5.94,2.21l.09,.04,.12,.05c1.9,.76,3.76,1.56,5.54,2.37l.08,.04c.83,.38,1.66,.77,2.47,1.17l.12,.06,.06,.03c1.65,.81,3.26,1.65,4.79,2.5l.29,.16c1.52,.85,2.98,1.73,4.33,2.6l.09,.06,.12,.08c.59,.38,1.19,.78,1.77,1.19l.15,.1,.14,.1c1.24,.87,2.44,1.76,3.56,2.67l.32,.26c.51,.42,1,.83,1.45,1.22l.14,.12c.49,.43,.99,.89,1.47,1.36l.09,.09,.14,.14c.38,.37,.76,.76,1.13,1.15l.1,.1,.17,.18c.82,.88,1.59,1.79,2.28,2.69l.25,.33c.28,.38,.55,.76,.81,1.13l.13,.18,.03,.04c.29,.43,.57,.88,.83,1.32l.05,.09,.11,.19c.2,.35,.39,.71,.58,1.06l.05,.09,.13,.25c.23,.46,.41,.87,.56,1.22l.02,.06v.03l.02,.03c.15,.37,.3,.78,.47,1.26,.04,.11,.07,.21,.11,.35,.11,.34,.21,.69,.3,1.03l.06,.23v.04c.11,.41,.2,.84,.27,1.24v.08l.05,.23c.05,.33,.09,.68,.13,1.04,.01,.11,.02,.22,.03,.33,.04,.51,.05,.92,.05,1.28,0,1.06-.06,1.99-.19,2.76-.1,.62-.24,1.13-.41,1.54-.19,.45-.37,.65-.5,.77-.1,.09-.21,.18-.36,.27-.18,.12-.4,.23-.66,.33-.47,.2-1.06,.38-1.76,.53-.76,.17-1.65,.31-2.7,.44-.68,.08-1.43,.15-2.28,.22-1.85,.15-3.97,.25-6.23,.36-.84,.04-1.71,.08-2.6,.13-.75,.04-1.52,.08-2.3,.13l-16.22,.96,12.95,9.81c2.09,1.58,3.61,3.46,5.38,5.63,4.29,5.28,9.62,11.86,24.72,15.98,6.24,1.71,10.17,4.33,11.67,7.8,2.24,5.19-.59,12.51-3.36,17.74-.35,.65-.72,1.19-1.16,1.64l-2.7,2.82,1.49,3.61c6.1,14.84-8.13,44.9-19.47,66.35-19.13,27.89-38.4,49-57.26,62.73-18.16,13.22-36.41,19.92-54.25,19.92s-36.59-6.91-54.91-20.55c-18.44-13.72-37.21-34.58-55.79-61.99-12.66-26.71-15.98-48.31-9.88-64.22l1.9-4.95-4.68-2.49c-1.48-.79-2.35-1.62-3.11-2.99-2.84-5.11-5.77-12.27-3.6-17.36,1.53-3.59,5.74-6.29,12.49-8.05,15.72-4.09,21.29-10.63,25.77-15.89,1.68-1.98,3.14-3.68,5.02-5.17l11.65-9.19-14.77-1.49c-5.04-.51-9.45-.73-13.35-.92-6.43-.32-12.5-.62-14.04-2.21l-.31-.32-.36-.27c-.4-.3-.86-1.64-.86-4.43,0-11.57,11.97-23.35,32.83-32.32,22.78-9.79,53.21-15.18,85.67-15.18m0-6c-68.76,0-124.5,23.95-124.5,53.5,0,4.77,1.07,7.56,3.22,9.2,4.56,4.71,14.84,3.3,31.1,4.93-8.02,6.33-8.93,14.85-28.58,19.96-23.14,6.02-19.26,22.2-12.62,34.14,1.41,2.54,3.22,4.14,5.53,5.37-6.66,17.36-3.61,40.26,10.26,69.35,37.95,56.11,76.57,85.55,115.93,85.55s77.03-27.68,116.66-85.55c15.82-29.91,26.23-56.28,19.87-71.74,.8-.83,1.5-1.8,2.13-2.98,6.33-11.94,10.03-28.11-12.03-34.14-19.38-5.29-19.64-14.23-28.06-20.61,.77-.05,1.53-.09,2.26-.13,3.36-.18,6.36-.3,8.98-.51,.88-.07,1.71-.15,2.51-.24,1.19-.14,2.29-.32,3.3-.54,1.01-.23,1.93-.5,2.76-.85,.55-.23,1.07-.49,1.54-.79,.47-.3,.91-.63,1.3-1.01,.79-.75,1.42-1.67,1.89-2.8,.35-.84,.62-1.81,.79-2.9,.18-1.1,.26-2.33,.26-3.71,0-.58-.03-1.15-.07-1.72-.01-.16-.03-.32-.04-.48-.04-.45-.1-.91-.17-1.36-.02-.13-.04-.26-.06-.39-.1-.56-.21-1.12-.35-1.68-.03-.12-.06-.24-.1-.36-.12-.45-.25-.9-.39-1.35-.05-.15-.1-.31-.15-.46-.18-.54-.38-1.08-.6-1.62v-.04c-.24-.55-.5-1.1-.77-1.65-.07-.14-.14-.28-.22-.43-.23-.44-.46-.88-.71-1.32-.07-.11-.13-.23-.19-.34-.32-.54-.65-1.07-1.01-1.61-.06-.09-.13-.18-.19-.27-.31-.45-.63-.9-.96-1.34-.1-.13-.19-.26-.29-.39-.81-1.06-1.7-2.1-2.66-3.13-.1-.11-.21-.22-.31-.33-.42-.44-.84-.87-1.29-1.3-.09-.09-.17-.17-.26-.26-.53-.51-1.09-1.02-1.66-1.53-.05-.05-.11-.09-.16-.14-.52-.46-1.06-.91-1.61-1.36-.11-.09-.23-.19-.35-.28-1.23-.99-2.53-1.97-3.9-2.92-.1-.07-.2-.14-.3-.21-.63-.43-1.27-.86-1.92-1.29-.08-.05-.15-.1-.23-.15-1.48-.95-3.02-1.88-4.64-2.78-.1-.06-.2-.11-.3-.17-1.63-.91-3.33-1.79-5.09-2.66-.06-.03-.13-.06-.19-.09-.85-.42-1.72-.83-2.61-1.23-.04-.02-.08-.04-.12-.06-1.86-.85-3.78-1.67-5.77-2.47-.07-.03-.13-.05-.2-.08-2-.8-4.06-1.57-6.18-2.31h-.03c-1.07-.38-2.16-.75-3.26-1.11h-.01c-2.2-.72-4.45-1.41-6.76-2.06l-.12-.03c-19.62-5.54-43.09-8.77-68.32-8.77h0Z"/></g><g><path class="cls-8" d="M584.3,938c-23.43,0-42.5-19.07-42.5-42.5s19.07-42.5,42.5-42.5h23c23.43,0,42.5,19.07,42.5,42.5s-19.07,42.5-42.5,42.5h-23Z"/><path d="M607.3,856c21.78,0,39.5,17.72,39.5,39.5s-17.72,39.5-39.5,39.5h-23c-21.78,0-39.5-17.72-39.5-39.5s17.72-39.5,39.5-39.5h23m0-6h-23c-25.13,0-45.5,20.37-45.5,45.5s20.37,45.5,45.5,45.5h23c25.13,0,45.5-20.37,45.5-45.5s-20.37-45.5-45.5-45.5h0Z"/></g><g><path class="cls-8" d="M594.72,1031c-13.74,0-25.94-2.85-34.35-8.01-18.87-11.6-34.07-46.69-34.07-68.01,0-45.76,31.18-82.98,69.5-82.98s69.5,37.22,69.5,82.98c0,22.13-15.67,57.83-33.95,67.94-9.15,5.06-22.84,8.08-36.62,8.08Z"/><path d="M595.8,875c36.67,0,66.5,35.88,66.5,79.98,0,10.54-3.71,24.52-9.92,37.39-6.47,13.42-14.67,23.6-22.49,27.92-8.73,4.83-21.87,7.71-35.17,7.71s-24.95-2.76-32.78-7.57c-8.01-4.92-16.29-15.32-22.74-28.53-6.2-12.72-9.91-26.52-9.91-36.92,0-44.1,29.83-79.98,66.5-79.98m0-6h0c-40.04,0-72.5,38.49-72.5,85.98,0,23.25,16.2,58.7,35.5,70.56,9.4,5.77,22.61,8.46,35.92,8.46,14.03,0,28.17-2.98,38.08-8.46,19.3-10.67,35.5-47.31,35.5-70.56,0-47.49-32.46-85.98-72.5-85.98h0Z"/></g><g><path class="cls-8" d="M594.72,1031c-13.82,0-26.09-2.39-34.55-6.74-18.76-9.64-33.87-38.71-33.87-56.35,0-38,31.18-68.91,69.5-68.91s69.5,30.91,69.5,68.91c0,18.31-15.58,47.88-33.76,56.29-9.2,4.25-22.96,6.79-36.82,6.79Z"/><path d="M595.8,902c36.67,0,66.5,29.57,66.5,65.91,0,8.53-3.63,19.91-9.71,30.46-6.4,11.09-14.53,19.52-22.31,23.11-8.82,4.08-22.12,6.52-35.56,6.52s-25.26-2.34-33.18-6.41c-7.96-4.09-16.18-12.7-22.55-23.62-6.07-10.41-9.7-21.65-9.7-30.06,0-36.34,29.83-65.91,66.5-65.91m0-6c-40.04,0-72.5,32.2-72.5,71.91h0c0,19.45,16.2,49.1,35.5,59.02,9.4,4.83,22.61,7.07,35.92,7.07,14.03,0,28.17-2.49,38.08-7.07,19.3-8.93,35.5-39.57,35.5-59.02h0c0-39.72-32.46-71.91-72.5-71.91h0Z"/></g></svg>