<?xml version="1.0" encoding="UTF-8"?><svg id="Back" xmlns="http://www.w3.org/2000/svg" viewBox="0 0 1080 1080"><defs><style>.cls-1,.cls-2,.cls-3{stroke-width:6px;}.cls-1,.cls-2,.cls-3,.cls-4{stroke:#000;stroke-miterlimit:10;}.cls-1,.cls-5,.cls-4{fill:#e6e6e6;}.cls-6{fill:#9e005d;}.cls-2,.cls-7{fill:#6c5cc4;}.cls-3{fill:#fbb03b;}.cls-8{fill:#736357;}.cls-4{stroke-width:3px;}</style></defs><g><path class="cls-8" d="M499.9,1018.13c-13.82,0-26.09-2.41-34.54-6.79-18.77-9.72-33.88-39.04-33.88-56.84,0-38.32,31.18-69.5,69.5-69.5s69.5,31.18,69.5,69.5c0,18.47-15.58,48.3-33.77,56.78-9.2,4.29-22.96,6.85-36.81,6.85Z"/><path d="M500.97,888c36.67,0,66.5,29.83,66.5,66.5,0,8.61-3.63,20.11-9.72,30.75-6.4,11.19-14.53,19.68-22.32,23.31-8.82,4.11-22.11,6.57-35.54,6.57s-25.24-2.35-33.16-6.46c-7.96-4.13-16.18-12.81-22.55-23.82-6.08-10.51-9.71-21.85-9.71-30.35,0-36.67,29.83-66.5,66.5-66.5m0-6c-40.04,0-72.5,32.46-72.5,72.5,0,19.61,16.2,49.5,35.5,59.5,9.4,4.87,22.61,7.13,35.92,7.13,14.03,0,28.17-2.51,38.08-7.13,19.3-9,35.5-39.89,35.5-59.5,0-40.04-32.46-72.5-72.5-72.5h0Z"/></g><g><path class="cls-8" d="M489.47,951c-23.43,0-42.5-19.07-42.5-42.5s19.07-42.5,42.5-42.5h23c23.43,0,42.5,19.07,42.5,42.5s-19.07,42.5-42.5,42.5h-23Z"/><path d="M512.47,869c21.78,0,39.5,17.72,39.5,39.5s-17.72,39.5-39.5,39.5h-23c-21.78,0-39.5-17.72-39.5-39.5s17.72-39.5,39.5-39.5h23m0-6h-23c-25.13,0-45.5,20.37-45.5,45.5s20.37,45.5,45.5,45.5h23c25.13,0,45.5-20.37,45.5-45.5s-20.37-45.5-45.5-45.5h0Z"/></g><g><path class="cls-5" d="M694.57,898.51c-.69,0-1.38-.06-2.06-.17-6.71-1.13-11.25-7.5-10.12-14.21l6.69-39.78c1-5.96,6.11-10.29,12.14-10.29,.69,0,1.38,.06,2.06,.17,3.25,.55,6.09,2.33,8,5.01,1.91,2.68,2.66,5.95,2.12,9.2l-6.69,39.77c-1,5.97-6.11,10.3-12.15,10.3Z"/><path d="M701.22,837.06h0c.52,0,1.05,.04,1.57,.13,5.08,.85,8.51,5.68,7.66,10.75l-.11,.66-6.47,38.46-.11,.66c-.76,4.51-4.62,7.79-9.19,7.79-.52,0-1.05-.04-1.57-.13-2.46-.41-4.61-1.76-6.06-3.79-1.45-2.03-2.01-4.5-1.6-6.96l.11-.66,6.47-38.46,.11-.66c.76-4.51,4.62-7.79,9.19-7.79m0-6c-7.35,0-13.84,5.3-15.1,12.79l-.11,.66-6.47,38.46-.11,.66c-1.4,8.35,4.23,16.26,12.58,17.66h0c.86,.14,1.72,.21,2.56,.21,7.35,0,13.84-5.3,15.1-12.79l.11-.66,6.47-38.46,.11-.66c1.4-8.35-4.23-16.26-12.58-17.66-.86-.14-1.72-.21-2.56-.21h0Z"/></g><g><path class="cls-5" d="M398.55,898.51c-6.04,0-11.14-4.33-12.14-10.29l-6.69-39.77c-1.13-6.71,3.41-13.08,10.12-14.21,.68-.12,1.38-.17,2.06-.17,6.03,0,11.14,4.33,12.14,10.29l6.69,39.77c.55,3.25-.21,6.52-2.12,9.2s-4.75,4.46-8,5.01c-.68,.11-1.38,.17-2.06,.17h0Z"/><path d="M391.9,837.06c4.56,0,8.43,3.28,9.19,7.79l.11,.66,6.47,38.46,.11,.66c.41,2.46-.16,4.93-1.6,6.96-1.45,2.03-3.6,3.38-6.06,3.79-.52,.09-1.05,.13-1.57,.13-4.56,0-8.43-3.28-9.19-7.79l-.11-.66-6.47-38.46-.11-.66c-.85-5.08,2.58-9.9,7.66-10.75,.52-.09,1.05-.13,1.57-.13m0-6c-.84,0-1.7,.07-2.56,.21h0c-8.35,1.4-13.98,9.31-12.58,17.66l.11,.66,6.47,38.46,.11,.66c1.26,7.49,7.75,12.79,15.1,12.79,.84,0,1.7-.07,2.56-.21h0c8.35-1.4,13.98-9.31,12.58-17.66l-.11-.66-6.47-38.46-.11-.66c-1.26-7.49-7.75-12.79-15.1-12.79h0Z"/></g><g><path class="cls-7" d="M598.22,957c-20.13,0-36.5-13.15-36.5-29.32v-97.36c0-16.17,16.37-29.32,36.5-29.32s36.5,13.15,36.5,29.32v97.36c0,16.17-16.37,29.32-36.5,29.32Z"/><path d="M598.22,804c18.47,0,33.5,11.81,33.5,26.32v97.36c0,14.51-15.03,26.32-33.5,26.32s-33.5-11.81-33.5-26.32v-97.36c0-14.51,15.03-26.32,33.5-26.32m0-6c-21.82,0-39.5,14.47-39.5,32.32v97.36c0,17.85,17.68,32.32,39.5,32.32s39.5-14.47,39.5-32.32v-97.36c0-17.85-17.68-32.32-39.5-32.32h0Z"/></g><rect class="cls-2" x="460.03" y="621" width="174" height="224" rx="41.43" ry="41.43"/><g><path class="cls-7" d="M500.83,939c-20.13,0-36.5-16.37-36.5-36.5v-65c0-20.13,16.37-36.5,36.5-36.5s36.5,16.37,36.5,36.5v65c0,20.13-16.37,36.5-36.5,36.5Z"/><path d="M500.82,804c18.47,0,33.5,15.03,33.5,33.5v65c0,18.47-15.03,33.5-33.5,33.5s-33.5-15.03-33.5-33.5v-65c0-18.47,15.03-33.5,33.5-33.5m0-6c-21.82,0-39.5,17.68-39.5,39.5v65c0,21.82,17.68,39.5,39.5,39.5s39.5-17.68,39.5-39.5v-65c0-21.82-17.68-39.5-39.5-39.5h0Z"/></g><g><path class="cls-7" d="M672.56,806.12c-7.89-51-34.49-88.66-79.15-112.06l47.74-33.76c43.99,24.06,69.91,60.75,79.18,112.04l-47.76,33.77Z"/><path d="M641.34,663.85c20.05,11.25,36.45,25.54,48.79,42.5,13.1,18.01,22.14,39.75,26.89,64.66l-42.29,29.9c-8.64-47.96-34.04-83.95-75.65-107.19l42.25-29.88m-.4-7.06l-53.33,37.71c46.34,22.7,75.37,60.39,82.67,116.92l53.33-37.71c-9.69-56.44-39.09-93.61-82.67-116.92h0Z"/></g><g><path class="cls-5" d="M733.45,914.05c-.76,0-1.52-.07-2.28-.21-3.24-.6-6.05-2.43-7.91-5.15s-2.56-6-1.95-9.23l7.39-39.65c1.09-5.84,6.18-10.08,12.11-10.08,.76,0,1.52,.07,2.28,.21,6.69,1.25,11.11,7.7,9.87,14.38l-7.39,39.65c-1.09,5.84-6.18,10.08-12.11,10.08Z"/><path d="M740.81,852.72h0c.57,0,1.16,.05,1.73,.16,5.06,.94,8.41,5.83,7.47,10.88l-.12,.66-7.15,38.34-.12,.66c-.82,4.42-4.68,7.63-9.16,7.63-.57,0-1.16-.05-1.73-.16-2.45-.46-4.58-1.84-5.99-3.9s-1.93-4.54-1.48-6.99l.12-.66,7.15-38.34,.12-.65c.82-4.42,4.68-7.63,9.16-7.63m0-6c-7.24,0-13.68,5.15-15.06,12.53l-.12,.66-7.15,38.34-.12,.66c-1.55,8.32,3.94,16.33,12.26,17.88,.95,.18,1.89,.26,2.83,.26,7.24,0,13.68-5.15,15.06-12.53l.12-.66,7.15-38.34,.12-.66c1.55-8.32-3.94-16.33-12.26-17.88-.95-.18-1.89-.26-2.83-.26h0Z"/></g><g><path class="cls-5" d="M756.15,908.9c-5.02,0-9.49-3-11.41-7.63l-15.39-37.29c-2.59-6.28,.41-13.51,6.7-16.1,1.51-.62,3.09-.94,4.7-.94,5.02,0,9.49,3,11.41,7.63l15.38,37.28c2.59,6.29-.41,13.51-6.7,16.11-1.51,.62-3.09,.94-4.7,.94Z"/><path d="M740.76,849.95h0c3.8,0,7.19,2.27,8.63,5.78l.25,.62,14.88,36.05,.25,.62c.95,2.3,.95,4.84,0,7.14-.96,2.3-2.75,4.09-5.06,5.04-1.14,.47-2.34,.71-3.55,.71-3.8,0-7.19-2.27-8.63-5.78l-.25-.62-14.88-36.05-.25-.62c-1.96-4.76,.31-10.22,5.07-12.19,1.14-.47,2.34-.71,3.55-.71m0-6c-1.95,0-3.93,.37-5.84,1.16-7.83,3.23-11.56,12.19-8.33,20.02l.25,.62,14.88,36.05,.25,.62c2.44,5.92,8.16,9.49,14.18,9.49,1.95,0,3.93-.37,5.84-1.16,7.83-3.23,11.56-12.19,8.33-20.02l-.25-.62-14.88-36.05-.25-.62c-2.44-5.92-8.16-9.49-14.18-9.49h0Z"/></g><g><path class="cls-5" d="M770.18,901.97c-3.32,0-6.44-1.3-8.77-3.67l-28.35-28.7c-1.07-1.09-1.93-2.37-2.55-3.8l-.69-1.62-1.75-.18c-32.14-3.32-51.04-16.15-57.79-39.22l-.05-.15c-1.22-3.5-1.33-7.13-.3-10.21,.94-2.81,2.73-4.8,5.03-5.61l51.49-18c.75-.26,1.53-.39,2.34-.39,4.58,0,9.2,4.04,11.22,9.82l.05,.13,.06,.13c8.31,18.05,13,36.29,13.95,54.2l.06,1.14,24.83,25.14c4.78,4.84,4.73,12.66-.11,17.44-2.32,2.29-5.4,3.56-8.67,3.56Z"/><path d="M728.79,793.41c2.74,0,6.61,2.74,8.39,7.81l.09,.27,.12,.26c8.15,17.71,12.75,35.57,13.68,53.1l.12,2.28,1.6,1.62,23.56,23.85,.47,.47c1.75,1.77,2.71,4.12,2.69,6.62s-1,4.83-2.77,6.58c-1.76,1.74-4.09,2.69-6.56,2.69s-4.87-.99-6.64-2.77l-.47-.47-27.41-27.75-.47-.47c-.81-.82-1.46-1.79-1.93-2.88l-1.39-3.24-3.51-.36c-30.79-3.18-48.85-15.31-55.22-37.08l-.04-.15-.05-.15c-.99-2.84-1.1-5.85-.29-8.27,.37-1.11,1.27-3.06,3.17-3.73l51.49-18c.43-.15,.87-.22,1.35-.22m0-6c-1.12,0-2.24,.18-3.33,.56l-51.49,18c-6.61,2.31-9.55,11.1-6.57,19.64,7.47,25.57,28.93,38.12,60.36,41.37,.73,1.71,1.78,3.32,3.17,4.73l.47,.47,27.41,27.75,.47,.47c3,3.04,6.95,4.56,10.91,4.56s7.79-1.47,10.77-4.42h0c6.02-5.95,6.08-15.66,.13-21.68l-.47-.47-23.56-23.85c-1-18.85-5.93-37.26-14.22-55.29-2.49-7.13-8.34-11.83-14.05-11.83h0Z"/></g><g><path class="cls-5" d="M668.85,821.68c-9.5,0-17.73-6.77-19.59-16.1-2.15-10.82,4.9-21.37,15.71-23.52l66.69-13.27c1.3-.26,2.62-.39,3.93-.39,9.5,0,17.73,6.77,19.59,16.1,2.15,10.82-4.9,21.37-15.71,23.52l-66.69,13.27c-1.3,.26-2.62,.39-3.93,.39Z"/><path d="M735.59,765.4v6h0c8.07,0,15.07,5.76,16.65,13.69,1.83,9.19-4.16,18.16-13.36,19.99l-66.69,13.27c-1.1,.22-2.23,.33-3.34,.33-8.07,0-15.07-5.76-16.65-13.69-.89-4.45,.02-8.99,2.54-12.76s6.36-6.34,10.82-7.23l66.69-13.27c1.1-.22,2.23-.33,3.34-.33v-6m0,0c-1.49,0-3,.15-4.51,.45l-66.69,13.27c-12.46,2.48-20.55,14.59-18.07,27.05,2.18,10.94,11.78,18.52,22.53,18.52,1.49,0,3-.15,4.51-.45l66.69-13.27c12.46-2.48,20.55-14.59,18.07-27.05-2.18-10.94-11.78-18.52-22.53-18.52h0Z"/></g><g><path class="cls-7" d="M372.8,772.35c9.27-51.29,35.19-87.98,79.18-112.04l47.74,33.76c-44.67,23.4-71.27,61.06-79.15,112.06l-47.76-33.77Z"/><path d="M451.78,663.85l42.25,29.88c-41.61,23.24-67.01,59.23-75.65,107.19l-42.29-29.9c4.75-24.91,13.79-46.65,26.89-64.66,12.34-16.96,28.74-31.25,48.79-42.5m.4-7.06c-43.59,23.3-72.98,60.48-82.67,116.92l53.33,37.71c7.3-56.53,36.34-94.22,82.67-116.92l-53.33-37.71h0Z"/></g><g><path class="cls-5" d="M359.67,914.05c-5.93,0-11.02-4.24-12.11-10.08l-7.39-39.65c-1.25-6.68,3.18-13.14,9.87-14.38,.75-.14,1.52-.21,2.28-.21,5.93,0,11.02,4.24,12.11,10.08l7.39,39.65c.6,3.24-.09,6.52-1.95,9.23s-4.67,4.55-7.91,5.15c-.75,.14-1.52,.21-2.28,.21Z"/><path d="M352.31,852.72c4.48,0,8.33,3.21,9.16,7.63l.12,.65,7.15,38.34,.12,.66c.46,2.45-.07,4.93-1.48,6.99-1.41,2.06-3.54,3.44-5.99,3.9-.57,.11-1.15,.16-1.73,.16-4.48,0-8.33-3.21-9.16-7.62l-.12-.66-7.15-38.34-.12-.66c-.46-2.45,.07-4.93,1.48-6.99,1.41-2.06,3.54-3.44,5.99-3.9,.57-.11,1.15-.16,1.73-.16m0-6c-.93,0-1.88,.09-2.83,.26h0c-8.32,1.55-13.82,9.56-12.26,17.88l.12,.66,7.15,38.34,.12,.66c1.38,7.38,7.82,12.53,15.06,12.53,.93,0,1.88-.09,2.83-.26h0c8.32-1.55,13.82-9.56,12.26-17.88l-.12-.66-7.15-38.34-.12-.66c-1.37-7.38-7.82-12.53-15.06-12.53h0Z"/></g><g><path class="cls-5" d="M336.96,908.9c-1.61,0-3.19-.32-4.7-.94-6.29-2.59-9.29-9.82-6.7-16.11l15.38-37.29c1.91-4.63,6.39-7.63,11.41-7.63,1.61,0,3.19,.31,4.7,.94,6.29,2.59,9.29,9.82,6.7,16.1l-15.38,37.29c-1.91,4.63-6.39,7.63-11.41,7.63h0Z"/><path d="M352.36,849.95c1.22,0,2.41,.24,3.55,.71,4.76,1.96,7.03,7.43,5.07,12.19l-.25,.62-14.88,36.05-.25,.62c-1.45,3.51-4.84,5.78-8.63,5.78-1.22,0-2.41-.24-3.55-.71-2.3-.95-4.1-2.74-5.06-5.04s-.96-4.84,0-7.14l.25-.62,14.88-36.05,.25-.62c1.45-3.51,4.84-5.78,8.63-5.78m0-6c-6.02,0-11.74,3.57-14.18,9.49l-.25,.62-14.88,36.05-.25,.62c-3.23,7.83,.5,16.79,8.33,20.02h0c1.91,.79,3.89,1.16,5.84,1.16,6.02,0,11.74-3.57,14.18-9.49l.25-.62,14.88-36.05,.25-.62c3.23-7.83-.5-16.79-8.32-20.02h0c-1.91-.79-3.89-1.16-5.84-1.16h0Z"/></g><g><path class="cls-5" d="M322.94,901.97c-3.27,0-6.34-1.26-8.67-3.56-2.34-2.32-3.65-5.41-3.67-8.7-.02-3.29,1.24-6.4,3.56-8.74l24.83-25.14,.06-1.14c.95-17.91,5.64-36.14,13.95-54.2l.06-.13,.05-.13c2.02-5.78,6.63-9.82,11.22-9.82,.8,0,1.59,.13,2.34,.39l51.49,18c2.3,.8,4.09,2.8,5.03,5.61,1.03,3.08,.92,6.71-.3,10.21l-.05,.15c-6.74,23.07-25.64,35.9-57.79,39.22l-1.75,.18-.69,1.62c-.62,1.44-1.47,2.72-2.55,3.81l-28.34,28.69c-2.34,2.37-5.45,3.67-8.78,3.67h0Z"/><path d="M364.33,793.41c.47,0,.92,.08,1.35,.22l51.49,18c2.98,1.04,4.9,6.23,2.89,11.99l-.05,.15-.04,.15c-6.36,21.77-24.42,33.9-55.22,37.08l-3.51,.36-1.39,3.24c-.47,1.09-1.12,2.06-1.93,2.88l-.47,.47-27.41,27.75-.47,.48c-1.77,1.79-4.13,2.77-6.64,2.77s-4.8-.96-6.56-2.69c-3.66-3.62-3.7-9.54-.08-13.2l.47-.47,23.56-23.85,1.6-1.62,.12-2.28c.93-17.53,5.53-35.39,13.68-53.1l.12-.26,.09-.27c1.77-5.07,5.64-7.81,8.39-7.81m0-6c-5.71,0-11.56,4.69-14.05,11.83-8.3,18.03-13.22,36.44-14.22,55.29l-23.56,23.85-.47,.47c-5.95,6.02-5.89,15.73,.13,21.68h0c2.99,2.95,6.88,4.42,10.77,4.42s7.91-1.52,10.91-4.56l.47-.47,27.41-27.75,.47-.47c1.39-1.41,2.44-3.02,3.17-4.73,31.43-3.25,52.88-15.79,60.36-41.37,2.98-8.53,.04-17.33-6.57-19.64l-51.49-18c-1.09-.38-2.2-.56-3.33-.56h0Z"/></g><g><path class="cls-5" d="M424.27,821.68c-1.31,0-2.63-.13-3.93-.39l-66.69-13.27c-10.82-2.15-17.86-12.7-15.71-23.52,1.86-9.33,10.09-16.1,19.59-16.1,1.31,0,2.63,.13,3.93,.39l66.69,13.27c10.82,2.15,17.87,12.7,15.71,23.52-1.86,9.33-10.1,16.1-19.59,16.1h0Z"/><path d="M357.53,771.4c1.11,0,2.24,.11,3.34,.33l66.69,13.27c9.19,1.83,15.19,10.8,13.36,19.99-1.58,7.93-8.58,13.69-16.65,13.69-1.11,0-2.24-.11-3.34-.33l-66.69-13.27c-4.45-.89-8.3-3.45-10.82-7.23-2.52-3.78-3.42-8.31-2.54-12.76,1.58-7.93,8.58-13.69,16.65-13.69m0-6c-10.75,0-20.36,7.57-22.53,18.52-2.48,12.46,5.61,24.57,18.07,27.05l66.69,13.27c1.51,.3,3.02,.45,4.51,.45,10.75,0,20.36-7.57,22.53-18.52,2.48-12.46-5.61-24.57-18.07-27.05l-66.69-13.27c-1.51-.3-3.02-.45-4.51-.45h0Z"/></g><g><rect class="cls-5" x="397.03" y="313" width="287" height="287" rx="31.13" ry="31.13"/><path d="M652.89,316c15.51,0,28.14,12.62,28.14,28.14v224.73c0,15.51-12.62,28.14-28.14,28.14h-224.73c-15.51,0-28.14-12.62-28.14-28.14v-224.73c0-15.51,12.62-28.14,28.14-28.14h224.73m0-6h-224.73c-18.85,0-34.14,15.28-34.14,34.14v224.73c0,18.85,15.28,34.14,34.14,34.14h224.73c18.85,0,34.14-15.28,34.14-34.14v-224.73c0-18.85-15.28-34.14-34.14-34.14h0Z"/></g><circle cx="464.12" cy="457.22" r="40"/><circle cx="464.12" cy="366.47" r="40"/><circle cx="464.12" cy="547.97" r="40"/><circle cx="614.12" cy="457.22" r="40"/><circle cx="614.12" cy="366.47" r="40"/><circle cx="614.12" cy="547.97" r="40"/><polygon class="cls-1" points="679.82 227.76 679.82 179.42 721.68 155.26 763.54 179.42 763.54 227.76 721.68 251.92 679.82 227.76"/><path class="cls-4" d="M679.54,179.34v48.5l.07,.04,41.93,24.21,.07-.04,41.93-24.21v-48.5l-.07-.04-41.93-24.21-.07,.04-41.93,24.21Zm42-23.92l41.57,24-41.57,24-41.57-24,41.57-24Zm41.72,72.25l-41.57,24v-48l41.57-24v48Zm-83.43,0v-48l41.57,24v48l-41.57-24Z"/><g><path class="cls-7" d="M540,525.74c-81.34,0-157.79-4.31-215.26-12.13-64.02-8.71-86.74-19.65-86.74-26.37,0-.69,.29-1.45,.87-2.27l3.32-4.73h-1.82l.31-.5h-.27c38.96-61.51,89.4-110.27,150.03-145h298.49c32.47,16.29,61.64,36.77,86.7,60.89,24.9,23.96,46.52,52.24,64.29,84.11h-.24l1.28,2.37-1.19,1.34c1.47,1.39,2.22,2.67,2.22,3.79,0,6.72-22.72,17.66-86.74,26.37-57.48,7.82-133.93,12.13-215.26,12.13Z"/><path d="M688.22,337.74c31.95,16.1,60.65,36.3,85.34,60.06,23.52,22.63,44.09,49.16,61.22,78.94h-.14l4.16,7.67-1.08,1.22c.97,.92,1.22,1.47,1.27,1.62-.28,.72-6.5,13.07-86.55,23.72-57.06,7.59-132.51,11.77-212.44,11.77s-155.37-4.18-212.44-11.77c-80.51-10.71-86.34-23.14-86.55-23.71,.02-.07,.1-.26,.32-.57l6.64-9.45h-2.19l.31-.5h-.19c17.95-27.65,38.32-52.75,60.65-74.74,25.2-24.81,53.69-46.42,84.69-64.26h296.98m1.42-6H389.65c-65.28,37.24-115.97,88.39-154.65,151h.31c-.1,.17-.21,.33-.31,.5h1.42c-.93,1.32-1.42,2.65-1.42,4,0,22.92,136.55,41.5,305,41.5s305-18.58,305-41.5c0-2.03-1.09-4.02-3.16-5.98,.78,.65,1.42,1.31,1.89,1.98h1.27c-.09-.17-.19-.33-.28-.5h.28c-37.48-69.28-90.15-118.44-155.35-151h0Z"/></g><g><path class="cls-6" d="M393,329.74v-56.08c0-12.64,10.28-22.92,22.92-22.92h248.15c12.64,0,22.92,10.28,22.92,22.92v56.08H393Z"/><path d="M664.08,253.74c10.99,0,19.92,8.94,19.92,19.92v53.08H396v-53.08c0-10.99,8.94-19.92,19.92-19.92h248.15m0-6h-248.15c-14.32,0-25.92,11.61-25.92,25.92v59.08h300v-59.08c0-14.32-11.61-25.92-25.92-25.92h0Z"/></g><path class="cls-2" d="M411.54,247.74h249.07c-39.5-119.81-9.34-149.44,60.43-103.5C673.04-18.76,458.04-3.76,411.54,247.74Z"/><circle class="cls-3" cx="721.54" cy="154.74" r="17.5"/><g><path class="cls-6" d="M540.6,832c-37.44,0-75.56-28.28-113.32-84.04-13.11-27.57-16.49-50.04-10.07-66.79l.95-2.48-2.34-1.25c-1.99-1.06-3.28-2.31-4.32-4.18-3.17-5.7-6.39-13.79-3.73-20,1.92-4.48,6.79-7.77,14.49-9.78,14.81-3.85,19.82-9.74,24.24-14.93,1.71-2.01,3.33-3.91,5.45-5.58l5.83-4.6-7.38-.74c-4.96-.5-9.34-.72-13.2-.91-7.94-.4-13.68-.68-16.05-3.12l-.16-.16-.18-.14c-.88-.67-2.04-2.1-2.04-6.81,0-12.83,12.63-25.61,34.65-35.07,23.15-9.95,53.99-15.43,86.85-15.43,24.12,0,47.47,3,67.51,8.66l.16,.04c2.1,.6,4.21,1.23,6.23,1.89l.12,.08,.41,.09c1.04,.34,2.06,.68,3.07,1.04,2.09,.73,4.13,1.49,6.09,2.27l.2,.08c1.94,.78,3.83,1.59,5.63,2.41l.12,.05c.86,.4,1.71,.79,2.54,1.2l.11,.05c1.77,.87,3.44,1.74,5.02,2.62l.29,.16c1.58,.89,3.09,1.79,4.48,2.69l.21,.14c.64,.42,1.26,.83,1.86,1.25l.29,.2c1.29,.9,2.54,1.84,3.73,2.79l.34,.28c.51,.42,1.02,.85,1.52,1.29l.12,.11c.56,.5,1.09,.98,1.59,1.47l.26,.25c.4,.39,.81,.8,1.2,1.21l.3,.31c.89,.95,1.72,1.93,2.47,2.9l.27,.35c.31,.42,.61,.83,.89,1.24l.17,.24c.33,.49,.64,.98,.92,1.47l.19,.34c.21,.37,.42,.76,.63,1.16l.19,.38c.24,.48,.46,.96,.66,1.43l.04,.09c.2,.48,.37,.96,.54,1.44l.13,.4c.13,.4,.24,.8,.34,1.2l.08,.32c.12,.49,.22,.98,.3,1.47l.05,.34c.06,.4,.11,.79,.15,1.19l.04,.42c.04,.5,.06,1,.06,1.5,0,1.21-.08,2.3-.23,3.24-.14,.85-.34,1.59-.6,2.22-.3,.72-.69,1.31-1.19,1.79-.24,.23-.52,.45-.83,.64-.33,.21-.7,.39-1.1,.56-.65,.27-1.38,.5-2.26,.69-.86,.19-1.84,.35-3,.49-.76,.09-1.55,.17-2.39,.23-1.9,.15-4.05,.26-6.33,.37l-2.57,.13c-.74,.04-1.5,.08-2.28,.13l-8.12,.47,6.48,4.91c2.38,1.8,4.08,3.91,5.89,6.13,4.22,5.21,9.01,11.11,23.19,14.98,7.17,1.96,11.75,5.16,13.64,9.51,2.72,6.28-.38,14.52-3.46,20.33-.48,.9-1.02,1.66-1.64,2.31l-1.35,1.41,.74,1.81c6.59,16.04-8.04,47.05-19.67,69.04-38.24,55.8-76.63,84.1-114.08,84.1h0Z"/><path d="M540.28,558.99c23.85,0,46.91,2.96,66.71,8.55l.1,.03c2.19,.62,4.36,1.28,6.43,1.95l.05,.02,.12,.04c1.04,.34,2.08,.69,3.12,1.05,2.02,.71,4.02,1.45,5.97,2.23l.16,.07c1.9,.76,3.76,1.56,5.55,2.37l.08,.04c.83,.38,1.66,.77,2.48,1.17l.09,.04,.08,.04c1.64,.8,3.26,1.65,4.8,2.51l.29,.16c1.52,.85,2.98,1.73,4.33,2.6l.08,.05,.13,.08c.59,.39,1.19,.79,1.78,1.19l.13,.09,.15,.1c1.24,.87,2.44,1.76,3.56,2.67l.32,.26c.52,.42,1,.83,1.46,1.24l.13,.11c.49,.43,.99,.89,1.48,1.37l.09,.09,.14,.14c.38,.37,.76,.76,1.14,1.15l.08,.08,.19,.2c.82,.88,1.59,1.79,2.28,2.69l.25,.33c.28,.38,.56,.76,.81,1.14l.12,.17,.03,.04c.29,.43,.57,.87,.83,1.32l.05,.09,.1,.19c.2,.35,.4,.71,.57,1.06l.06,.11,.12,.23c.23,.47,.42,.87,.57,1.24l.02,.04v.03l.02,.03c.15,.37,.3,.78,.47,1.25,.03,.1,.07,.2,.1,.31l.02,.05c.11,.35,.21,.69,.3,1.03l.06,.24v.03c.11,.42,.2,.84,.27,1.25v.08l.04,.23c.05,.33,.09,.68,.12,1.01v.08c.02,.09,.03,.19,.03,.28,.04,.5,.05,.91,.05,1.28,0,1.06-.06,1.99-.19,2.76-.1,.62-.24,1.13-.41,1.54-.19,.45-.37,.65-.5,.77-.1,.09-.22,.18-.36,.27-.18,.12-.4,.23-.66,.33-.47,.2-1.06,.38-1.76,.53-.76,.17-1.65,.31-2.7,.44-.68,.08-1.43,.15-2.28,.22-1.85,.15-3.97,.25-6.23,.36-.84,.04-1.71,.08-2.6,.13-.75,.04-1.52,.08-2.3,.13l-16.22,.96,12.95,9.81c2.09,1.58,3.61,3.46,5.38,5.63,4.29,5.28,9.62,11.86,24.73,15.98,6.24,1.71,10.17,4.33,11.67,7.8,2.24,5.19-.59,12.51-3.36,17.74-.35,.65-.73,1.19-1.16,1.64l-2.7,2.82,1.49,3.61c6.1,14.84-8.13,44.9-19.47,66.35-19.13,27.89-38.4,49-57.26,62.73-18.16,13.22-36.41,19.92-54.25,19.92s-36.59-6.91-54.91-20.55c-18.44-13.72-37.21-34.58-55.79-61.99-12.66-26.7-15.98-48.31-9.88-64.22l1.9-4.95-4.68-2.49c-1.48-.79-2.35-1.62-3.11-2.99-2.84-5.11-5.77-12.27-3.6-17.36,1.53-3.59,5.74-6.29,12.49-8.05,15.72-4.09,21.29-10.63,25.77-15.89,1.68-1.98,3.14-3.68,5.02-5.17l11.65-9.19-14.77-1.49c-5.04-.51-9.45-.73-13.35-.92-6.43-.32-12.5-.62-14.04-2.21l-.31-.32-.36-.27c-.4-.3-.86-1.64-.86-4.43,0-11.57,11.97-23.35,32.83-32.32,22.78-9.79,53.21-15.18,85.67-15.18m0-6c-68.76,0-124.5,23.95-124.5,53.5,0,4.77,1.07,7.56,3.22,9.2,4.56,4.71,14.84,3.3,31.1,4.93-8.02,6.33-8.93,14.85-28.58,19.96-23.14,6.02-19.26,22.2-12.62,34.14,1.41,2.54,3.22,4.14,5.53,5.37-6.66,17.36-3.61,40.26,10.26,69.35,37.95,56.11,76.57,85.55,115.93,85.55s77.03-27.68,116.66-85.55c15.83-29.91,26.23-56.28,19.87-71.74,.8-.83,1.5-1.8,2.13-2.98,6.33-11.94,10.03-28.11-12.03-34.14-19.38-5.29-19.64-14.23-28.06-20.61,.77-.05,1.53-.09,2.26-.13,3.36-.18,6.36-.3,8.98-.51,.88-.07,1.71-.15,2.51-.24,1.19-.14,2.29-.32,3.3-.54,1.01-.23,1.93-.5,2.76-.85,.55-.23,1.07-.49,1.54-.79,.47-.3,.91-.63,1.3-1.01,.79-.75,1.42-1.67,1.89-2.8,.35-.84,.62-1.81,.79-2.9,.18-1.1,.26-2.33,.26-3.71,0-.58-.03-1.15-.07-1.72-.01-.16-.03-.32-.04-.48-.04-.45-.1-.91-.17-1.36-.02-.13-.04-.26-.06-.39-.1-.56-.21-1.12-.35-1.68-.03-.12-.06-.24-.1-.36-.12-.45-.25-.9-.39-1.35-.05-.15-.1-.31-.15-.46-.18-.54-.38-1.08-.6-1.62,0-.01,0-.03-.01-.04-.23-.55-.48-1.1-.75-1.65-.07-.14-.14-.28-.22-.43-.23-.44-.46-.88-.71-1.32-.07-.11-.13-.23-.19-.34-.32-.54-.65-1.07-1.01-1.61-.06-.09-.12-.18-.19-.27-.31-.45-.63-.9-.96-1.34-.1-.13-.19-.26-.29-.39-.81-1.06-1.7-2.1-2.66-3.13-.1-.11-.21-.22-.31-.33-.42-.44-.84-.87-1.29-1.3-.09-.09-.17-.17-.26-.26-.53-.51-1.09-1.02-1.66-1.53-.05-.05-.11-.09-.16-.14-.52-.46-1.06-.91-1.61-1.36-.12-.09-.23-.19-.35-.28-1.23-.99-2.53-1.97-3.9-2.92-.1-.07-.2-.14-.3-.21-.63-.43-1.27-.86-1.92-1.29-.08-.05-.15-.1-.23-.15-1.48-.95-3.02-1.88-4.64-2.78-.1-.06-.2-.11-.3-.17-1.63-.91-3.33-1.8-5.09-2.66-.06-.03-.12-.06-.19-.09-.85-.42-1.72-.83-2.61-1.23-.04-.02-.08-.04-.12-.06-1.86-.85-3.79-1.67-5.77-2.47-.07-.03-.13-.05-.2-.08-2-.8-4.06-1.57-6.19-2.31h-.03c-1.07-.38-2.16-.75-3.26-1.11h0c-2.2-.72-4.46-1.41-6.77-2.06-.04-.01-.08-.02-.12-.03-19.62-5.54-43.09-8.77-68.33-8.77h0Z"/></g><g><path class="cls-8" d="M589.47,999c-26.19,0-47.5-21.31-47.5-47.5s21.31-47.5,47.5-47.5h13c26.19,0,47.5,21.31,47.5,47.5s-21.31,47.5-47.5,47.5h-13Z"/><path d="M602.47,907c24.54,0,44.5,19.96,44.5,44.5s-19.96,44.5-44.5,44.5h-13c-24.54,0-44.5-19.96-44.5-44.5s19.96-44.5,44.5-44.5h13m0-6h-13c-27.89,0-50.5,22.61-50.5,50.5s22.61,50.5,50.5,50.5h13c27.89,0,50.5-22.61,50.5-50.5s-22.61-50.5-50.5-50.5h0Z"/></g><g><path class="cls-8" d="M594.9,1066.13c-13.82,0-26.09-2.41-34.54-6.79-18.77-9.72-33.88-39.04-33.88-56.84,0-38.32,31.18-69.5,69.5-69.5s69.5,31.18,69.5,69.5c0,18.47-15.58,48.3-33.77,56.78-9.2,4.29-22.96,6.85-36.81,6.85Z"/><path d="M595.97,936c36.67,0,66.5,29.83,66.5,66.5,0,8.61-3.63,20.11-9.72,30.75-6.4,11.19-14.53,19.68-22.32,23.31-8.82,4.11-22.11,6.57-35.54,6.57s-25.24-2.35-33.16-6.46c-7.96-4.13-16.18-12.81-22.55-23.82-6.08-10.51-9.71-21.85-9.71-30.35,0-36.67,29.83-66.5,66.5-66.5m0-6c-40.04,0-72.5,32.46-72.5,72.5,0,19.61,16.2,49.5,35.5,59.5,9.4,4.87,22.61,7.13,35.92,7.13,14.03,0,28.17-2.51,38.08-7.13,19.3-9,35.5-39.89,35.5-59.5,0-40.04-32.46-72.5-72.5-72.5h0Z"/></g><g><path class="cls-8" d="M597.16,1066.13c-10.54,0-19.88-1.17-26.33-3.29-13.4-4.41-24.88-17.91-24.88-25.86,0-17.63,23.34-31.98,52.02-31.98s52.02,14.35,52.02,31.98c0,8.15-11.67,21.94-24.79,25.83-7,2.08-17.49,3.32-28.05,3.32Z"/><path d="M597.97,1008c26.57,0,49.02,13.27,49.02,28.98,0,6.41-10.15,19.25-22.65,22.96-6.74,2-16.91,3.19-27.19,3.19s-19.33-1.14-25.39-3.14c-13.02-4.29-22.82-16.92-22.82-23.01,0-15.71,22.45-28.98,49.02-28.98m0-6c-30.39,0-55.02,15.66-55.02,34.98,0,9.46,12.3,23.88,26.94,28.71,7.13,2.35,17.16,3.44,27.26,3.44,10.65,0,21.38-1.21,28.9-3.44,14.65-4.34,26.94-19.25,26.94-28.71,0-19.32-24.64-34.98-55.02-34.98h0Z"/></g></svg>