<?xml version="1.0" encoding="UTF-8"?><svg id="Back" xmlns="http://www.w3.org/2000/svg" viewBox="0 0 1080 1080"><defs><style>.cls-1,.cls-2,.cls-3{stroke-width:6px;}.cls-1,.cls-2,.cls-3,.cls-4{stroke:#000;stroke-miterlimit:10;}.cls-1,.cls-5,.cls-4{fill:#e6e6e6;}.cls-6{fill:#9e005d;}.cls-2,.cls-7{fill:#6c5cc4;}.cls-3{fill:#fbb03b;}.cls-8{fill:#736357;}.cls-4{stroke-width:3px;}</style></defs><g><path class="cls-5" d="M320.25,866.77c-1.74,0-3.44-.37-5.05-1.09-3.01-1.35-5.3-3.79-6.47-6.87-1.17-3.08-1.07-6.43,.28-9.43l16.54-36.79c1.99-4.42,6.41-7.28,11.26-7.28,1.74,0,3.44,.37,5.05,1.09,3,1.35,5.3,3.79,6.47,6.87,1.17,3.08,1.07,6.43-.28,9.43l-16.54,36.79c-1.99,4.42-6.41,7.28-11.26,7.28h0Z"/><path d="M336.81,808.31h0c1.32,0,2.6,.28,3.82,.82,2.27,1.02,4.01,2.87,4.9,5.2,.88,2.33,.81,4.87-.21,7.14l-.27,.61-15.99,35.57-.27,.61c-1.5,3.35-4.85,5.51-8.52,5.51-1.32,0-2.6-.28-3.82-.82-4.69-2.11-6.8-7.65-4.69-12.34l.27-.61,15.99-35.57,.27-.61c1.5-3.35,4.85-5.51,8.52-5.51m0-6c-5.85,0-11.44,3.37-13.99,9.05l-.27,.61-15.99,35.57-.27,.61c-3.47,7.72-.03,16.8,7.7,20.27h0c2.04,.92,4.18,1.35,6.28,1.35,5.85,0,11.44-3.37,13.99-9.05l.27-.61,15.99-35.57,.27-.61c3.47-7.72,.03-16.8-7.7-20.27h0c-2.04-.92-4.18-1.35-6.28-1.35h0Z"/></g><g><path class="cls-5" d="M765.85,866.77c-4.85,0-9.27-2.86-11.26-7.28l-16.54-36.79c-1.35-3-1.45-6.36-.28-9.44,1.17-3.08,3.47-5.52,6.47-6.87,1.61-.72,3.3-1.09,5.05-1.09,4.85,0,9.27,2.86,11.26,7.28l16.54,36.79c1.35,3,1.45,6.36,.28,9.44-1.17,3.08-3.47,5.52-6.47,6.87-1.61,.72-3.3,1.09-5.05,1.09Z"/><path d="M749.29,808.31h0c3.67,0,7.02,2.16,8.52,5.51l.27,.61,15.99,35.57,.27,.61c2.11,4.69,0,10.23-4.69,12.34-1.22,.55-2.5,.82-3.82,.82-3.67,0-7.02-2.16-8.52-5.51l-.27-.61-15.99-35.57-.27-.61c-2.11-4.69,0-10.23,4.69-12.34,1.22-.55,2.5-.82,3.82-.82m0-6c-2.1,0-4.24,.43-6.28,1.35h0c-7.72,3.47-11.17,12.55-7.7,20.27l.27,.61,15.99,35.57,.27,.61c2.56,5.68,8.14,9.05,13.99,9.05,2.1,0,4.24-.43,6.28-1.35h0c7.72-3.47,11.17-12.55,7.7-20.27l-.27-.61-15.99-35.57-.27-.61c-2.55-5.68-8.14-9.05-13.99-9.05h0Z"/></g><g><path class="cls-7" d="M497.61,950c-20.13,0-36.5-16.37-36.5-36.5v-101.5h73v101.5c0,20.13-16.37,36.5-36.5,36.5Z"/><path d="M531.11,815v98.5c0,18.47-15.03,33.5-33.5,33.5s-33.5-15.03-33.5-33.5v-98.5h67m6-6h-79v104.5c0,21.82,17.68,39.5,39.5,39.5h0c21.82,0,39.5-17.68,39.5-39.5v-104.5h0Z"/></g><g><rect class="cls-7" x="558.5" y="812" width="73" height="192"/><path d="M628.5,815v186h-67v-186h67m6-6h-79v198h79v-198h0Z"/></g><rect class="cls-2" x="459.05" y="632" width="174" height="224" rx="41.43" ry="41.43"/><g><path class="cls-7" d="M350.01,744.72c17.81-48.99,49.56-80.76,96.98-97.04l41.34,41.34c-47.98,15.51-80.56,48.13-96.96,97.06l-41.36-41.36Z"/><path d="M446.2,651.14l36.59,36.59c-44.94,15.87-76.06,47.04-92.68,92.85l-36.62-36.62c8.9-23.75,21.48-43.65,37.44-59.18,15.03-14.63,33.61-25.94,55.28-33.64m1.59-6.89c-46.9,15.6-82.16,47.27-101.25,101.25l46.18,46.18c16.76-54.48,51.75-86.72,101.25-101.25l-46.18-46.18h0Z"/></g><g><path class="cls-7" d="M692.15,786.08c-16.4-48.93-48.99-81.55-96.96-97.06l41.34-41.34c47.42,16.28,79.17,48.05,96.98,97.04l-41.36,41.36Z"/><path d="M637.31,651.14c21.67,7.7,40.25,19,55.28,33.64,15.96,15.54,28.54,35.44,37.44,59.18l-36.62,36.62c-16.62-45.81-47.74-76.99-92.68-92.85l36.59-36.59m-1.59-6.89l-46.18,46.18c49.51,14.53,84.5,46.78,101.25,101.25l46.18-46.18c-19.09-53.99-54.35-85.66-101.25-101.25h0Z"/></g><g><path class="cls-5" d="M279.29,858.09c-1.67,0-3.3-.34-4.85-1-3.03-1.3-5.37-3.7-6.59-6.75s-1.18-6.41,.11-9.44l15.88-37.07c1.95-4.54,6.4-7.48,11.34-7.48,1.67,0,3.3,.34,4.85,1,6.25,2.68,9.16,9.94,6.48,16.19l-15.88,37.07c-1.95,4.54-6.4,7.48-11.34,7.48h0Z"/><path d="M295.19,799.34c1.26,0,2.49,.26,3.67,.76,2.29,.98,4.06,2.8,4.99,5.11,.93,2.31,.9,4.85-.09,7.14l-.26,.61-15.36,35.85-.26,.61c-1.47,3.44-4.84,5.66-8.59,5.66-1.26,0-2.49-.26-3.67-.76-2.29-.98-4.06-2.8-4.99-5.11-.93-2.31-.9-4.85,.09-7.14l.26-.61,15.36-35.85,.26-.61c1.47-3.44,4.84-5.66,8.59-5.66m0-6c-5.95,0-11.61,3.48-14.1,9.3l-.26,.61-15.36,35.85-.26,.61c-3.33,7.78,.27,16.8,8.06,20.13h0c1.97,.84,4.02,1.24,6.03,1.24,5.95,0,11.61-3.48,14.1-9.3l.26-.61,15.36-35.85,.26-.61c3.33-7.78-.27-16.8-8.06-20.13h0c-1.97-.84-4.02-1.24-6.03-1.24h0Z"/></g><g><path class="cls-5" d="M263.28,841.19c-4.13,0-7.96-2.04-10.26-5.47-3.79-5.65-2.27-13.33,3.38-17.11l33.51-22.45c2.04-1.37,4.41-2.09,6.85-2.09,4.13,0,7.96,2.04,10.26,5.47,1.83,2.74,2.49,6.02,1.85,9.26s-2.5,6.02-5.23,7.86l-33.51,22.45c-2.04,1.37-4.41,2.09-6.85,2.09h0Z"/><path d="M296.76,797.07c3.13,0,6.03,1.55,7.77,4.14,1.39,2.07,1.89,4.56,1.4,7-.48,2.45-1.89,4.56-3.96,5.94l-.55,.37-32.4,21.71-.55,.37c-1.54,1.03-3.34,1.58-5.18,1.58-3.13,0-6.03-1.55-7.77-4.14-2.86-4.28-1.72-10.08,2.56-12.95l.55-.37,32.4-21.71,.55-.37c1.54-1.03,3.34-1.58,5.18-1.58m0-6c-2.93,0-5.9,.84-8.52,2.6l-.55,.37-32.4,21.71-.55,.37c-7.03,4.71-8.92,14.24-4.2,21.27h0c2.96,4.41,7.81,6.8,12.75,6.8,2.93,0,5.9-.84,8.52-2.6l.55-.37,32.4-21.71,.55-.37c7.03-4.71,8.92-14.24,4.2-21.27h0c-2.96-4.41-7.81-6.8-12.75-6.8h0Z"/></g><g><path class="cls-5" d="M343.08,828.55c-11.42,0-24.33-3.76-38.36-11.17l-1.56-.82-1.48,.96c-1.31,.85-2.73,1.44-4.23,1.75l-39.51,8.11c-.83,.17-1.67,.26-2.5,.26-5.82,0-10.89-4.15-12.07-9.86-.66-3.23-.03-6.52,1.79-9.27,1.81-2.75,4.59-4.63,7.82-5.29l34.61-7.11,.68-.91c10.74-14.36,24.77-26.92,41.71-37.31l.12-.07,.11-.09c2.91-2.19,6.27-3.39,9.46-3.39s5.54,1.1,7.04,3.09l32.81,43.58c1.47,1.95,1.85,4.6,1.07,7.45-.85,3.13-2.96,6.09-5.92,8.32l-.12,.1c-9.38,7.86-19.68,11.68-31.48,11.68Z"/><path d="M339.68,757.33c1.2,0,3.4,.25,4.64,1.89l32.81,43.58c1.9,2.53,.62,7.9-4.26,11.58l-.12,.09-.12,.1c-8.82,7.39-18.49,10.98-29.55,10.98s-23.36-3.64-36.96-10.83l-3.12-1.65-2.96,1.92c-.99,.65-2.07,1.09-3.2,1.32l-.65,.13-38.2,7.84-.65,.13c-.63,.13-1.26,.19-1.89,.19-4.4,0-8.24-3.14-9.13-7.46-1.04-5.04,2.22-9.98,7.27-11.02l.65-.13,32.84-6.74,2.23-.46,1.37-1.83c10.51-14.06,24.26-26.35,40.88-36.55l.24-.15,.23-.17c2.35-1.77,5.15-2.79,7.66-2.79m0-6c-3.69,0-7.73,1.33-11.27,4-16.91,10.38-31.24,22.95-42.55,38.07l-32.84,6.74-.65,.13c-8.3,1.7-13.64,9.81-11.94,18.1h0c1.49,7.25,7.88,12.25,15,12.25,1.02,0,2.06-.1,3.1-.32l.65-.13,38.2-7.84,.65-.13c1.94-.4,3.7-1.16,5.27-2.17,14.11,7.45,27.41,11.52,39.76,11.52s23.29-3.91,33.4-12.38c7.22-5.44,9.66-14.38,5.45-19.98l-32.81-43.58c-2.15-2.85-5.6-4.28-9.44-4.28h0Z"/></g><g><path class="cls-5" d="M388.56,818.44c-5.34,0-10.36-2.08-14.14-5.86l-48.08-48.08c-7.8-7.8-7.8-20.49,0-28.29,3.78-3.78,8.8-5.86,14.14-5.86s10.37,2.08,14.14,5.86l48.08,48.08c3.78,3.78,5.86,8.8,5.86,14.14s-2.08,10.36-5.86,14.14c-3.78,3.78-8.8,5.86-14.14,5.86Z"/><path d="M340.47,733.36c4.54,0,8.81,1.77,12.02,4.98l48.08,48.08c3.21,3.21,4.98,7.48,4.98,12.02s-1.77,8.81-4.98,12.02c-3.21,3.21-7.48,4.98-12.02,4.98s-8.81-1.77-12.02-4.98l-48.08-48.08c-3.21-3.21-4.98-7.48-4.98-12.02s1.77-8.81,4.98-12.02,7.48-4.98,12.02-4.98m0-6c-5.89,0-11.77,2.25-16.26,6.74-8.98,8.98-8.98,23.54,0,32.53l48.08,48.08c4.49,4.49,10.38,6.74,16.26,6.74s11.77-2.25,16.26-6.74c8.98-8.98,8.98-23.54,0-32.53l-48.08-48.08c-4.49-4.49-10.38-6.74-16.26-6.74h0Z"/></g><g><path class="cls-5" d="M806.8,858.09c-4.94,0-9.4-2.94-11.34-7.48l-15.88-37.08c-2.68-6.25,.23-13.51,6.48-16.19,1.55-.66,3.18-1,4.85-1,4.94,0,9.4,2.94,11.34,7.48l15.88,37.07c1.3,3.03,1.34,6.38,.11,9.44s-3.57,5.46-6.59,6.75c-1.55,.66-3.18,1-4.85,1Z"/><path d="M790.91,799.34h0c3.74,0,7.11,2.22,8.59,5.66l.26,.61,15.36,35.85,.26,.61c2.03,4.73-.17,10.23-4.9,12.25-1.17,.5-2.41,.76-3.67,.76-3.74,0-7.11-2.22-8.59-5.66l-.26-.61-15.36-35.85-.26-.61c-.98-2.29-1.01-4.83-.09-7.14,.93-2.31,2.7-4.13,4.99-5.11,1.17-.5,2.41-.76,3.67-.76m0-6c-2.01,0-4.06,.4-6.03,1.24h0c-7.78,3.33-11.39,12.35-8.06,20.13l.26,.61,15.36,35.85,.26,.61c2.49,5.82,8.15,9.3,14.1,9.3,2.01,0,4.06-.4,6.03-1.24h0c7.78-3.33,11.39-12.35,8.06-20.13l-.26-.61-15.36-35.85-.26-.61c-2.49-5.82-8.15-9.3-14.1-9.3h0Z"/></g><g><path class="cls-5" d="M822.81,841.19c-2.44,0-4.81-.72-6.85-2.09l-33.51-22.45c-2.74-1.83-4.6-4.62-5.23-7.86-.64-3.23,.02-6.52,1.85-9.26,2.29-3.42,6.13-5.47,10.26-5.47,2.44,0,4.81,.72,6.85,2.09l33.51,22.45c2.74,1.83,4.6,4.62,5.23,7.86s-.02,6.52-1.85,9.26c-2.29,3.42-6.13,5.47-10.26,5.47Z"/><path d="M789.33,797.07h0c1.85,0,3.64,.55,5.18,1.58l.56,.37,32.4,21.71,.55,.37c2.07,1.39,3.48,3.5,3.96,5.94s-.02,4.93-1.4,7c-1.74,2.59-4.64,4.14-7.77,4.14-1.85,0-3.64-.55-5.18-1.58l-.55-.37-32.4-21.71-.55-.37c-4.28-2.86-5.42-8.67-2.56-12.95,1.74-2.59,4.64-4.14,7.77-4.14m0-6c-4.94,0-9.79,2.39-12.75,6.8h0c-4.71,7.03-2.83,16.56,4.2,21.27l.55,.37,32.4,21.71,.55,.37c2.62,1.76,5.59,2.6,8.52,2.6,4.94,0,9.79-2.39,12.75-6.8h0c4.71-7.03,2.83-16.56-4.2-21.27l-.55-.37-32.4-21.71-.55-.37c-2.62-1.76-5.59-2.6-8.52-2.6h0Z"/></g><g><path class="cls-5" d="M743.02,828.55c-11.8,0-22.09-3.82-31.48-11.68l-.12-.1c-2.96-2.23-5.07-5.19-5.92-8.32-.78-2.86-.4-5.51,1.07-7.45l32.81-43.58c1.5-1.99,4-3.09,7.04-3.09,3.2,0,6.56,1.2,9.46,3.39l.11,.09,.12,.07c16.94,10.4,30.97,22.95,41.71,37.31l.68,.91,34.61,7.11c3.22,.66,6,2.54,7.81,5.29,1.81,2.75,2.45,6.04,1.79,9.27-1.17,5.71-6.25,9.86-12.07,9.86-.83,0-1.67-.09-2.5-.25l-39.51-8.11c-1.5-.31-2.92-.9-4.23-1.75l-1.48-.96-1.56,.82c-14.04,7.41-26.94,11.17-38.36,11.17Z"/><path d="M746.41,757.33h0c2.51,0,5.31,1.02,7.66,2.79l.23,.17,.24,.15c16.61,10.2,30.37,22.49,40.88,36.55l1.37,1.83,2.23,.46,32.84,6.74,.65,.13c5.04,1.03,8.3,5.98,7.27,11.02-.89,4.32-4.73,7.46-9.13,7.46-.63,0-1.27-.07-1.89-.19l-.65-.13-38.2-7.84-.65-.13c-1.13-.23-2.21-.68-3.2-1.32l-2.96-1.92-3.12,1.65c-13.6,7.18-26.03,10.83-36.96,10.83s-20.73-3.59-29.55-10.98l-.12-.1-.12-.09c-4.88-3.68-6.16-9.05-4.26-11.58l32.81-43.58c1.24-1.65,3.44-1.89,4.64-1.89m0-6c-3.83,0-7.29,1.43-9.44,4.28l-32.81,43.58c-4.21,5.6-1.77,14.54,5.45,19.98,10.11,8.47,21.3,12.38,33.4,12.38s25.66-4.07,39.76-11.52c1.56,1.02,3.33,1.77,5.27,2.17l.65,.13,38.2,7.84,.65,.13c1.04,.21,2.08,.32,3.1,.32,7.13,0,13.51-5,15-12.25h0c1.7-8.3-3.64-16.4-11.94-18.1l-.65-.13-32.84-6.74c-11.31-15.12-25.63-27.69-42.54-38.07-3.54-2.67-7.58-4-11.27-4h0Z"/></g><g><path class="cls-5" d="M697.54,818.44c-5.34,0-10.36-2.08-14.14-5.86-7.8-7.8-7.8-20.49,0-28.28l48.08-48.08c3.78-3.78,8.8-5.86,14.14-5.86s10.37,2.08,14.14,5.86c7.8,7.8,7.8,20.49,0,28.29l-48.08,48.08c-3.78,3.78-8.8,5.86-14.14,5.86Z"/><path d="M745.62,733.36c4.54,0,8.81,1.77,12.02,4.98s4.98,7.48,4.98,12.02-1.77,8.81-4.98,12.02l-48.08,48.08c-3.21,3.21-7.48,4.98-12.02,4.98s-8.81-1.77-12.02-4.98c-3.21-3.21-4.98-7.48-4.98-12.02s1.77-8.81,4.98-12.02l48.08-48.08c3.21-3.21,7.48-4.98,12.02-4.98m0-6c-5.89,0-11.77,2.25-16.26,6.74l-48.08,48.08c-8.98,8.98-8.98,23.54,0,32.53h0c4.49,4.49,10.38,6.74,16.26,6.74s11.77-2.25,16.26-6.74l48.08-48.08c8.98-8.98,8.98-23.54,0-32.53-4.49-4.49-10.38-6.74-16.26-6.74h0Z"/></g><g><rect class="cls-8" x="561.5" y="1010" width="67" height="67"/><path d="M625.5,1013v61h-61v-61h61m6-6h-73v73h73v-73h0Z"/></g><g><path class="cls-8" d="M525.5,1077v-32.5c0-38.32,31.18-69.5,69.5-69.5s69.5,31.18,69.5,69.5v32.5h-139Z"/><path d="M595,978c36.67,0,66.5,29.83,66.5,66.5v29.5h-133v-29.5c0-36.67,29.83-66.5,66.5-66.5m0-6h0c-40.04,0-72.5,32.46-72.5,72.5v35.5h145v-35.5c0-40.04-32.46-72.5-72.5-72.5h0Z"/></g><g><rect class="cls-8" x="525.5" y="1061" width="139" height="16"/><path d="M661.5,1064v10h-133v-10h133m6-6h-145v22h145v-22h0Z"/></g><g><path class="cls-5" d="M427.19,324h224.73c17.18,0,31.13,13.95,31.13,31.13v224.73c0,17.18-13.95,31.14-31.14,31.14h-224.73c-17.18,0-31.13-13.95-31.13-31.13v-224.73c0-17.18,13.95-31.13,31.13-31.13Z"/><path d="M651.92,327c15.51,0,28.14,12.62,28.14,28.14v224.73c0,15.51-12.62,28.14-28.14,28.14h-224.73c-15.51,0-28.14-12.62-28.14-28.14v-224.73c0-15.51,12.62-28.14,28.14-28.14h224.73m0-6h-224.73c-18.85,0-34.14,15.28-34.14,34.14v224.73c0,18.85,15.28,34.14,34.14,34.14h224.73c18.85,0,34.14-15.28,34.14-34.14v-224.73c0-18.85-15.28-34.14-34.14-34.14h0Z"/></g><circle cx="463.84" cy="467.22" r="40"/><circle cx="463.84" cy="376.47" r="40"/><circle cx="463.84" cy="557.97" r="40"/><circle cx="613.84" cy="467.22" r="40"/><circle cx="613.84" cy="376.47" r="40"/><circle cx="613.84" cy="557.97" r="40"/><polygon class="cls-1" points="678.85 238.76 678.85 190.42 720.7 166.26 762.56 190.42 762.56 238.76 720.7 262.92 678.85 238.76"/><path class="cls-4" d="M678.56,190.34v48.5l.07,.04,41.93,24.21,.07-.04,41.93-24.21v-48.5l-.07-.04-41.93-24.21-.07,.04-41.93,24.21Zm42-23.92l41.57,24-41.57,24-41.57-24,41.57-24Zm41.72,72.25l-41.57,24v-48l41.57-24v48Zm-83.43,0v-48l41.57,24v48l-41.57-24Z"/><g><path class="cls-7" d="M539.03,536.74c-81.34,0-157.79-4.31-215.26-12.13-64.02-8.71-86.74-19.65-86.74-26.37,0-.69,.29-1.45,.87-2.27l3.32-4.73h-1.82l.31-.5h-.27c38.96-61.51,89.4-110.27,150.03-145h298.49c32.47,16.29,61.64,36.77,86.7,60.89,24.9,23.96,46.52,52.24,64.29,84.11h-.24l1.28,2.37-1.19,1.34c1.47,1.39,2.22,2.67,2.22,3.79,0,6.72-22.72,17.66-86.74,26.37-57.48,7.82-133.93,12.13-215.26,12.13Z"/><path d="M687.25,348.74c31.95,16.1,60.65,36.3,85.34,60.06,23.52,22.63,44.09,49.16,61.22,78.94h-.14l4.17,7.67-1.08,1.22c.97,.92,1.22,1.47,1.27,1.62-.28,.72-6.5,13.07-86.55,23.72-57.06,7.59-132.51,11.77-212.44,11.77s-155.37-4.18-212.44-11.77c-80.51-10.71-86.34-23.14-86.56-23.71,.03-.07,.1-.26,.32-.57l6.64-9.45h-2.19l.31-.5h-.19c17.95-27.65,38.32-52.75,60.65-74.74,25.2-24.81,53.69-46.42,84.69-64.26h296.98m1.42-6H388.67c-65.28,37.24-115.97,88.39-154.65,151h.31c-.1,.17-.21,.33-.31,.5h1.42c-.93,1.32-1.42,2.65-1.42,4,0,22.92,136.55,41.5,305,41.5s305-18.58,305-41.5c0-2.03-1.09-4.02-3.16-5.98,.78,.65,1.42,1.31,1.89,1.98h1.27c-.09-.17-.19-.33-.28-.5h.28c-37.48-69.28-90.15-118.44-155.35-151h0Z"/></g><g><path class="cls-6" d="M392.03,340.74v-56.08c0-12.64,10.28-22.92,22.92-22.92h248.15c12.64,0,22.92,10.28,22.92,22.92v56.08H392.03Z"/><path d="M663.1,264.74c10.99,0,19.92,8.94,19.92,19.92v53.08H395.03v-53.08c0-10.99,8.94-19.92,19.92-19.92h248.15m0-6h-248.15c-14.32,0-25.92,11.61-25.92,25.92v59.08h300v-59.08c0-14.32-11.61-25.92-25.92-25.92h0Z"/></g><path class="cls-2" d="M410.56,258.74h249.07c-39.5-119.81-9.34-149.44,60.43-103.5C672.06-7.76,457.06,7.24,410.56,258.74Z"/><circle class="cls-3" cx="720.56" cy="165.74" r="17.5"/><g><path class="cls-6" d="M539.63,843c-37.44,0-75.56-28.28-113.32-84.04-13.11-27.57-16.49-50.04-10.07-66.79l.95-2.48-2.34-1.25c-1.99-1.06-3.28-2.31-4.32-4.18-3.17-5.7-6.39-13.79-3.73-20,1.92-4.48,6.79-7.77,14.49-9.78,14.81-3.85,19.82-9.74,24.24-14.93,1.71-2.01,3.33-3.91,5.45-5.58l5.83-4.6-7.38-.74c-4.96-.5-9.34-.72-13.2-.91-7.94-.4-13.68-.68-16.05-3.12l-.16-.16-.18-.14c-.88-.67-2.04-2.1-2.04-6.81,0-12.83,12.63-25.61,34.65-35.07,23.15-9.95,53.99-15.43,86.85-15.43,24.12,0,47.46,3,67.51,8.66l.12,.03c2.14,.61,4.24,1.25,6.26,1.9l.07,.05,.41,.11c1.07,.35,2.11,.7,3.12,1.06,2.1,.73,4.14,1.5,6.09,2.27l.22,.09c1.92,.77,3.82,1.58,5.62,2.4l.12,.05c.86,.4,1.71,.8,2.54,1.2l.13,.06c1.75,.86,3.41,1.72,5,2.61l.29,.16c1.57,.88,3.08,1.79,4.48,2.69l.15,.1c.7,.45,1.32,.87,1.92,1.28l.3,.21c1.28,.89,2.53,1.83,3.72,2.79l.34,.27c.52,.42,1.02,.85,1.52,1.28l.09,.08c.6,.53,1.12,1.01,1.62,1.5l.24,.24c.42,.41,.82,.81,1.21,1.22l.29,.3c.9,.96,1.73,1.94,2.48,2.91l.28,.36c.3,.4,.6,.82,.88,1.23l.17,.25c.32,.48,.62,.97,.92,1.46l.18,.32c.22,.39,.44,.79,.64,1.18l.2,.39c.23,.47,.45,.94,.65,1.42l.05,.12c.18,.44,.36,.92,.52,1.4l.13,.41c.12,.39,.24,.79,.34,1.2l.09,.32c.12,.49,.22,.97,.3,1.46l.05,.34c.06,.4,.11,.79,.15,1.19l.04,.42c.04,.5,.06,1,.06,1.5,0,1.21-.08,2.3-.23,3.24-.14,.85-.34,1.59-.6,2.22-.3,.73-.69,1.31-1.19,1.79-.25,.23-.52,.44-.83,.64-.33,.21-.7,.39-1.1,.56-.64,.27-1.38,.5-2.26,.69-.86,.19-1.84,.35-3,.49-.76,.09-1.55,.17-2.39,.23-1.9,.15-4.05,.26-6.33,.37l-2.57,.13c-.74,.04-1.5,.08-2.28,.13l-8.12,.48,6.48,4.91c2.38,1.8,4.08,3.91,5.89,6.13,4.22,5.21,9.01,11.11,23.19,14.98,7.17,1.96,11.75,5.16,13.64,9.51,2.72,6.28-.38,14.52-3.46,20.33-.48,.9-1.02,1.66-1.65,2.31l-1.35,1.41,.74,1.81c6.59,16.04-8.04,47.05-19.67,69.04-38.24,55.8-76.63,84.1-114.08,84.1h0Z"/><path d="M539.3,569.99c23.85,0,46.91,2.96,66.68,8.55l.12,.03c2.21,.63,4.38,1.29,6.46,1.96l.05,.02,.08,.03c1.04,.34,2.08,.69,3.12,1.05,2.02,.71,4.02,1.45,5.95,2.22l.19,.07c1.9,.76,3.76,1.56,5.54,2.37l.08,.04c.83,.38,1.66,.77,2.49,1.17l.08,.04,.09,.04c1.65,.81,3.26,1.65,4.8,2.5l.29,.16c1.52,.85,2.98,1.73,4.33,2.6l.09,.06,.12,.08c.59,.38,1.19,.78,1.77,1.19l.15,.11,.13,.09c1.24,.87,2.44,1.76,3.56,2.67l.32,.26c.51,.42,1,.83,1.45,1.23l.13,.11c.49,.43,.99,.89,1.47,1.36l.09,.09,.14,.13c.38,.38,.76,.76,1.13,1.15l.09,.1,.18,.19c.82,.88,1.59,1.79,2.28,2.69l.25,.33c.28,.38,.55,.76,.81,1.13l.12,.17,.03,.04c.29,.43,.57,.87,.83,1.32l.05,.09,.1,.18c.2,.35,.4,.71,.58,1.06l.05,.1,.12,.25c.23,.47,.42,.87,.56,1.22v.02l.05,.09c.15,.37,.3,.78,.47,1.26,.04,.1,.07,.21,.11,.35,.11,.34,.21,.69,.3,1.03l.06,.23v.04c.11,.41,.2,.84,.27,1.24v.08l.04,.23c.05,.33,.09,.68,.13,1.01v.07c.02,.1,.03,.19,.03,.29,.04,.51,.05,.91,.05,1.28,0,1.06-.06,1.99-.19,2.76-.1,.62-.24,1.13-.41,1.54-.19,.45-.37,.65-.5,.77-.1,.09-.21,.18-.36,.27-.18,.12-.4,.23-.66,.33-.47,.2-1.06,.38-1.76,.53-.76,.17-1.65,.31-2.7,.44-.68,.08-1.43,.15-2.28,.22-1.85,.15-3.97,.25-6.23,.36-.84,.04-1.71,.08-2.6,.13-.75,.04-1.52,.08-2.3,.13l-16.22,.96,12.95,9.81c2.09,1.58,3.61,3.46,5.38,5.63,4.29,5.28,9.62,11.86,24.72,15.98,6.24,1.71,10.17,4.33,11.67,7.8,2.24,5.19-.59,12.51-3.36,17.73-.35,.65-.73,1.19-1.16,1.64l-2.7,2.82,1.49,3.61c6.1,14.84-8.13,44.9-19.47,66.35-19.13,27.89-38.4,49-57.26,62.73-18.16,13.22-36.41,19.92-54.25,19.92s-36.59-6.91-54.91-20.55c-18.44-13.72-37.21-34.58-55.79-61.99-12.66-26.71-15.98-48.31-9.88-64.22l1.9-4.95-4.68-2.49c-1.48-.79-2.35-1.62-3.11-2.99-2.84-5.11-5.77-12.27-3.6-17.36,1.53-3.59,5.74-6.29,12.49-8.05,15.72-4.09,21.29-10.63,25.77-15.89,1.68-1.98,3.13-3.68,5.02-5.17l11.65-9.19-14.77-1.49c-5.04-.51-9.45-.73-13.35-.92-6.43-.32-12.5-.62-14.04-2.21l-.31-.32-.36-.27c-.4-.3-.86-1.64-.86-4.43,0-11.57,11.97-23.35,32.83-32.32,22.78-9.79,53.21-15.18,85.67-15.18m0-6c-68.76,0-124.5,23.95-124.5,53.5,0,4.77,1.07,7.56,3.22,9.2,4.56,4.71,14.84,3.29,31.1,4.93-8.02,6.33-8.93,14.85-28.58,19.96-23.14,6.02-19.26,22.2-12.62,34.14,1.41,2.54,3.22,4.14,5.53,5.37-6.66,17.36-3.61,40.26,10.26,69.35,37.95,56.11,76.57,85.55,115.93,85.55s77.03-27.68,116.66-85.55c15.82-29.91,26.23-56.28,19.87-71.74,.8-.83,1.5-1.8,2.13-2.98,6.33-11.94,10.03-28.11-12.03-34.14-19.38-5.29-19.64-14.23-28.06-20.61,.77-.05,1.53-.09,2.26-.13,3.36-.18,6.36-.3,8.98-.51,.88-.07,1.71-.15,2.51-.24,1.19-.14,2.29-.32,3.3-.54,1.01-.23,1.93-.5,2.76-.85,.55-.23,1.07-.49,1.54-.79s.91-.63,1.3-1.01c.79-.75,1.42-1.67,1.89-2.8,.35-.84,.62-1.81,.79-2.9,.18-1.1,.26-2.33,.26-3.71,0-.58-.03-1.15-.07-1.72-.01-.16-.03-.32-.04-.48-.04-.45-.1-.91-.17-1.36-.02-.13-.04-.26-.06-.39-.1-.56-.21-1.12-.35-1.68-.03-.12-.06-.24-.1-.36-.12-.45-.25-.9-.39-1.35-.05-.15-.1-.31-.15-.46-.18-.54-.38-1.08-.6-1.62v-.04c-.24-.55-.5-1.1-.77-1.65-.07-.14-.14-.28-.22-.43-.23-.44-.46-.88-.71-1.32-.07-.11-.13-.23-.19-.34-.32-.54-.65-1.07-1.01-1.61-.06-.09-.13-.18-.19-.27-.31-.45-.63-.9-.96-1.34-.1-.13-.19-.26-.29-.39-.81-1.06-1.7-2.1-2.66-3.13-.1-.11-.21-.22-.31-.33-.42-.44-.84-.87-1.29-1.3-.09-.09-.17-.17-.26-.26-.53-.51-1.09-1.02-1.66-1.53-.05-.05-.11-.09-.16-.14-.52-.46-1.06-.91-1.61-1.36-.12-.09-.23-.19-.35-.28-1.23-.99-2.53-1.97-3.9-2.92-.1-.07-.2-.14-.3-.21-.63-.43-1.27-.86-1.92-1.29-.08-.05-.15-.1-.23-.15-1.48-.95-3.02-1.88-4.64-2.78-.1-.06-.2-.11-.3-.17-1.63-.91-3.33-1.8-5.09-2.66-.06-.03-.12-.06-.19-.09-.86-.42-1.72-.83-2.61-1.23-.04-.02-.08-.04-.12-.06-1.86-.85-3.79-1.67-5.77-2.47-.07-.03-.13-.05-.2-.08-2-.8-4.06-1.57-6.18-2.31h-.03c-1.07-.38-2.16-.75-3.26-1.11h0c-2.2-.72-4.46-1.41-6.77-2.06-.04-.01-.08-.02-.12-.03-19.62-5.54-43.09-8.77-68.33-8.77h0Z"/></g><g><path class="cls-8" d="M486.5,967c-23.43,0-42.5-19.07-42.5-42.5s19.07-42.5,42.5-42.5h23c23.43,0,42.5,19.07,42.5,42.5s-19.07,42.5-42.5,42.5h-23Z"/><path d="M509.5,885c21.78,0,39.5,17.72,39.5,39.5s-17.72,39.5-39.5,39.5h-23c-21.78,0-39.5-17.72-39.5-39.5s17.72-39.5,39.5-39.5h23m0-6h-23c-25.13,0-45.5,20.37-45.5,45.5s20.37,45.5,45.5,45.5h23c25.13,0,45.5-20.37,45.5-45.5s-20.37-45.5-45.5-45.5h0Z"/></g><g><path class="cls-8" d="M568,1010c-14.89,0-27-12.11-27-27s12.11-27,27-27h54c14.89,0,27,12.11,27,27s-12.11,27-27,27h-54Z"/><path d="M622,959c13.23,0,24,10.77,24,24s-10.77,24-24,24h-54c-13.23,0-24-10.77-24-24s10.77-24,24-24h54m0-6h-54c-16.57,0-30,13.43-30,30s13.43,30,30,30h54c16.57,0,30-13.43,30-30s-13.43-30-30-30h0Z"/></g><g><path class="cls-8" d="M496.68,1050c-13.75,0-25.95-2.85-34.35-8.01-18.87-11.6-34.07-46.69-34.07-68.01,0-45.76,31.18-82.98,69.5-82.98s69.5,37.22,69.5,82.98c0,22.13-15.67,57.83-33.95,67.94-9.15,5.06-22.84,8.08-36.62,8.08Z"/><path d="M497.76,894c36.67,0,66.5,35.88,66.5,79.98,0,10.54-3.71,24.52-9.92,37.39-6.47,13.42-14.67,23.6-22.49,27.92-8.73,4.83-21.87,7.71-35.17,7.71s-24.95-2.76-32.78-7.57c-8.01-4.92-16.29-15.32-22.74-28.53-6.2-12.72-9.91-26.52-9.91-36.92,0-44.1,29.83-79.98,66.5-79.98m0-6h0c-40.04,0-72.5,38.49-72.5,85.98,0,23.25,16.2,58.7,35.5,70.56,9.4,5.77,22.61,8.46,35.92,8.46,14.03,0,28.17-2.98,38.08-8.46,19.3-10.67,35.5-47.31,35.5-70.56,0-47.49-32.46-85.98-72.5-85.98h0Z"/></g></svg>