<?xml version="1.0" encoding="UTF-8"?><svg id="Front" xmlns="http://www.w3.org/2000/svg" viewBox="0 0 1080 1080"><defs><style>.cls-1,.cls-2,.cls-3,.cls-4,.cls-5,.cls-6{stroke:#000;stroke-miterlimit:10;}.cls-1,.cls-2,.cls-3,.cls-4,.cls-6{stroke-width:6px;}.cls-1,.cls-7,.cls-5{fill:#e6e6e6;}.cls-8,.cls-4{fill:#9e005d;}.cls-2,.cls-9{fill:#6c5cc4;}.cls-3,.cls-10{fill:#fbb03b;}.cls-11{fill:#736357;}.cls-5{stroke-width:3px;}.cls-6{fill:#1b1464;}</style></defs><g><g><path class="cls-11" d="M479,988.43c-19.07,0-43.12-7.52-55.94-17.49-15.84-12.32-24.38-44.87-20.27-62.88,3.53-15.44,12.31-29.32,24.72-39.09,12.23-9.63,27.49-14.94,42.97-14.94,5.2,0,10.43,.59,15.55,1.76,18.1,4.14,33.5,15.07,43.37,30.79,9.87,15.72,13.03,34.35,8.89,52.44-3.96,17.34-25.23,42.56-45.69,47.86-3.94,1.02-8.52,1.54-13.61,1.54h0Z"/><path d="M470.48,857.03c4.98,0,9.98,.57,14.88,1.69,35.75,8.17,58.18,43.9,50.01,79.65-1.89,8.28-7.96,18.53-16.22,27.42-8.66,9.32-18.61,15.95-27.3,18.2-3.7,.96-8.02,1.44-12.86,1.44-18.48,0-41.74-7.25-54.09-16.86-6.78-5.27-12.81-15.37-16.56-27.7-3.56-11.73-4.54-23.75-2.63-32.14,3.42-14.98,11.6-27.92,23.65-37.41,11.71-9.22,26.31-14.3,41.11-14.29m0-6c-33.06,0-62.93,22.76-70.61,56.36-4.37,19.11,4.54,52.84,21.35,65.91,13.36,10.39,37.76,18.12,57.78,18.12,5.17,0,10.04-.52,14.36-1.63,21.04-5.45,43.5-30.98,47.86-50.09h0c8.92-39.03-15.49-77.91-54.52-86.83h0c-5.43-1.24-10.87-1.84-16.22-1.84h0Z"/></g><g><path class="cls-11" d="M488.29,922.79c-3.56,0-7.13-.41-10.63-1.21l-12.67-2.9c-12.37-2.83-22.9-10.3-29.64-21.05-6.75-10.74-8.91-23.47-6.08-35.84,4.97-21.74,23.99-36.93,46.26-36.93,3.55,0,7.13,.41,10.63,1.21l12.67,2.9c12.37,2.83,22.9,10.3,29.64,21.05s8.91,23.47,6.08,35.84c-4.97,21.74-23.99,36.93-46.25,36.93h0Z"/><path d="M475.53,827.87c3.33,0,6.68,.38,9.96,1.13l12.67,2.9c11.59,2.65,21.45,9.65,27.77,19.72,6.32,10.07,8.34,21.99,5.7,33.58-2.29,10.03-7.76,18.68-15.82,25.03-7.83,6.17-17.61,9.57-27.51,9.57-3.33,0-6.68-.38-9.96-1.13l-12.67-2.9c-11.59-2.65-21.45-9.65-27.77-19.72s-8.34-21.99-5.7-33.58c2.29-10.03,7.76-18.68,15.82-25.03,7.83-6.17,17.61-9.57,27.51-9.57m0-6c-23.03,0-43.84,15.86-49.19,39.26-6.21,27.19,10.79,54.27,37.98,60.48l12.67,2.9c3.79,.87,7.57,1.28,11.3,1.28,23.03,0,43.84-15.86,49.19-39.26h0c6.21-27.19-10.79-54.27-37.98-60.48l-12.67-2.9c-3.79-.87-7.57-1.28-11.3-1.28h0Z"/></g></g><path class="cls-4" d="M423.7,740.45c74.75,110.54,152.1,117.54,232.59,0,22.96-43.4,34.51-79.36,0-85.31,0-50.85-232.59-50.85-232.59,0-17.75,18.29-18.63,46.22,0,85.31Z"/><g><path class="cls-9" d="M624.32,959.84c-17.75,0-34.07-15.29-38.81-36.36l-27.06-120.26,71.22-16.03,27.06,120.26c2.65,11.76,1.36,23.64-3.63,33.45-4.89,9.62-12.76,16.09-22.16,18.2-2.17,.49-4.4,.74-6.62,.74Z"/><path d="M627.4,790.77l9.87,43.87,15.82,70.3,.71,3.16c2.49,11.08,1.29,22.24-3.37,31.43-4.48,8.81-11.63,14.72-20.15,16.63-1.95,.44-3.96,.66-5.96,.66-16.36,0-31.45-14.31-35.88-34.02l-.71-3.16-15.82-70.3-9.87-43.87,65.37-14.71m4.54-7.17l-77.07,17.34,11.19,49.73,15.82,70.3,.71,3.16c5.13,22.79,22.94,38.7,41.74,38.7,2.42,0,4.85-.26,7.28-.81h0c21.28-4.79,33.85-29.52,28.06-55.24l-.71-3.16-15.82-70.3-11.19-49.73h0Z"/></g><g><path class="cls-9" d="M482.47,908.45c-2.6,0-5.22-.3-7.78-.88l-3.34-.76c-18.7-4.27-30.44-22.96-26.16-41.67l19.65-85.99,71.17,16.26-19.65,86c-3.64,15.92-17.57,27.04-33.88,27.04h0Z"/><path d="M467.09,782.74l65.32,14.93-7.08,30.99-11.9,52.08c-1.64,7.16-5.55,13.34-11.3,17.88-5.6,4.41-12.58,6.83-19.65,6.83-2.38,0-4.77-.27-7.12-.81l-3.34-.76c-17.09-3.91-27.81-20.98-23.91-38.07l11.9-52.08,7.08-30.99m-4.51-7.19l-8.42,36.84-11.9,52.08c-4.65,20.35,8.07,40.61,28.42,45.26l3.34,.76c2.83,.65,5.67,.96,8.45,.96,17.23,0,32.8-11.86,36.8-29.38l11.9-52.08,8.42-36.84-77.01-17.6h0Z"/></g><rect class="cls-2" x="459.05" y="612" width="174" height="224" rx="41.43" ry="41.43"/><g><path class="cls-9" d="M725.77,744.98c-30.55-32.98-67.25-49.69-109.15-49.69-6.22,0-12.65,.37-19.15,1.1l20.68-54.69c5.56-.52,11.07-.78,16.43-.78,42.91,0,79.53,16.15,111.88,49.35l-20.69,54.71Z"/><path d="M634.59,643.92c20.59,0,40.13,3.96,58.07,11.78,17.85,7.78,34.77,19.65,50.33,35.3l-18.32,48.44c-30.47-31.3-66.77-47.16-108.03-47.16-4.78,0-9.68,.21-14.64,.64l18.31-48.4c4.83-.4,9.63-.6,14.29-.6m0-6c-6.13,0-12.32,.33-18.58,.98l-23.1,61.09c8.05-1.12,15.97-1.69,23.72-1.69,41.44,0,78.48,16.32,110.22,52.35l23.1-61.09c-34.56-36.09-73.37-51.63-115.36-51.63h0Z"/></g><g><g><path class="cls-7" d="M854.81,764.55c-3.09,0-6.05-1.15-8.33-3.24l-29.73-27.26c-2.43-2.23-3.84-5.26-3.98-8.56-.14-3.29,1.01-6.44,3.23-8.87,2.33-2.54,5.64-4,9.09-4,3.09,0,6.05,1.15,8.33,3.24l29.72,27.26c2.43,2.23,3.84,5.27,3.99,8.56,.14,3.29-1.01,6.44-3.23,8.87-2.33,2.54-5.64,4-9.09,4Z"/><path d="M825.1,709.62v6c2.34,0,4.58,.87,6.3,2.45l.49,.45,28.74,26.36,.49,.45c3.79,3.48,4.05,9.39,.57,13.19-1.79,1.95-4.23,3.02-6.88,3.02-2.34,0-4.58-.87-6.3-2.45l-.49-.45-28.74-26.36-.49-.45c-3.79-3.48-4.05-9.39-.57-13.19,1.79-1.95,4.23-3.02,6.88-3.02v-6m0,0c-4.15,0-8.28,1.67-11.3,4.97-5.72,6.24-5.3,15.94,.94,21.66l.49,.45,28.74,26.36,.49,.45c2.94,2.7,6.66,4.03,10.36,4.03,4.15,0,8.28-1.67,11.3-4.97h0c5.72-6.24,5.3-15.94-.94-21.66l-.49-.45-28.74-26.36-.49-.45c-2.94-2.7-6.66-4.03-10.36-4.03h0Z"/></g><g><path class="cls-7" d="M862.5,742.56c-.69,0-1.38-.06-2.06-.17l-39.78-6.69c-6.71-1.13-11.24-7.5-10.12-14.21,1-5.96,6.11-10.29,12.14-10.29,.69,0,1.38,.06,2.06,.17l39.78,6.69c6.71,1.13,11.24,7.5,10.12,14.21-1,5.96-6.11,10.29-12.14,10.29Z"/><path d="M822.69,714.2h0c.52,0,1.05,.04,1.57,.13l.66,.11,38.46,6.47,.66,.11c2.46,.41,4.61,1.76,6.06,3.79s2.02,4.5,1.6,6.96c-.76,4.51-4.62,7.79-9.19,7.79-.52,0-1.05-.04-1.56-.13l-.66-.11-38.46-6.46-.66-.11c-2.46-.41-4.61-1.76-6.05-3.79-1.45-2.03-2.02-4.5-1.6-6.96,.76-4.51,4.62-7.79,9.19-7.79m0-6c-7.35,0-13.84,5.3-15.1,12.79-1.4,8.35,4.23,16.26,12.58,17.66l.66,.11,38.46,6.47,.66,.11c.86,.14,1.72,.21,2.56,.21,7.35,0,13.84-5.3,15.1-12.79,1.4-8.35-4.23-16.26-12.58-17.66l-.66-.11-38.46-6.47-.66-.11c-.86-.14-1.72-.21-2.56-.21h0Z"/></g><g><path class="cls-7" d="M770.08,767.07c-4.54,0-9.24-.67-13.96-2l-.15-.04c-7.19-1.62-12.09-7.18-10.91-12.38l11.99-53.22c.92-4.09,5.55-6.95,11.25-6.95,1.3,0,2.61,.15,3.92,.44l.14,.03,.14,.02c19.71,2.51,37.67,8.18,53.37,16.86l1,.55,34.47-7.76c.9-.2,1.81-.3,2.72-.3,5.71,0,10.76,4.05,12.02,9.63,1.49,6.63-2.69,13.25-9.33,14.74l-39.35,8.85c-.87,.2-1.77,.29-2.66,.29-.63,0-1.28-.05-1.91-.15l-1.74-.27-1.08,1.39c-15.83,20.36-32.16,30.26-49.9,30.26Z"/><path d="M768.29,695.48h0c1.07,0,2.17,.12,3.26,.37l.28,.06,.28,.04c19.34,2.46,36.93,8.01,52.29,16.51l2,1.1,2.22-.5,32.71-7.36,.65-.15c.68-.15,1.38-.23,2.06-.23,4.32,0,8.14,3.06,9.09,7.29,.55,2.43,.11,4.93-1.22,7.04-1.33,2.11-3.41,3.57-5.84,4.12l-.65,.15-38.05,8.56-.65,.15c-.66,.15-1.33,.22-2.01,.22-.48,0-.97-.04-1.46-.11l-3.49-.54-2.16,2.78c-15.23,19.58-30.78,29.1-47.54,29.1-4.26,0-8.69-.64-13.15-1.89l-.15-.04-.15-.03c-2.93-.66-5.54-2.17-7.17-4.13-.74-.9-1.92-2.7-1.48-4.67l11.99-53.22c.6-2.67,4.1-4.61,8.33-4.61m0-6c-6.98,0-12.91,3.66-14.18,9.29l-11.99,53.22c-1.54,6.83,4.36,13.98,13.18,15.97,5.07,1.42,9.99,2.11,14.77,2.11,19.46,0,36.71-11.4,52.27-31.42,.78,.12,1.57,.18,2.37,.18,1.1,0,2.21-.12,3.32-.37l.65-.15,38.05-8.56,.65-.15c8.26-1.86,13.45-10.06,11.59-18.33-1.6-7.13-7.93-11.97-14.95-11.97-1.11,0-2.25,.12-3.38,.38l-.65,.15-32.71,7.36c-16.52-9.13-34.75-14.7-54.44-17.21-1.55-.35-3.09-.52-4.58-.52h0Z"/></g><g><path class="cls-7" d="M735.77,774.04c-2.41,0-4.79-.44-7.07-1.3-5-1.89-8.96-5.61-11.16-10.48-2.2-4.87-2.37-10.3-.48-15.3l24.05-63.6c2.92-7.74,10.44-12.93,18.71-12.93,2.41,0,4.79,.44,7.07,1.3,10.31,3.9,15.53,15.47,11.63,25.78l-24.05,63.6c-2.92,7.74-10.44,12.93-18.71,12.93Z"/><path d="M759.83,673.42c2.05,0,4.07,.37,6.01,1.11,8.77,3.32,13.2,13.15,9.89,21.91l-24.05,63.6c-2.49,6.58-8.88,10.99-15.9,10.99-2.05,0-4.07-.37-6.01-1.11-4.25-1.61-7.61-4.77-9.48-8.91s-2.01-8.76-.41-13l24.05-63.6c2.49-6.58,8.88-10.99,15.9-10.99m0-6c-9.29,0-18.04,5.67-21.52,14.87l-24.05,63.6c-4.49,11.88,1.5,25.16,13.38,29.65,2.68,1.01,5.43,1.49,8.13,1.49,9.29,0,18.04-5.67,21.52-14.87l24.05-63.6c4.49-11.88-1.5-25.16-13.38-29.65-2.68-1.01-5.43-1.49-8.13-1.49h0Z"/></g><g><path class="cls-7" d="M821.05,789.31c-3.01,0-5.91-1.1-8.17-3.1l-30.2-26.73c-5.09-4.51-5.57-12.32-1.06-17.41,2.34-2.64,5.71-4.16,9.24-4.16,3.01,0,5.91,1.1,8.17,3.1l30.2,26.73c5.09,4.51,5.57,12.32,1.06,17.41-2.34,2.64-5.71,4.16-9.24,4.16Z"/><path d="M790.86,740.91c2.28,0,4.47,.83,6.18,2.35l.5,.44,29.21,25.85,.5,.44c1.87,1.65,2.98,3.93,3.13,6.42,.15,2.49-.67,4.89-2.33,6.75-1.77,2-4.32,3.15-6.99,3.15-2.28,0-4.47-.83-6.18-2.34l-.5-.44-29.21-25.85-.5-.44c-3.85-3.41-4.21-9.32-.8-13.17,1.77-2,4.32-3.15,7-3.15m0-6c-4.24,0-8.46,1.75-11.49,5.17h0c-5.61,6.34-5.02,16.03,1.32,21.64l.5,.44,29.21,25.85,.5,.44c2.92,2.58,6.54,3.85,10.16,3.85,4.24,0,8.46-1.75,11.49-5.17h0c5.61-6.34,5.02-16.03-1.32-21.64l-.5-.44-29.21-25.85-.5-.44c-2.92-2.58-6.54-3.85-10.16-3.85h0Z"/></g></g><g><path class="cls-9" d="M360.8,690.27c32.35-33.2,68.97-49.35,111.88-49.35,5.35,0,10.87,.26,16.43,.78l20.68,54.69c-6.51-.73-12.93-1.1-19.15-1.1-41.9,0-78.6,16.71-109.15,49.69l-20.69-54.71Z"/><path d="M472.69,643.92c4.66,0,9.45,.2,14.28,.6l18.31,48.4c-4.96-.42-9.86-.64-14.64-.64-41.26,0-77.56,15.86-108.03,47.16l-18.32-48.44c15.56-15.66,32.47-27.52,50.33-35.3,17.94-7.82,37.48-11.78,58.07-11.78h0m0-6c-41.99,0-80.8,15.54-115.36,51.63l23.1,61.09c31.74-36.03,68.78-52.35,110.22-52.35,7.75,0,15.67,.57,23.72,1.69l-23.1-61.09c-6.26-.65-12.45-.98-18.58-.98h0Z"/></g><g><g><path class="cls-7" d="M252.46,764.55c-3.45,0-6.76-1.46-9.09-4-2.23-2.43-3.38-5.58-3.23-8.87,.14-3.29,1.56-6.33,3.99-8.56l29.72-27.26c2.28-2.09,5.24-3.25,8.33-3.25,3.45,0,6.76,1.46,9.09,4,2.23,2.43,3.37,5.58,3.23,8.87-.14,3.29-1.56,6.33-3.99,8.56l-29.72,27.26c-2.28,2.09-5.24,3.25-8.33,3.25h0Z"/><path d="M282.17,715.62c2.65,0,5.09,1.07,6.88,3.02,3.48,3.79,3.22,9.71-.57,13.19l-.49,.45-28.74,26.36-.49,.45c-1.73,1.58-3.97,2.45-6.3,2.45-2.65,0-5.09-1.07-6.88-3.02-3.48-3.79-3.22-9.71,.57-13.19l.49-.45,28.74-26.36,.49-.45c1.73-1.58,3.97-2.45,6.3-2.45m0-6c-3.7,0-7.42,1.33-10.36,4.03l-.49,.45-28.74,26.36-.49,.45c-6.24,5.72-6.66,15.42-.94,21.66h0c3.02,3.3,7.16,4.97,11.3,4.97,3.7,0,7.42-1.33,10.36-4.03l.49-.45,28.74-26.36,.49-.45c6.24-5.72,6.66-15.42,.94-21.66-3.02-3.3-7.16-4.97-11.3-4.97h0Z"/></g><g><path class="cls-7" d="M244.77,742.56c-6.03,0-11.14-4.33-12.14-10.29-1.13-6.71,3.41-13.08,10.12-14.21l39.77-6.69c.68-.12,1.38-.17,2.06-.17,6.03,0,11.14,4.33,12.14,10.29,1.13,6.71-3.41,13.08-10.12,14.21l-39.77,6.69c-.68,.12-1.38,.17-2.06,.17h0Z"/><path d="M284.58,714.2c4.56,0,8.43,3.28,9.19,7.79,.41,2.46-.16,4.93-1.6,6.96-1.45,2.03-3.6,3.38-6.06,3.79l-.65,.11-38.46,6.47-.65,.11c-.52,.09-1.05,.13-1.57,.13-4.56,0-8.43-3.28-9.19-7.79-.41-2.46,.16-4.93,1.6-6.96s3.6-3.38,6.05-3.79l.66-.11,38.46-6.47,.66-.11c.52-.09,1.05-.13,1.57-.13m0-6c-.84,0-1.7,.07-2.56,.21l-.66,.11-38.46,6.47-.66,.11c-8.35,1.4-13.98,9.31-12.58,17.66,1.26,7.49,7.75,12.79,15.1,12.79,.84,0,1.7-.07,2.56-.21l.66-.11,38.46-6.47,.66-.11c8.35-1.4,13.98-9.31,12.58-17.66-1.26-7.49-7.75-12.79-15.1-12.79h0Z"/></g><g><path class="cls-7" d="M337.19,767.07c-17.75,0-34.07-9.9-49.9-30.26l-1.08-1.39-1.74,.27c-.64,.1-1.28,.15-1.91,.15-.9,0-1.79-.1-2.66-.29l-39.35-8.85c-6.64-1.49-10.82-8.11-9.33-14.74,1.26-5.58,6.31-9.63,12.02-9.63,.91,0,1.83,.1,2.72,.3l34.47,7.76,1-.55c15.7-8.68,33.65-14.35,53.37-16.86l.14-.02,.14-.03c1.3-.29,2.62-.44,3.92-.44,5.7,0,10.33,2.86,11.25,6.95l11.99,53.22c1.17,5.21-3.72,10.76-10.91,12.38l-.15,.04c-4.73,1.33-9.43,2-13.96,2h0Z"/><path d="M338.98,695.48c4.22,0,7.72,1.94,8.33,4.61l11.99,53.22c.44,1.96-.74,3.77-1.48,4.67-1.62,1.97-4.24,3.47-7.17,4.13l-.15,.03-.15,.04c-4.46,1.25-8.89,1.89-13.15,1.89-16.76,0-32.31-9.52-47.54-29.1l-2.16-2.78-3.49,.54c-.49,.07-.98,.11-1.46,.11-.68,0-1.35-.07-2.01-.22l-.65-.15-38.05-8.56-.65-.15c-2.43-.55-4.51-2.01-5.84-4.12-1.33-2.11-1.77-4.61-1.22-7.04,.95-4.22,4.77-7.29,9.09-7.29,.69,0,1.38,.08,2.06,.23l.65,.15,32.71,7.36,2.22,.5,2-1.1c15.36-8.49,32.96-14.04,52.29-16.51l.28-.04,.28-.06c1.09-.25,2.18-.37,3.26-.37m0-6c-1.49,0-3.03,.17-4.58,.52-19.69,2.51-37.91,8.07-54.44,17.21l-32.71-7.36-.65-.15c-1.13-.25-2.27-.38-3.38-.38-7.01,0-13.34,4.84-14.95,11.97-1.86,8.26,3.33,16.47,11.59,18.33l.65,.15,38.05,8.56,.65,.15c1.11,.25,2.23,.37,3.32,.37,.8,0,1.59-.06,2.37-.18,15.56,20.02,32.81,31.42,52.27,31.42,4.79,0,9.71-.69,14.77-2.11,8.82-1.99,14.72-9.14,13.18-15.97l-11.99-53.22c-1.27-5.63-7.2-9.29-14.18-9.29h0Z"/></g><g><path class="cls-7" d="M371.5,774.04c-8.27,0-15.79-5.2-18.71-12.93l-24.05-63.6c-3.9-10.32,1.32-21.88,11.63-25.78,2.28-.86,4.66-1.3,7.07-1.3,8.27,0,15.79,5.2,18.71,12.93l24.05,63.6c1.89,5,1.72,10.43-.48,15.3-2.2,4.87-6.16,8.59-11.16,10.48-2.28,.86-4.66,1.3-7.07,1.3h0Z"/><path d="M347.44,673.42c7.03,0,13.42,4.42,15.9,10.99l24.05,63.6c1.61,4.25,1.46,8.87-.41,13s-5.23,7.3-9.48,8.91c-1.94,.73-3.96,1.11-6.01,1.11-7.03,0-13.42-4.42-15.9-10.99l-24.05-63.6c-3.32-8.77,1.12-18.6,9.89-21.91,1.94-.73,3.96-1.11,6.01-1.11m0-6c-2.7,0-5.45,.48-8.13,1.49-11.88,4.49-17.87,17.77-13.38,29.65l24.05,63.6c3.48,9.2,12.23,14.87,21.52,14.87,2.7,0,5.45-.48,8.13-1.49,11.88-4.49,17.87-17.77,13.38-29.65l-24.05-63.6c-3.48-9.2-12.23-14.87-21.52-14.87h0Z"/></g><g><path class="cls-7" d="M286.22,789.31c-3.53,0-6.9-1.52-9.24-4.16-4.51-5.09-4.03-12.9,1.06-17.41l30.2-26.73c2.26-2,5.16-3.1,8.17-3.1,3.53,0,6.9,1.52,9.24,4.16,4.51,5.09,4.03,12.9-1.06,17.41l-30.21,26.73c-2.25,2-5.16,3.1-8.16,3.1h0Z"/><path d="M316.41,740.91c2.67,0,5.22,1.15,6.99,3.15,1.65,1.87,2.48,4.27,2.33,6.75s-1.26,4.77-3.13,6.42l-.5,.44-29.21,25.85-.5,.44c-1.71,1.51-3.9,2.34-6.18,2.34-2.67,0-5.22-1.15-6.99-3.15-1.65-1.87-2.48-4.27-2.33-6.75,.15-2.49,1.26-4.77,3.13-6.42l.5-.44,29.2-25.85,.5-.44c1.71-1.51,3.9-2.34,6.18-2.34m0-6c-3.61,0-7.24,1.27-10.16,3.85l-.5,.44-29.21,25.85-.5,.44c-6.34,5.61-6.93,15.3-1.32,21.64h0c3.03,3.42,7.25,5.17,11.49,5.17,3.61,0,7.24-1.27,10.16-3.85l.5-.44,29.21-25.85,.5-.44c6.34-5.61,6.93-15.3,1.32-21.64h0c-3.03-3.42-7.25-5.17-11.49-5.17h0Z"/></g></g><g><g><path class="cls-11" d="M611.08,966.61c-19.68,0-37.1-13.96-41.42-33.18-5.14-22.86,9.27-45.65,32.13-50.79l22.44-5.05c3.09-.69,6.24-1.05,9.37-1.05,19.67,0,37.1,13.95,41.42,33.18,2.49,11.08,.52,22.46-5.55,32.05-6.07,9.59-15.51,16.25-26.59,18.74l-22.44,5.05c-3.09,.69-6.24,1.05-9.37,1.05h0Z"/><path d="M633.6,879.54c8.82,0,17.51,3.03,24.47,8.54,7.16,5.66,12.01,13.37,14.02,22.3,4.78,21.25-8.62,42.43-29.86,47.21l-22.44,5.05c-2.87,.65-5.8,.97-8.71,.97-8.82,0-17.51-3.03-24.47-8.54-7.16-5.66-12.01-13.37-14.02-22.3-2.32-10.29-.49-20.87,5.16-29.79,5.64-8.92,14.42-15.1,24.71-17.42l22.44-5.05c2.87-.65,5.8-.97,8.71-.97m0-6c-3.31,0-6.67,.36-10.03,1.12l-22.44,5.05c-24.52,5.52-39.92,29.86-34.4,54.38,4.76,21.15,23.54,35.52,44.35,35.52,3.31,0,6.67-.36,10.03-1.12l22.44-5.05c24.52-5.52,39.92-29.86,34.4-54.38-4.76-21.15-23.54-35.52-44.35-35.52h0Z"/></g><g><path class="cls-11" d="M632.74,1055.86c-6.33,0-12.24-.75-17.11-2.17-20.06-5.85-43.18-37.24-48.04-58.83-4.89-21.72-2.36-43.71,7.1-61.94,9.38-18.05,24.47-30.23,42.48-34.28,4.24-.96,8.6-1.44,12.94-1.44,33.59,0,64.33,28.24,73.08,67.14,4.68,20.8-2.44,58.37-18.31,73.83-10.86,10.58-31.82,17.68-52.15,17.68h0Z"/><path d="M630.12,900.21c32.2,0,61.71,27.25,70.16,64.8,2.28,10.15,1.7,24.43-1.56,38.2-3.38,14.3-9.19,26.26-15.92,32.82-10.17,9.91-30.76,16.83-50.06,16.83-6.05,0-11.67-.71-16.27-2.05-8.58-2.5-18.81-10.63-28.07-22.3-8.88-11.2-15.57-24.02-17.88-34.3-4.73-21.03-2.3-42.3,6.84-59.89,8.96-17.25,23.34-28.88,40.48-32.74,4.03-.91,8.16-1.37,12.28-1.37m0-6c-4.52,0-9.06,.49-13.6,1.51h0c-39.06,8.79-62.28,53.47-51.86,99.8,5.1,22.68,28.95,54.87,50.13,61.05,5.3,1.55,11.45,2.29,17.95,2.29,19.48,0,42.08-6.68,54.25-18.54,16.23-15.81,24.25-53.95,19.14-76.64-9.21-40.95-41.63-69.48-76.01-69.48h0Z"/></g><g><path class="cls-11" d="M630.26,1056.18c-5.43,0-10.32-.5-14.55-1.48-19.69-4.58-41.7-31.33-45.91-50.02-8.72-38.75,14.6-77.12,51.99-85.54,4.87-1.1,9.86-1.65,14.81-1.65,32.48,0,61.42,23.83,68.81,56.67,4.05,18.01-4.03,50.99-20.15,64.95-11.61,10.05-34.23,17.07-55,17.07h0Z"/><path d="M636.61,920.48c14.94,0,29.73,5.33,41.66,15.02,12.13,9.85,20.73,23.82,24.22,39.32,1.94,8.64,.98,20.96-2.58,32.96-3.72,12.55-9.77,23.14-16.61,29.06-10.94,9.47-33.24,16.34-53.04,16.34-5.2,0-9.86-.47-13.87-1.4-8.42-1.96-18.3-8.77-27.11-18.68-8.39-9.45-14.58-20.32-16.55-29.08-4.06-18.03-1.1-36.49,8.34-51.99,9.39-15.43,24.09-26.07,41.38-29.96,4.66-1.05,9.42-1.58,14.16-1.58m0-6c-5.11,0-10.29,.56-15.47,1.73h0c-39.06,8.79-63.36,48.69-54.26,89.12h0c4.45,19.8,27.28,47.44,48.15,52.29,4.53,1.05,9.72,1.56,15.23,1.56,19.88,0,44-6.58,56.97-17.8,16.56-14.33,25.57-48.08,21.11-67.87h0c-7.89-35.07-38.31-59.02-71.73-59.02h0Z"/></g><g><path class="cls-11" d="M627.4,1056.56c-4.29,0-8.2-.3-11.63-.9-19.33-3.37-40.28-25.72-43.86-41.65-7.46-33.15,16.89-66.96,54.28-75.37,5.66-1.27,11.43-1.92,17.14-1.92,31.6,0,57.99,19.24,64.19,46.78,3.45,15.34-5.54,43.96-21.89,56.49-12.53,9.6-37.01,16.57-58.22,16.57h0Z"/><path d="M643.33,939.73c30.18,0,55.38,18.27,61.26,44.43,1.62,7.18,.31,17.61-3.5,27.91-4.03,10.9-10.33,20.21-17.28,25.54-11.87,9.09-36.11,15.95-56.4,15.95-4.12,0-7.85-.29-11.11-.86-17.95-3.13-38.14-24.61-41.45-39.35-7.1-31.53,16.24-63.73,52.01-71.79,5.45-1.23,10.99-1.85,16.48-1.85m0-6c-5.84,0-11.81,.65-17.8,1.99h0c-39.06,8.79-64.38,44.14-56.55,78.96h0c3.84,17.05,25.69,40.35,46.28,43.94,3.66,.64,7.77,.94,12.14,.94,20.23,0,46.18-6.56,60.05-17.19,16.87-12.93,26.83-42.48,22.99-59.53-6.63-29.47-34.9-49.12-67.12-49.12h0Z"/></g></g><g><g><path class="cls-8" d="M539.4,647.17c-50.07-41.25-86.04-41.26-101.51-41.26-1.42,0-2.77,.01-4.06,.02-1.15,0-2.25,.02-3.3,.02-10.94,0-12.73-1.19-12.73-8.46,0-12.83,12.63-25.61,34.65-35.07,23.15-9.95,53.99-15.43,86.85-15.43s63.7,5.48,86.85,15.43c22.02,9.46,34.65,22.25,34.65,35.07,0,9.03-3.13,9.5-17.91,10.23-20.33,1.01-54.17,2.69-103.49,39.44Z"/><path d="M539.3,549.99c32.46,0,62.88,5.39,85.67,15.18,20.87,8.97,32.83,20.75,32.83,32.32,0,4.66-1.13,5.21-1.8,5.54-2.33,1.15-7.4,1.4-13.26,1.69-19.07,.95-54.15,2.69-103.25,38.64-49.96-40.46-86-40.46-101.6-40.46-1.43,0-2.79,.01-4.08,.02-1.14,0-2.24,.02-3.28,.02-2.32,0-7.16,0-8.75-.94-.91-.54-.98-3.59-.98-4.52,0-11.57,11.97-23.35,32.83-32.32,22.78-9.79,53.21-15.18,85.67-15.18m0-6c-68.76,0-124.5,23.95-124.5,53.5,0,10.54,5.22,11.46,15.73,11.46,2.22,0,4.67-.04,7.36-.04,20.28,0,53.99,2.32,101.41,42.08,84.5-64,124.5-23.95,124.5-53.5s-55.74-53.5-124.5-53.5h0Z"/></g><ellipse cx="539.3" cy="657.49" rx="70.5" ry="40.5"/><path class="cls-4" d="M465.77,698.86c27.98,23.56,50.19,33.13,78.37,33.13,28.18,0,51.02-21.8,51.02-48.7s-31.05-31.01-56.86-41.8c-38.4-16.06-78.17-35.81-84.11-33-13.37,6.32-10.52,17.07-33.66,23.09-23.14,6.02-19.26,22.2-12.62,34.14,6.67,12,22.09,3.01,57.86,33.13Z"/><path class="cls-4" d="M531.37,635.49c-27.32-23.11,10.44-56.47-49.13-85.45-39.79,8.93-66.96,26.83-66.96,47.45,0,27.96,35.81-6.39,111.25,44.05l5.01,3.18,6.24-2.82-6.41-6.42Z"/><g><path class="cls-8" d="M527.79,651.35c.99-.91,2.59-2.21,5.18-3.96,28.31-11.55,29.01-27.87,29.69-43.65,.72-16.78,1.46-34.12,34.56-50.54,38.67,8.88,63.59,26.21,63.59,44.29,0,9.03-3.13,9.5-17.91,10.23-20.57,1.02-54.99,2.74-105.28,40.78-2.25,1.34-6.68,2.59-9.83,2.84Z"/><path d="M597.59,556.37c18.2,4.28,33.46,10.46,44.24,17.94,7.29,5.06,15.98,13.19,15.98,23.18,0,4.66-1.13,5.21-1.8,5.54-2.33,1.15-7.4,1.4-13.26,1.69-16.26,.81-44.17,2.19-82.48,24.88,4.64-8.4,5.03-17.36,5.39-25.74,.71-16.47,1.37-32.04,31.94-47.5m-.75-6.33c-68.08,33.12-9.04,71.95-65.3,94.68-10.85,7.29-9.4,9.67-4.81,9.67,3.76,0,9.63-1.6,12.56-3.4,84.5-64,124.5-23.95,124.5-53.5,0-20.63-27.17-38.52-66.96-47.45h0Z"/></g><path class="cls-4" d="M623.14,698.86c-26.67,23.56-47.84,33.13-74.7,33.13s-48.63-21.8-48.63-48.7,24.03-37.9,48.63-48.7c36.6-16.06,80.07-28.91,85.73-26.11,12.75,6.32,10.03,17.07,32.09,23.09,22.06,6.02,18.36,22.2,12.03,34.14-6.36,12-21.06,3.01-55.15,33.13Z"/><g><g><path class="cls-10" d="M544.97,721c-19.76,0-35.83-16.07-35.83-35.83s16.07-35.83,35.83-35.83,35.83,16.08,35.83,35.83-16.07,35.83-35.83,35.83Z"/><path d="M544.97,652.33c18.1,0,32.83,14.73,32.83,32.83s-14.73,32.83-32.83,32.83-32.83-14.73-32.83-32.83,14.73-32.83,32.83-32.83m0-6c-21.45,0-38.83,17.39-38.83,38.83s17.39,38.83,38.83,38.83,38.83-17.39,38.83-38.83-17.39-38.83-38.83-38.83h0Z"/></g><g><path class="cls-10" d="M544.97,710.7c-14.08,0-25.53-11.45-25.53-25.53s11.45-25.53,25.53-25.53,25.53,11.45,25.53,25.53-11.45,25.53-25.53,25.53Z"/><path d="M544.97,662.63c12.43,0,22.53,10.11,22.53,22.53s-10.11,22.53-22.53,22.53-22.53-10.11-22.53-22.53,10.11-22.53,22.53-22.53m0-6c-15.76,0-28.53,12.77-28.53,28.53s12.77,28.53,28.53,28.53,28.53-12.77,28.53-28.53-12.77-28.53-28.53-28.53h0Z"/></g><g><path class="cls-10" d="M545.49,718.8c-.41,0-1.43-.12-1.92-1.26l-9.06-20.67c-.7-1.59-1.86-2.89-3.37-3.76l-10.61-6.12c-.95-.55-1.05-1.45-1.05-1.82s.1-1.27,1.05-1.82l10.61-6.13c1.5-.87,2.67-2.17,3.37-3.76l9.06-20.67c.5-1.13,1.51-1.26,1.92-1.26s1.43,.12,1.92,1.26l9.42,21.48c.7,1.59,1.86,2.89,3.37,3.76l9.21,5.32c.95,.55,1.05,1.45,1.05,1.82s-.1,1.27-1.05,1.82l-9.21,5.32c-1.5,.87-2.67,2.17-3.37,3.76l-9.42,21.48c-.5,1.13-1.51,1.26-1.92,1.26Z"/><path d="M545.49,655.87l4.24,9.67,4.35,9.93c.96,2.18,2.55,3.96,4.62,5.16l7.86,4.54-7.86,4.54c-2.06,1.19-3.66,2.97-4.62,5.16l-4.35,9.93-4.24,9.67-4.24-9.67-4-9.12c-.96-2.18-2.55-3.96-4.62-5.16l-1.4-.81-7.86-4.54,7.86-4.54,1.4-.81c2.06-1.19,3.66-2.97,4.62-5.16l4-9.12,4.24-9.67m0-7.34c-1.89,0-3.78,1.02-4.67,3.05l-5.06,11.55-4,9.12c-.44,1-1.18,1.83-2.12,2.37l-1.4,.81-9.21,5.32c-3.4,1.96-3.4,6.87,0,8.83l9.21,5.32,1.4,.81c.94,.54,1.68,1.37,2.12,2.37l4,9.12,5.06,11.55c.89,2.03,2.78,3.05,4.67,3.05s3.78-1.02,4.67-3.05l5.06-11.55,4.35-9.93c.44-1,1.18-1.83,2.12-2.37l9.21-5.32c3.4-1.96,3.4-6.87,0-8.83l-9.21-5.32c-.94-.54-1.68-1.37-2.12-2.37l-4.35-9.93-5.06-11.55c-.89-2.03-2.78-3.05-4.67-3.05h0Z"/></g></g></g><g><path class="cls-6" d="M842.75,474.24h1.27c-37.48-69.28-90.15-118.44-155.35-151H388.67c-65.28,37.24-115.97,88.39-154.65,151h1.42c-.93,1.32-1.42,2.65-1.42,4,0,22.92,136.55,41.5,305,41.5s305-18.58,305-41.5c0-2.03-1.09-4.02-3.16-5.98,.78,.65,1.42,1.31,1.89,1.98Z"/><g><g><rect class="cls-7" x="396.05" y="304" width="287" height="287" rx="31.14" ry="31.14"/><path d="M651.92,307c15.51,0,28.14,12.62,28.14,28.13v224.73c0,15.51-12.62,28.13-28.14,28.13h-224.73c-15.51,0-28.14-12.62-28.14-28.13v-224.73c0-15.51,12.62-28.13,28.14-28.13h224.73m0-6h-224.73c-18.85,0-34.14,15.28-34.14,34.13v224.73c0,18.85,15.28,34.13,34.14,34.13h224.73c18.85,0,34.14-15.28,34.14-34.13v-224.73c0-18.85-15.28-34.13-34.14-34.13h0Z"/></g><g><path d="M572.56,513.21h0c-1.74-3.45-.35-7.66,3.1-9.4,19.89-17.75,40.13-27.98,60.72-30.61,3.45-1.74,7.66-.35,9.4,3.1h0c1.74,3.45,.35,7.66-3.1,9.4-25.55,2.17-45.54,12.76-60.72,30.61-3.45,1.74-7.66,.35-9.4-3.1Z"/><path d="M506.79,513.21h0c1.74-3.45,.35-7.66-3.1-9.4-19.89-17.75-40.13-27.98-60.72-30.61-3.45-1.74-7.66-.35-9.4,3.1h0c-1.74,3.45-.35,7.66,3.1,9.4,25.55,2.17,45.54,12.76,60.72,30.61,3.45,1.74,7.66,.35,9.4-3.1Z"/></g></g><g><polygon class="cls-1" points="395.28 218.76 395.28 170.42 353.42 146.26 311.56 170.42 311.56 218.76 353.42 242.92 395.28 218.76"/><path class="cls-5" d="M353.63,146.13l-.07-.04-41.93,24.21-.07,.04v48.5l41.93,24.21,.07,.04,41.93-24.21,.07-.04v-48.5l-41.93-24.21Zm41.5,24.29l-41.57,24-41.57-24,41.57-24,41.57,24Zm-83.29,.25l41.57,24v48l-41.57-24v-48Zm41.86,72.01v-48l41.57-24v48l-41.57,24Z"/></g><g><path class="cls-9" d="M835.79,465.18c-12.3-5.91-35.71-11.82-73.43-18.71-1.56-1.32-4.69-3.52-11-7.96-6.02-4.23-14.4-10.06-24.91-17.33-17.89-12.37-36.01-24.78-36.19-24.9l-5.46-3.74,.78,6.57c2.77,23.24,4,33.61,4.57,38.28-38.17-2.45-99.44-4.14-150.98-4.14-76.46,0-149.64,3.86-206.06,10.88-31.98,3.98-70.16,10.42-89.37,19.95,38.34-58.37,87.31-104.86,145.73-138.33h298.49c32.47,16.29,61.64,36.77,86.7,60.89,23.44,22.56,43.97,48.94,61.12,78.54Z"/><path d="M687.25,328.74c31.95,16.1,60.65,36.3,85.34,60.06,21.21,20.4,40.01,43.97,56.06,70.24-13.61-4.9-34.61-9.82-65.02-15.39-2-1.59-5.25-3.87-10.54-7.59-6.02-4.24-14.41-10.07-24.93-17.35-17.9-12.37-36.02-24.79-36.2-24.91l-10.91-7.47,1.56,13.13c2.2,18.49,3.44,28.86,4.14,34.71-38.4-2.33-97.57-3.92-147.57-3.92-76.58,0-149.89,3.87-206.43,10.9-27.68,3.44-50.33,7.5-67.32,12.06-5.08,1.36-9.59,2.75-13.56,4.17,16.21-23.58,34.22-45.17,53.73-64.38,25.2-24.81,53.69-46.42,84.69-64.26h296.98m1.42-6H388.67c-65.28,37.24-115.97,88.39-154.65,151h1.56c14.79-21.04,145.06-37.5,303.58-37.5,49.02,0,113.35,1.57,154.39,4.37-.03-.13-5-41.87-5-41.87,0,0,73,50,72.4,50.52,35.6,6.48,75.15,15.04,81.79,24.48h1.27c-37.48-69.27-90.15-118.44-155.35-151h0Zm4.89,117.87h0Z"/></g><g><path class="cls-8" d="M392.02,320.74v-56.08c0-12.64,10.28-22.92,22.92-22.92h248.15c12.64,0,22.92,10.28,22.92,22.92v56.08H392.02Z"/><path d="M663.1,244.74c10.99,0,19.92,8.94,19.92,19.92v53.08H395.03v-53.08c0-10.99,8.94-19.92,19.92-19.92h248.15m0-6h-248.15c-14.32,0-25.92,11.61-25.92,25.92v59.08h300v-59.08c0-14.32-11.61-25.92-25.92-25.92h0Z"/></g><path class="cls-2" d="M663.56,238.74h-249.07c39.5-119.81,9.34-149.44-60.43-103.5C402.06-27.76,617.06-12.76,663.56,238.74Z"/><g><g><circle class="cls-10" cx="492.4" cy="281.25" r="65.5" transform="translate(135.91 722.23) rotate(-80.78)"/><path d="M492.4,218.74c34.46,0,62.5,28.04,62.5,62.5s-28.04,62.5-62.5,62.5-62.5-28.04-62.5-62.5,28.04-62.5,62.5-62.5m0-6c-37.83,0-68.5,30.67-68.5,68.5s30.67,68.5,68.5,68.5,68.5-30.67,68.5-68.5-30.67-68.5-68.5-68.5h0Z"/></g><g><circle class="cls-10" cx="492.4" cy="281.25" r="47.33" transform="translate(135.91 722.23) rotate(-80.78)"/><path d="M492.4,236.91c24.45,0,44.33,19.89,44.33,44.33s-19.89,44.33-44.33,44.33-44.33-19.89-44.33-44.33,19.89-44.33,44.33-44.33m0-6c-27.8,0-50.33,22.53-50.33,50.33s22.53,50.33,50.33,50.33,50.33-22.53,50.33-50.33-22.53-50.33-50.33-50.33h0Z"/></g><g><path class="cls-10" d="M493.32,342.87c-2.45,0-4.51-1.34-5.49-3.59l-15.99-36.47c-1.03-2.36-2.76-4.29-4.99-5.57l-18.72-10.8c-1.88-1.08-3-3.02-3-5.19s1.12-4.11,3-5.19l18.72-10.81c2.23-1.29,3.95-3.21,4.99-5.57l15.99-36.47c.98-2.25,3.04-3.59,5.49-3.59s4.51,1.34,5.49,3.59l16.61,37.89c1.03,2.36,2.76,4.28,4.99,5.57l16.25,9.38c1.88,1.08,3,3.02,3,5.19s-1.12,4.11-3,5.19l-16.25,9.38c-2.23,1.29-3.95,3.21-4.99,5.57l-16.61,37.89c-.98,2.25-3.04,3.59-5.49,3.59Z"/><path d="M493.32,222.62c.59,0,2.03,.17,2.74,1.79l8.93,20.38,7.68,17.52c1.29,2.95,3.45,5.36,6.24,6.96l16.25,9.38c1.35,.78,1.5,2.07,1.5,2.59s-.15,1.81-1.5,2.59l-16.25,9.38c-2.79,1.61-4.94,4.02-6.24,6.96l-7.68,17.52-8.93,20.38c-.71,1.62-2.15,1.79-2.74,1.79s-2.03-.17-2.74-1.79l-8.93-20.38-7.05-16.09c-1.29-2.95-3.45-5.36-6.24-6.97l-2.47-1.42-16.25-9.38c-1.35-.78-1.5-2.07-1.5-2.59s.15-1.81,1.5-2.59l16.25-9.38,2.47-1.42c2.79-1.61,4.94-4.02,6.24-6.97l7.05-16.09,8.93-20.38c.71-1.62,2.15-1.79,2.74-1.79m0-6c-3.33,0-6.66,1.79-8.24,5.38l-8.93,20.38-7.05,16.09c-.77,1.76-2.08,3.22-3.74,4.18l-2.47,1.42-16.25,9.38c-6,3.46-6,12.12,0,15.58l16.25,9.38,2.47,1.42c1.66,.96,2.97,2.42,3.74,4.18l7.05,16.09,8.93,20.38c1.57,3.59,4.91,5.38,8.24,5.38s6.66-1.79,8.24-5.38l8.93-20.38,7.68-17.52c.77-1.76,2.08-3.22,3.74-4.18h0l16.25-9.38c6-3.46,6-12.12,0-15.58l-16.25-9.38c-1.66-.96-2.97-2.42-3.74-4.18l-7.68-17.52-8.93-20.38c-1.57-3.59-4.91-5.38-8.24-5.38h0Z"/></g></g><circle class="cls-3" cx="353.56" cy="145.74" r="17.5"/></g></svg>