<?xml version="1.0" encoding="UTF-8"?><svg id="Front" xmlns="http://www.w3.org/2000/svg" viewBox="0 0 1080 1080"><defs><style>.cls-1,.cls-2,.cls-3,.cls-4,.cls-5,.cls-6{stroke:#000;stroke-miterlimit:10;}.cls-1,.cls-2,.cls-3,.cls-4,.cls-6{stroke-width:6px;}.cls-1,.cls-7,.cls-5{fill:#e6e6e6;}.cls-8,.cls-4{fill:#9e005d;}.cls-2,.cls-9{fill:#6c5cc4;}.cls-3,.cls-10{fill:#fbb03b;}.cls-11{fill:#736357;}.cls-5{stroke-width:3px;}.cls-6{fill:#1b1464;}</style></defs><g><g><path class="cls-11" d="M496.68,1050c-13.74,0-25.94-2.85-34.35-8.01-18.87-11.6-34.07-46.69-34.07-68.01,0-45.76,31.18-82.98,69.5-82.98s69.5,37.22,69.5,82.98c0,22.13-15.67,57.83-33.95,67.94-9.15,5.06-22.84,8.08-36.63,8.08Z"/><path d="M497.76,894c36.67,0,66.5,35.88,66.5,79.98,0,10.54-3.71,24.52-9.92,37.39-6.47,13.42-14.67,23.6-22.49,27.92-8.73,4.83-21.87,7.71-35.17,7.71s-24.95-2.76-32.78-7.57c-8.01-4.92-16.29-15.32-22.74-28.53-6.2-12.72-9.91-26.52-9.91-36.92,0-44.1,29.83-79.98,66.5-79.98m0-6h0c-40.04,0-72.5,38.49-72.5,85.98,0,23.25,16.2,58.7,35.5,70.56,9.4,5.77,22.61,8.46,35.92,8.46,14.03,0,28.17-2.98,38.08-8.46,19.3-10.67,35.5-47.31,35.5-70.56,0-47.49-32.46-85.98-72.5-85.98h0Z"/></g><g><path class="cls-11" d="M486.26,957c-23.43,0-42.5-19.07-42.5-42.5s19.07-42.5,42.5-42.5h23c23.43,0,42.5,19.07,42.5,42.5s-19.07,42.5-42.5,42.5h-23Z"/><path d="M509.26,875c21.78,0,39.5,17.72,39.5,39.5s-17.72,39.5-39.5,39.5h-23c-21.78,0-39.5-17.72-39.5-39.5s17.72-39.5,39.5-39.5h23m0-6h-23c-25.13,0-45.5,20.37-45.5,45.5s20.37,45.5,45.5,45.5h23c25.13,0,45.5-20.37,45.5-45.5s-20.37-45.5-45.5-45.5h0Z"/></g></g><path class="cls-4" d="M423.7,760.45c74.75,110.54,152.1,117.54,232.59,0,22.96-43.4,34.51-79.36,0-85.31,0-50.85-232.59-50.85-232.59,0-17.75,18.29-18.63,46.22,0,85.31Z"/><g><path class="cls-9" d="M497.61,950c-20.13,0-36.5-16.37-36.5-36.5v-101.5h73v101.5c0,20.13-16.37,36.5-36.5,36.5Z"/><path d="M531.11,815v98.5c0,18.47-15.03,33.5-33.5,33.5s-33.5-15.03-33.5-33.5v-98.5h67m6-6h-79v104.5c0,21.82,17.68,39.5,39.5,39.5h0c21.82,0,39.5-17.68,39.5-39.5v-104.5h0Z"/></g><g><rect class="cls-9" x="558.5" y="812" width="73" height="192"/><path d="M628.5,815v186h-67v-186h67m6-6h-79v198h79v-198h0Z"/></g><rect class="cls-2" x="459.05" y="632" width="174" height="224" rx="41.43" ry="41.43"/><g><path class="cls-9" d="M350.01,744.72c17.81-48.99,49.56-80.76,96.98-97.04l41.34,41.34c-47.98,15.51-80.56,48.13-96.96,97.06l-41.36-41.36Z"/><path d="M446.2,651.14l36.59,36.59c-44.94,15.87-76.06,47.04-92.68,92.85l-36.62-36.62c8.9-23.75,21.48-43.65,37.44-59.18,15.03-14.63,33.61-25.94,55.28-33.64m1.59-6.89c-46.9,15.6-82.16,47.27-101.25,101.25l46.18,46.18c16.76-54.48,51.75-86.72,101.25-101.25l-46.18-46.18h0Z"/></g><g><path class="cls-9" d="M692.15,786.08c-16.4-48.93-48.98-81.55-96.96-97.06l41.34-41.34c47.42,16.28,79.17,48.05,96.98,97.04l-41.36,41.36Z"/><path d="M637.31,651.14c21.67,7.7,40.25,19,55.28,33.64,15.96,15.54,28.54,35.44,37.44,59.18l-36.62,36.62c-16.62-45.81-47.74-76.99-92.68-92.85l36.59-36.59m-1.59-6.89l-46.18,46.18c49.51,14.53,84.5,46.78,101.25,101.25l46.18-46.18c-19.09-53.99-54.35-85.66-101.25-101.25h0Z"/></g><g><g><path class="cls-7" d="M279.29,858.09c-1.67,0-3.3-.34-4.85-1-3.03-1.3-5.37-3.7-6.59-6.75-1.22-3.06-1.18-6.41,.11-9.44l15.88-37.08c1.95-4.54,6.4-7.48,11.34-7.48,1.67,0,3.3,.34,4.85,1,3.03,1.3,5.37,3.7,6.59,6.75,1.22,3.06,1.18,6.41-.11,9.44l-15.88,37.07c-1.95,4.54-6.4,7.48-11.34,7.48h0Z"/><path d="M295.19,799.34c1.26,0,2.49,.26,3.67,.76,2.29,.98,4.06,2.8,4.99,5.11,.93,2.31,.9,4.85-.09,7.14l-.26,.61-15.36,35.85-.26,.61c-1.47,3.44-4.84,5.66-8.59,5.66-1.26,0-2.49-.26-3.67-.76-4.73-2.03-6.93-7.52-4.9-12.25l.26-.61,15.36-35.85,.26-.61c1.47-3.44,4.84-5.66,8.59-5.66m0-6c-5.95,0-11.61,3.48-14.1,9.3l-.26,.61-15.36,35.85-.26,.61c-3.33,7.78,.27,16.8,8.06,20.13h0c1.97,.84,4.02,1.24,6.03,1.24,5.95,0,11.61-3.48,14.1-9.3l.26-.61,15.36-35.85,.26-.61c3.33-7.78-.27-16.8-8.06-20.13h0c-1.97-.84-4.02-1.24-6.03-1.24h0Z"/></g><g><path class="cls-7" d="M263.28,841.19c-4.13,0-7.96-2.04-10.26-5.47-1.83-2.74-2.49-6.02-1.85-9.26,.64-3.23,2.5-6.02,5.23-7.86l33.51-22.45c2.04-1.37,4.41-2.09,6.85-2.09,4.13,0,7.96,2.04,10.26,5.47,1.83,2.74,2.49,6.02,1.85,9.26-.64,3.23-2.5,6.02-5.23,7.86l-33.51,22.45c-2.04,1.37-4.41,2.09-6.85,2.09h0Z"/><path d="M296.76,797.07c3.13,0,6.03,1.55,7.77,4.14,1.39,2.07,1.89,4.56,1.4,7-.48,2.45-1.89,4.56-3.96,5.94l-.55,.37-32.4,21.71-.55,.37c-1.54,1.03-3.34,1.58-5.18,1.58-3.13,0-6.03-1.55-7.77-4.14-1.39-2.07-1.89-4.56-1.4-7,.48-2.45,1.89-4.56,3.96-5.94l.55-.37,32.4-21.71,.55-.37c1.54-1.03,3.34-1.58,5.18-1.58m0-6c-2.93,0-5.9,.84-8.52,2.6l-.55,.37-32.4,21.71-.55,.37c-7.03,4.71-8.92,14.24-4.2,21.27h0c2.96,4.41,7.81,6.8,12.75,6.8,2.93,0,5.9-.84,8.52-2.6l.55-.37,32.4-21.71,.55-.37c7.03-4.71,8.92-14.24,4.2-21.27h0c-2.96-4.41-7.81-6.8-12.75-6.8h0Z"/></g><g><path class="cls-7" d="M343.08,828.55c-11.42,0-24.33-3.76-38.36-11.17l-1.56-.82-1.48,.96c-1.31,.85-2.73,1.44-4.23,1.75l-39.51,8.11c-.83,.17-1.67,.26-2.5,.26-5.82,0-10.89-4.15-12.07-9.86-1.37-6.66,2.94-13.19,9.6-14.56l34.61-7.11,.68-.91c10.74-14.36,24.77-26.92,41.71-37.31l.12-.07,.11-.09c2.91-2.19,6.27-3.39,9.46-3.39s5.54,1.1,7.04,3.09l32.81,43.58c1.47,1.95,1.85,4.6,1.07,7.45-.85,3.13-2.96,6.09-5.92,8.32l-.12,.1c-9.38,7.86-19.68,11.68-31.48,11.68Z"/><path d="M339.68,757.33c1.2,0,3.4,.25,4.64,1.89l32.81,43.58c1.9,2.53,.62,7.9-4.26,11.58l-.12,.09-.12,.1c-8.82,7.39-18.49,10.98-29.55,10.98s-23.36-3.64-36.96-10.83l-3.12-1.65-2.96,1.92c-.99,.65-2.07,1.09-3.2,1.32l-.65,.13-38.2,7.84-.65,.13c-.63,.13-1.26,.19-1.89,.19-4.4,0-8.24-3.14-9.13-7.46-.5-2.44-.02-4.93,1.35-7.01,1.37-2.08,3.47-3.5,5.91-4.01l.65-.13,32.84-6.74,2.23-.46,1.37-1.83c10.51-14.06,24.26-26.35,40.88-36.55l.24-.15,.23-.17c2.35-1.77,5.15-2.79,7.66-2.79m0-6c-3.69,0-7.73,1.33-11.27,4-16.91,10.38-31.24,22.95-42.54,38.07l-32.84,6.74-.65,.13c-8.3,1.7-13.64,9.81-11.94,18.1h0c1.49,7.25,7.88,12.25,15,12.25,1.02,0,2.06-.1,3.1-.32l.65-.13,38.2-7.84,.65-.13c1.94-.4,3.7-1.16,5.27-2.17,14.11,7.45,27.41,11.52,39.76,11.52s23.29-3.91,33.4-12.38c7.22-5.44,9.66-14.38,5.45-19.98l-32.81-43.58c-2.15-2.85-5.6-4.28-9.44-4.28h0Z"/></g><g><path class="cls-7" d="M388.56,818.44c-5.34,0-10.36-2.08-14.14-5.86l-48.08-48.08c-7.8-7.8-7.8-20.49,0-28.29,3.78-3.78,8.8-5.86,14.14-5.86s10.36,2.08,14.14,5.86l48.08,48.08c7.8,7.8,7.8,20.49,0,28.28-3.78,3.78-8.8,5.86-14.14,5.86Z"/><path d="M340.47,733.36c4.54,0,8.81,1.77,12.02,4.98l48.08,48.08c3.21,3.21,4.98,7.48,4.98,12.02s-1.77,8.81-4.98,12.02c-3.21,3.21-7.48,4.98-12.02,4.98s-8.81-1.77-12.02-4.98l-48.08-48.08c-6.63-6.63-6.63-17.41,0-24.04,3.21-3.21,7.48-4.98,12.02-4.98m0-6c-5.89,0-11.77,2.25-16.26,6.74h0c-8.98,8.98-8.98,23.54,0,32.53l48.08,48.08c4.49,4.49,10.38,6.74,16.26,6.74s11.77-2.25,16.26-6.74h0c8.98-8.98,8.98-23.54,0-32.53l-48.08-48.08c-4.49-4.49-10.38-6.74-16.26-6.74h0Z"/></g><g><path class="cls-7" d="M320.25,866.77c-1.74,0-3.44-.37-5.05-1.09-6.2-2.79-8.98-10.1-6.19-16.31l16.54-36.79c1.99-4.42,6.41-7.28,11.26-7.28,1.74,0,3.44,.37,5.05,1.09,3,1.35,5.3,3.79,6.47,6.87,1.17,3.08,1.07,6.43-.28,9.43l-16.54,36.79c-1.99,4.42-6.41,7.28-11.26,7.28h0Z"/><path d="M336.81,808.31h0c1.32,0,2.6,.28,3.82,.82,2.27,1.02,4.01,2.87,4.9,5.2,.88,2.33,.81,4.87-.21,7.14l-.27,.61-15.99,35.57-.27,.61c-1.5,3.35-4.85,5.51-8.52,5.51-1.32,0-2.6-.28-3.82-.82-4.69-2.11-6.8-7.65-4.69-12.34l.27-.61,15.99-35.57,.27-.61c1.5-3.35,4.85-5.51,8.52-5.51m0-6c-5.85,0-11.44,3.37-13.99,9.05l-.27,.61-15.99,35.57-.27,.61c-3.47,7.72-.03,16.8,7.7,20.27h0c2.04,.92,4.18,1.35,6.28,1.35,5.85,0,11.44-3.37,13.99-9.05l.27-.61,15.99-35.57,.27-.61c3.47-7.72,.03-16.8-7.7-20.27h0c-2.04-.92-4.18-1.35-6.28-1.35h0Z"/></g></g><g><g><path class="cls-8" d="M539.4,667.17c-50.07-41.25-86.04-41.26-101.51-41.26-1.42,0-2.77,.01-4.06,.02-1.15,0-2.25,.02-3.3,.02-10.94,0-12.73-1.19-12.73-8.46,0-12.83,12.63-25.61,34.65-35.07,23.15-9.95,53.99-15.43,86.85-15.43s63.7,5.48,86.85,15.43c22.02,9.46,34.65,22.25,34.65,35.07,0,9.03-3.13,9.5-17.91,10.23-20.33,1.01-54.17,2.69-103.49,39.44Z"/><path d="M539.3,569.99c32.46,0,62.88,5.39,85.67,15.18,20.87,8.97,32.83,20.75,32.83,32.32,0,4.66-1.13,5.21-1.8,5.54-2.33,1.15-7.4,1.4-13.26,1.69-19.07,.95-54.15,2.69-103.25,38.64-49.96-40.46-86-40.46-101.6-40.46-1.43,0-2.79,.01-4.08,.02-1.14,0-2.24,.02-3.28,.02-2.32,0-7.16,0-8.75-.94-.91-.54-.98-3.59-.98-4.52,0-11.57,11.97-23.35,32.83-32.32,22.78-9.79,53.21-15.18,85.67-15.18m0-6c-68.76,0-124.5,23.95-124.5,53.5,0,10.54,5.22,11.46,15.73,11.46,2.22,0,4.67-.04,7.36-.04,20.28,0,53.99,2.32,101.41,42.08,84.5-64,124.5-23.95,124.5-53.5s-55.74-53.5-124.5-53.5h0Z"/></g><ellipse cx="539.3" cy="677.49" rx="70.5" ry="40.5"/><path class="cls-4" d="M465.77,718.86c27.98,23.56,50.19,33.13,78.37,33.13,28.18,0,51.02-21.8,51.02-48.7s-31.05-31.01-56.86-41.8c-38.4-16.06-78.17-35.81-84.11-33-13.37,6.32-10.52,17.07-33.66,23.09-23.14,6.02-19.26,22.2-12.62,34.14,6.67,12,22.09,3.01,57.86,33.13Z"/><path class="cls-4" d="M531.37,655.49c-27.32-23.11,10.44-56.47-49.13-85.45-39.79,8.93-66.96,26.83-66.96,47.45,0,27.96,35.81-6.39,111.25,44.05l5.01,3.18,6.24-2.82-6.41-6.42Z"/><g><path class="cls-8" d="M527.79,671.35c.99-.91,2.59-2.21,5.18-3.96,28.31-11.55,29.01-27.87,29.69-43.65,.72-16.78,1.46-34.12,34.56-50.54,38.67,8.88,63.59,26.21,63.59,44.29,0,9.03-3.13,9.5-17.91,10.23-20.57,1.02-54.99,2.74-105.28,40.78-2.25,1.34-6.68,2.59-9.83,2.84Z"/><path d="M597.59,576.37c18.2,4.28,33.46,10.46,44.24,17.94,7.29,5.06,15.98,13.19,15.98,23.18,0,4.66-1.13,5.21-1.8,5.54-2.33,1.15-7.4,1.4-13.26,1.69-16.26,.81-44.17,2.19-82.48,24.88,4.64-8.4,5.03-17.36,5.39-25.74,.71-16.47,1.37-32.04,31.94-47.5m-.75-6.33c-68.08,33.12-9.04,71.95-65.3,94.68-10.85,7.29-9.4,9.67-4.81,9.67,3.76,0,9.63-1.6,12.56-3.4,84.5-64,124.5-23.95,124.5-53.5,0-20.63-27.17-38.52-66.96-47.45h0Z"/></g><path class="cls-4" d="M623.14,718.86c-26.67,23.56-47.84,33.13-74.7,33.13s-48.63-21.8-48.63-48.7,24.03-37.9,48.63-48.7c36.6-16.06,80.07-28.91,85.73-26.11,12.75,6.32,10.03,17.07,32.09,23.09,22.06,6.02,18.36,22.2,12.03,34.14-6.36,12-21.06,3.01-55.15,33.13Z"/><g><g><path class="cls-10" d="M544.97,741c-19.76,0-35.83-16.07-35.83-35.83s16.07-35.83,35.83-35.83,35.83,16.08,35.83,35.83-16.07,35.83-35.83,35.83Z"/><path d="M544.97,672.33c18.1,0,32.83,14.73,32.83,32.83s-14.73,32.83-32.83,32.83-32.83-14.73-32.83-32.83,14.73-32.83,32.83-32.83m0-6c-21.45,0-38.83,17.39-38.83,38.83s17.39,38.83,38.83,38.83,38.83-17.39,38.83-38.83-17.39-38.83-38.83-38.83h0Z"/></g><g><path class="cls-10" d="M544.97,730.7c-14.08,0-25.53-11.45-25.53-25.53s11.45-25.53,25.53-25.53,25.53,11.45,25.53,25.53-11.45,25.53-25.53,25.53Z"/><path d="M544.97,682.63c12.42,0,22.53,10.11,22.53,22.53s-10.11,22.53-22.53,22.53-22.53-10.11-22.53-22.53,10.11-22.53,22.53-22.53m0-6c-15.76,0-28.53,12.77-28.53,28.53s12.77,28.53,28.53,28.53,28.53-12.77,28.53-28.53-12.77-28.53-28.53-28.53h0Z"/></g><g><path class="cls-10" d="M545.49,738.8c-.41,0-1.43-.12-1.92-1.26l-9.06-20.67c-.7-1.59-1.86-2.89-3.37-3.76l-10.61-6.12c-.95-.55-1.05-1.45-1.05-1.82s.1-1.27,1.05-1.82l10.61-6.13c1.5-.87,2.67-2.17,3.37-3.76l9.06-20.67c.5-1.13,1.51-1.26,1.92-1.26s1.43,.12,1.92,1.26l9.42,21.48c.7,1.59,1.86,2.89,3.37,3.76l9.21,5.32c.95,.55,1.05,1.45,1.05,1.82s-.1,1.27-1.05,1.82l-9.21,5.32c-1.5,.87-2.67,2.17-3.37,3.76l-9.42,21.48c-.5,1.13-1.51,1.26-1.92,1.26Z"/><path d="M545.49,675.87l4.24,9.67,4.35,9.93c.96,2.18,2.55,3.96,4.62,5.16l7.86,4.54-7.86,4.54c-2.06,1.19-3.66,2.97-4.62,5.16l-4.35,9.93-4.24,9.67-4.24-9.67-4-9.12c-.96-2.18-2.55-3.97-4.62-5.16l-1.4-.81-7.86-4.54,7.86-4.54,1.4-.81c2.06-1.19,3.66-2.97,4.62-5.16l4-9.12,4.24-9.67m0-7.34c-1.89,0-3.78,1.02-4.67,3.05l-5.06,11.55-4,9.12c-.44,1-1.18,1.83-2.12,2.37l-1.4,.81-9.21,5.32c-3.4,1.96-3.4,6.87,0,8.83l9.21,5.32,1.4,.81c.94,.54,1.68,1.37,2.12,2.37l4,9.12,5.06,11.55c.89,2.03,2.78,3.05,4.67,3.05s3.78-1.02,4.67-3.05l5.06-11.55,4.35-9.93c.44-1,1.18-1.83,2.12-2.37l9.21-5.32c3.4-1.96,3.4-6.87,0-8.83l-9.21-5.32c-.94-.54-1.68-1.37-2.12-2.37l-4.35-9.93-5.06-11.55c-.89-2.03-2.78-3.05-4.67-3.05h0Z"/></g></g></g><g><path class="cls-6" d="M842.75,494.24h1.27c-37.48-69.28-90.15-118.44-155.35-151H388.67c-65.28,37.24-115.97,88.39-154.65,151h1.42c-.93,1.32-1.42,2.65-1.42,4,0,22.92,136.55,41.5,305,41.5s305-18.58,305-41.5c0-2.03-1.09-4.02-3.16-5.98,.78,.65,1.42,1.31,1.89,1.98Z"/><g><g><rect class="cls-7" x="396.05" y="324" width="287" height="287" rx="31.13" ry="31.13"/><path d="M651.92,327c15.51,0,28.14,12.62,28.14,28.14v224.73c0,15.51-12.62,28.14-28.14,28.14h-224.73c-15.51,0-28.14-12.62-28.14-28.14v-224.73c0-15.51,12.62-28.14,28.14-28.14h224.73m0-6h-224.73c-18.85,0-34.14,15.28-34.14,34.14v224.73c0,18.85,15.28,34.14,34.14,34.14h224.73c18.85,0,34.14-15.28,34.14-34.14v-224.73c0-18.85-15.28-34.14-34.14-34.14h0Z"/></g><g><path d="M631.15,516.17l18.8-10.85c-4.41-17.88-20.55-31.15-39.8-31.15-22.64,0-41,18.36-41,41s18.36,41,41,41c18.62,0,34.33-12.42,39.33-29.42l-18.33-10.58Z"/><path d="M491.15,516.17l18.8-10.85c-4.41-17.88-20.55-31.15-39.8-31.15-22.64,0-41,18.36-41,41s18.36,41,41,41c18.62,0,34.33-12.42,39.33-29.42l-18.33-10.58Z"/></g></g><g><polygon class="cls-1" points="395.28 238.76 395.28 190.42 353.42 166.26 311.56 190.42 311.56 238.76 353.42 262.92 395.28 238.76"/><path class="cls-5" d="M353.63,166.13l-.07-.04-41.93,24.21-.07,.04v48.5l41.93,24.21,.07,.04,41.93-24.21,.07-.04v-48.5l-41.93-24.21Zm41.5,24.29l-41.57,24-41.57-24,41.57-24,41.57,24Zm-83.29,.25l41.57,24v48l-41.57-24v-48Zm41.86,72.01v-48l41.57-24v48l-41.57,24Z"/></g><g><path class="cls-9" d="M835.79,485.18c-12.3-5.91-35.71-11.82-73.43-18.71-1.56-1.32-4.69-3.52-11-7.96-6.02-4.23-14.4-10.06-24.91-17.33-17.89-12.37-36.01-24.78-36.19-24.9l-5.46-3.74,.78,6.57c2.77,23.24,4,33.61,4.57,38.28-38.17-2.45-99.44-4.14-150.98-4.14-76.46,0-149.64,3.86-206.06,10.88-31.98,3.98-70.16,10.42-89.37,19.95,38.34-58.37,87.31-104.86,145.73-138.33h298.49c32.47,16.29,61.64,36.77,86.7,60.89,23.44,22.56,43.97,48.94,61.12,78.54Z"/><path d="M687.25,348.74c31.95,16.1,60.65,36.3,85.34,60.06,21.21,20.41,40.01,43.97,56.06,70.24-13.61-4.9-34.61-9.82-65.02-15.39-2-1.59-5.25-3.87-10.54-7.59-6.02-4.24-14.41-10.07-24.93-17.35-17.9-12.37-36.02-24.79-36.2-24.91l-10.91-7.47,1.56,13.13c2.2,18.49,3.44,28.86,4.14,34.71-38.4-2.33-97.57-3.92-147.57-3.92-76.58,0-149.89,3.87-206.43,10.9-27.68,3.44-50.33,7.5-67.32,12.06-5.08,1.36-9.59,2.75-13.56,4.17,16.21-23.58,34.22-45.17,53.73-64.38,25.2-24.81,53.69-46.42,84.69-64.26h296.98m1.42-6H388.67c-65.28,37.24-115.97,88.39-154.65,151h1.56c14.79-21.04,145.06-37.5,303.58-37.5,49.02,0,113.35,1.57,154.39,4.37-.03-.13-5-41.87-5-41.87,0,0,73,50,72.4,50.51,35.6,6.49,75.15,15.04,81.79,24.49h1.27c-37.48-69.28-90.15-118.44-155.35-151h0Zm4.89,117.87h0Z"/></g><g><path class="cls-8" d="M392.02,340.74v-56.08c0-12.64,10.28-22.92,22.92-22.92h248.15c12.64,0,22.92,10.28,22.92,22.92v56.08H392.02Z"/><path d="M663.1,264.74c10.99,0,19.92,8.94,19.92,19.92v53.08H395.03v-53.08c0-10.99,8.94-19.92,19.92-19.92h248.15m0-6h-248.15c-14.32,0-25.92,11.61-25.92,25.92v59.08h300v-59.08c0-14.32-11.61-25.92-25.92-25.92h0Z"/></g><path class="cls-2" d="M663.56,258.74h-249.07c39.5-119.81,9.34-149.44-60.43-103.5C402.06-7.76,617.06,7.24,663.56,258.74Z"/><g><g><circle class="cls-10" cx="492.4" cy="301.25" r="65.5" transform="translate(116.17 739.03) rotate(-80.78)"/><path d="M492.4,238.74c34.46,0,62.5,28.04,62.5,62.5s-28.04,62.5-62.5,62.5-62.5-28.04-62.5-62.5,28.04-62.5,62.5-62.5m0-6c-37.83,0-68.5,30.67-68.5,68.5s30.67,68.5,68.5,68.5,68.5-30.67,68.5-68.5-30.67-68.5-68.5-68.5h0Z"/></g><g><circle class="cls-10" cx="492.4" cy="301.25" r="47.33" transform="translate(116.17 739.03) rotate(-80.78)"/><path d="M492.4,256.91c24.45,0,44.33,19.89,44.33,44.33s-19.89,44.33-44.33,44.33-44.33-19.89-44.33-44.33,19.89-44.33,44.33-44.33m0-6c-27.8,0-50.33,22.53-50.33,50.33s22.53,50.33,50.33,50.33,50.33-22.53,50.33-50.33-22.53-50.33-50.33-50.33h0Z"/></g><g><path class="cls-10" d="M493.32,362.87c-2.45,0-4.51-1.34-5.49-3.59l-15.99-36.47c-1.03-2.36-2.76-4.29-4.99-5.57l-18.72-10.8c-1.88-1.08-3-3.02-3-5.19s1.12-4.11,3-5.19l18.72-10.81c2.23-1.29,3.95-3.21,4.99-5.57l15.99-36.47c.98-2.25,3.04-3.59,5.49-3.59s4.51,1.34,5.49,3.59l16.61,37.89c1.03,2.36,2.76,4.28,4.99,5.57l16.25,9.38c1.88,1.08,3,3.02,3,5.19s-1.12,4.11-3,5.19l-16.25,9.38c-2.23,1.29-3.95,3.21-4.99,5.57l-16.61,37.89c-.98,2.25-3.04,3.59-5.49,3.59Z"/><path d="M493.32,242.62c.59,0,2.03,.17,2.74,1.79l8.93,20.38,7.68,17.52c1.29,2.95,3.45,5.36,6.24,6.97l16.25,9.38c1.35,.78,1.5,2.07,1.5,2.59s-.15,1.81-1.5,2.59l-16.25,9.38c-2.79,1.61-4.94,4.02-6.24,6.96l-7.68,17.52-8.93,20.38c-.71,1.62-2.15,1.79-2.74,1.79s-2.03-.17-2.74-1.79l-8.93-20.38-7.05-16.09c-1.29-2.95-3.45-5.36-6.24-6.96l-2.47-1.42-16.25-9.38c-1.35-.78-1.5-2.07-1.5-2.59,0-.52,.15-1.81,1.5-2.59l16.25-9.38,2.47-1.42c2.79-1.61,4.94-4.02,6.24-6.97l7.05-16.09,8.93-20.38c.71-1.62,2.15-1.79,2.74-1.79m0-6c-3.33,0-6.66,1.79-8.24,5.38l-8.93,20.38-7.05,16.09c-.77,1.76-2.08,3.22-3.74,4.18l-2.47,1.42-16.25,9.38c-6,3.46-6,12.12,0,15.58l16.25,9.38,2.47,1.42c1.66,.96,2.97,2.42,3.74,4.18l7.05,16.09,8.93,20.38c1.57,3.59,4.91,5.38,8.24,5.38s6.66-1.79,8.24-5.38l8.93-20.38,7.68-17.52c.77-1.76,2.08-3.22,3.74-4.18h0l16.25-9.38c6-3.46,6-12.12,0-15.58l-16.25-9.38c-1.66-.96-2.97-2.42-3.74-4.18l-7.68-17.52-8.93-20.38c-1.57-3.59-4.91-5.38-8.24-5.38h0Z"/></g></g><circle class="cls-3" cx="353.56" cy="165.74" r="17.5"/></g><g><g><path class="cls-7" d="M806.8,858.09c-4.94,0-9.4-2.94-11.34-7.48l-15.88-37.08c-2.68-6.25,.23-13.51,6.48-16.19,1.55-.66,3.18-1,4.85-1,4.94,0,9.4,2.94,11.34,7.48l15.88,37.07c2.68,6.25-.23,13.52-6.48,16.19-1.55,.66-3.18,1-4.85,1Z"/><path d="M790.91,799.34h0c3.74,0,7.11,2.22,8.59,5.66l.26,.61,15.36,35.85,.26,.61c.98,2.29,1.01,4.83,.09,7.14-.93,2.31-2.7,4.13-4.99,5.11-1.17,.5-2.41,.76-3.67,.76-3.74,0-7.11-2.22-8.59-5.66l-.26-.61-15.36-35.85-.26-.61c-.98-2.29-1.01-4.83-.09-7.14,.93-2.31,2.7-4.13,4.99-5.11,1.17-.5,2.41-.76,3.67-.76m0-6c-2.01,0-4.06,.4-6.03,1.24h0c-7.78,3.33-11.39,12.35-8.06,20.13l.26,.61,15.36,35.85,.26,.61c2.49,5.82,8.15,9.3,14.1,9.3,2.01,0,4.06-.4,6.03-1.24h0c7.78-3.33,11.39-12.35,8.06-20.13l-.26-.61-15.36-35.85-.26-.61c-2.49-5.82-8.15-9.3-14.1-9.3h0Z"/></g><g><path class="cls-7" d="M822.81,841.19c-2.44,0-4.81-.72-6.85-2.09l-33.51-22.45c-2.74-1.83-4.6-4.62-5.23-7.86-.64-3.23,.02-6.52,1.85-9.26,2.29-3.42,6.13-5.47,10.26-5.47,2.44,0,4.81,.72,6.85,2.09l33.51,22.45c2.74,1.83,4.59,4.62,5.23,7.85,.64,3.23-.02,6.52-1.85,9.26-2.29,3.42-6.13,5.47-10.26,5.47Z"/><path d="M789.33,797.07h0c1.85,0,3.64,.55,5.18,1.58l.56,.37,32.4,21.71,.55,.37c2.07,1.39,3.48,3.5,3.96,5.94s-.02,4.93-1.4,7c-1.74,2.59-4.64,4.14-7.77,4.14-1.85,0-3.64-.55-5.18-1.58l-.55-.37-32.4-21.71-.55-.37c-2.07-1.39-3.48-3.5-3.96-5.94-.48-2.45,.02-4.93,1.4-7,1.74-2.59,4.64-4.14,7.77-4.14m0-6c-4.94,0-9.79,2.39-12.75,6.8h0c-4.71,7.03-2.83,16.56,4.2,21.27l.55,.37,32.4,21.71,.55,.37c2.62,1.76,5.59,2.6,8.52,2.6,4.94,0,9.79-2.39,12.75-6.8h0c4.71-7.03,2.83-16.56-4.2-21.27l-.55-.37-32.4-21.71-.55-.37c-2.62-1.76-5.59-2.6-8.52-2.6h0Z"/></g><g><path class="cls-7" d="M743.02,828.55c-11.8,0-22.09-3.82-31.48-11.68l-.12-.1c-2.96-2.23-5.07-5.19-5.92-8.32-.78-2.86-.4-5.51,1.07-7.45l32.81-43.58c1.5-1.99,4-3.09,7.04-3.09,3.2,0,6.56,1.2,9.46,3.39l.11,.09,.12,.07c16.94,10.4,30.97,22.95,41.71,37.31l.68,.91,34.61,7.11c3.23,.66,6,2.54,7.81,5.29,1.81,2.75,2.45,6.04,1.79,9.27-1.17,5.71-6.25,9.86-12.07,9.86-.83,0-1.67-.09-2.5-.25l-39.51-8.11c-1.5-.31-2.92-.9-4.23-1.75l-1.48-.96-1.56,.82c-14.03,7.41-26.94,11.17-38.36,11.17Z"/><path d="M746.41,757.33h0c2.51,0,5.31,1.02,7.66,2.79l.23,.17,.24,.15c16.61,10.2,30.37,22.49,40.88,36.55l1.37,1.83,2.23,.46,32.84,6.74,.65,.13c5.04,1.03,8.3,5.98,7.27,11.02-.89,4.32-4.73,7.46-9.13,7.46-.63,0-1.27-.07-1.89-.19l-.65-.13-38.2-7.84-.65-.13c-1.13-.23-2.21-.68-3.2-1.32l-2.96-1.92-3.12,1.65c-13.6,7.18-26.03,10.83-36.96,10.83s-20.73-3.59-29.55-10.98l-.12-.1-.12-.09c-4.88-3.68-6.16-9.05-4.26-11.58l32.81-43.58c1.24-1.65,3.44-1.89,4.64-1.89m0-6c-3.83,0-7.29,1.43-9.44,4.28l-32.81,43.58c-4.21,5.6-1.77,14.54,5.45,19.98,10.11,8.47,21.3,12.38,33.4,12.38s25.66-4.07,39.76-11.52c1.56,1.02,3.33,1.77,5.27,2.17l.65,.13,38.2,7.84,.65,.13c1.04,.21,2.08,.32,3.1,.32,7.13,0,13.51-5,15-12.25h0c1.7-8.3-3.64-16.4-11.94-18.1l-.65-.13-32.84-6.74c-11.31-15.12-25.63-27.69-42.54-38.07-3.54-2.67-7.58-4-11.27-4h0Z"/></g><g><path class="cls-7" d="M697.54,818.44c-5.34,0-10.36-2.08-14.14-5.86-3.78-3.78-5.86-8.8-5.86-14.14s2.08-10.36,5.86-14.14l48.08-48.08c3.78-3.78,8.8-5.86,14.14-5.86s10.36,2.08,14.14,5.86c7.8,7.8,7.8,20.49,0,28.29l-48.08,48.08c-3.78,3.78-8.8,5.86-14.14,5.86Z"/><path d="M745.62,733.36c4.54,0,8.81,1.77,12.02,4.98s4.98,7.48,4.98,12.02-1.77,8.81-4.98,12.02l-48.08,48.08c-3.21,3.21-7.48,4.98-12.02,4.98s-8.81-1.77-12.02-4.98c-3.21-3.21-4.98-7.48-4.98-12.02s1.77-8.81,4.98-12.02l48.08-48.08c3.21-3.21,7.48-4.98,12.02-4.98m0-6c-5.89,0-11.77,2.25-16.26,6.74l-48.08,48.08c-8.98,8.98-8.98,23.54,0,32.53,4.49,4.49,10.38,6.74,16.26,6.74s11.77-2.25,16.26-6.74l48.08-48.08c8.98-8.98,8.98-23.54,0-32.53-4.49-4.49-10.38-6.74-16.26-6.74h0Z"/></g><g><path class="cls-7" d="M765.85,866.77c-4.85,0-9.27-2.86-11.26-7.28l-16.54-36.79c-2.79-6.2-.01-13.52,6.19-16.31,1.61-.72,3.31-1.09,5.05-1.09,4.85,0,9.27,2.86,11.26,7.28l16.54,36.79c2.79,6.2,.01,13.52-6.19,16.31-1.61,.72-3.31,1.09-5.05,1.09Z"/><path d="M749.29,808.31h0c3.67,0,7.02,2.16,8.52,5.51l.27,.61,15.99,35.57,.27,.61c2.11,4.69,0,10.23-4.69,12.34-1.22,.55-2.5,.82-3.82,.82-3.67,0-7.02-2.16-8.52-5.51l-.27-.61-15.99-35.57-.27-.61c-1.02-2.27-1.1-4.81-.21-7.14,.89-2.33,2.62-4.18,4.9-5.2,1.22-.55,2.5-.82,3.82-.82m0-6c-2.1,0-4.24,.43-6.28,1.35h0c-7.72,3.47-11.17,12.55-7.7,20.27l.27,.61,15.99,35.57,.27,.61c2.55,5.68,8.14,9.05,13.99,9.05,2.1,0,4.24-.43,6.28-1.35h0c7.72-3.47,11.17-12.55,7.7-20.27l-.27-.61-15.99-35.57-.27-.61c-2.55-5.68-8.14-9.05-13.99-9.05h0Z"/></g></g><g><g><path class="cls-11" d="M568,1010c-14.89,0-27-12.11-27-27s12.11-27,27-27h54c14.89,0,27,12.11,27,27s-12.11,27-27,27h-54Z"/><path d="M622,959c13.23,0,24,10.77,24,24s-10.77,24-24,24h-54c-13.23,0-24-10.77-24-24s10.77-24,24-24h54m0-6h-54c-16.57,0-30,13.43-30,30s13.43,30,30,30h54c16.57,0,30-13.43,30-30s-13.43-30-30-30h0Z"/></g><g><rect class="cls-11" x="561.5" y="1010" width="67" height="67"/><path d="M625.5,1013v61h-61v-61h61m6-6h-73v73h73v-73h0Z"/></g><g><path class="cls-11" d="M525.5,1077v-32.5c0-38.32,31.18-69.5,69.5-69.5s69.5,31.18,69.5,69.5v32.5h-139Z"/><path d="M595,978c36.67,0,66.5,29.83,66.5,66.5v29.5h-133v-29.5c0-36.67,29.83-66.5,66.5-66.5m0-6h0c-40.04,0-72.5,32.46-72.5,72.5v35.5h145v-35.5c0-40.04-32.46-72.5-72.5-72.5h0Z"/></g><g><rect class="cls-11" x="525.5" y="1061" width="139" height="16"/><path d="M661.5,1064v10h-133v-10h133m6-6h-145v22h145v-22h0Z"/></g></g></svg>