<?xml version="1.0" encoding="UTF-8"?><svg id="Front" xmlns="http://www.w3.org/2000/svg" viewBox="0 0 1080 1080"><defs><style>.cls-1,.cls-2,.cls-3,.cls-4,.cls-5,.cls-6{stroke:#000;stroke-miterlimit:10;}.cls-1,.cls-2,.cls-3,.cls-4,.cls-6{stroke-width:6px;}.cls-1,.cls-7,.cls-5{fill:#e6e6e6;}.cls-8,.cls-4{fill:#9e005d;}.cls-2,.cls-9{fill:#6c5cc4;}.cls-3,.cls-10{fill:#fbb03b;}.cls-11{fill:#736357;}.cls-5{stroke-width:3px;}.cls-6{fill:#1b1464;}</style></defs><g><g><path class="cls-11" d="M486.44,978.13c-13.85,0-27.61-2.56-36.81-6.85-18.19-8.48-33.77-38.31-33.77-56.78,0-38.32,31.18-69.5,69.5-69.5s69.5,31.18,69.5,69.5c0,17.79-15.11,47.11-33.88,56.84-8.46,4.38-20.72,6.79-34.54,6.79h0Z"/><path d="M485.37,848c36.67,0,66.5,29.83,66.5,66.5,0,8.49-3.63,19.84-9.71,30.35-6.37,11.01-14.59,19.7-22.55,23.82-7.92,4.1-20.01,6.46-33.16,6.46s-26.72-2.46-35.54-6.57c-7.78-3.63-15.92-12.13-22.31-23.31-6.09-10.64-9.72-22.14-9.72-30.75,0-36.67,29.83-66.5,66.5-66.5m0-6h0c-40.04,0-72.5,32.46-72.5,72.5,0,19.61,16.2,50.5,35.5,59.5,9.9,4.62,24.05,7.13,38.08,7.13s26.53-2.26,35.92-7.13c19.3-10,35.5-39.89,35.5-59.5,0-40.04-32.46-72.5-72.5-72.5h0Z"/></g><g><path class="cls-11" d="M478.87,911c-26.19,0-47.5-21.31-47.5-47.5s21.31-47.5,47.5-47.5h13c26.19,0,47.5,21.31,47.5,47.5s-21.31,47.5-47.5,47.5h-13Z"/><path d="M491.87,819c24.54,0,44.5,19.96,44.5,44.5s-19.96,44.5-44.5,44.5h-13c-24.54,0-44.5-19.96-44.5-44.5s19.96-44.5,44.5-44.5h13m0-6h-13c-27.89,0-50.5,22.61-50.5,50.5s22.61,50.5,50.5,50.5h13c27.89,0,50.5-22.61,50.5-50.5s-22.61-50.5-50.5-50.5h0Z"/></g></g><path class="cls-4" d="M410.06,750.45c74.75,110.54,152.1,117.54,232.59,0,22.96-43.4,34.51-79.36,0-85.31,0-50.85-232.59-50.85-232.59,0-17.75,18.29-18.63,46.22,0,85.31Z"/><g><path class="cls-9" d="M581.52,970c-20.13,0-36.5-20.07-36.5-44.73v-123.27h73v123.27c0,24.66-16.37,44.73-36.5,44.73Z"/><path d="M615.02,805v120.27c0,23.01-15.03,41.73-33.5,41.73s-33.5-18.72-33.5-41.73v-120.27h67m6-6h-79v126.27c0,26.36,17.68,47.73,39.5,47.73s39.5-21.37,39.5-47.73v-126.27h0Z"/></g><g><path class="cls-9" d="M482.41,898c-19.18,0-34.79-15.61-34.79-34.79v-88.21h73v88.21c0,19.18-15.61,34.79-34.79,34.79h-3.42Z"/><path d="M517.62,778v85.21c0,17.53-14.26,31.79-31.79,31.79h-3.42c-17.53,0-31.79-14.26-31.79-31.79v-85.21h67m6-6h-79v91.21c0,20.87,16.92,37.79,37.79,37.79h3.42c20.87,0,37.79-16.92,37.79-37.79v-91.21h0Z"/></g><rect class="cls-2" x="445.42" y="622" width="174" height="224" rx="41.43" ry="41.43"/><g><path class="cls-9" d="M712.14,754.98c-30.55-32.98-67.25-49.69-109.15-49.69-6.22,0-12.65,.37-19.15,1.1l20.68-54.69c5.56-.52,11.07-.78,16.43-.78,42.91,0,79.53,16.15,111.88,49.35l-20.69,54.71Z"/><path d="M620.95,653.92c20.59,0,40.13,3.96,58.07,11.78,17.85,7.78,34.77,19.65,50.33,35.3l-18.32,48.44c-30.47-31.3-66.77-47.16-108.03-47.16-4.78,0-9.68,.21-14.64,.64l18.31-48.4c4.83-.4,9.63-.6,14.29-.6m0-6c-6.13,0-12.32,.33-18.58,.98l-23.1,61.09c8.05-1.12,15.97-1.69,23.72-1.69,41.44,0,78.48,16.32,110.22,52.35l23.1-61.09c-34.56-36.09-73.37-51.63-115.36-51.63h0Z"/></g><g><g><path class="cls-7" d="M841.18,774.55c-3.09,0-6.05-1.15-8.33-3.24l-29.72-27.26c-2.43-2.23-3.84-5.26-3.99-8.56-.14-3.29,1.01-6.44,3.23-8.87,2.33-2.54,5.64-4,9.09-4,3.09,0,6.05,1.15,8.33,3.24l29.72,27.26c5.01,4.6,5.35,12.42,.75,17.43-2.33,2.54-5.64,4-9.09,4Z"/><path d="M811.46,719.62v6c2.34,0,4.58,.87,6.3,2.45l.49,.45,28.74,26.36,.49,.45c1.84,1.68,2.91,3.98,3.02,6.48,.11,2.49-.76,4.87-2.45,6.71-1.79,1.95-4.23,3.02-6.88,3.02-2.34,0-4.58-.87-6.3-2.45l-.49-.45-28.74-26.36-.49-.45c-1.84-1.69-2.91-3.98-3.02-6.48-.11-2.49,.76-4.87,2.45-6.71,1.79-1.95,4.23-3.02,6.88-3.02v-6m0,0c-4.15,0-8.28,1.67-11.3,4.97h0c-5.72,6.24-5.3,15.94,.94,21.66l.49,.45,28.74,26.36,.49,.45c2.94,2.7,6.66,4.03,10.36,4.03,4.15,0,8.28-1.67,11.3-4.97h0c5.72-6.24,5.3-15.94-.94-21.66l-.49-.45-28.74-26.36-.49-.45c-2.94-2.7-6.66-4.03-10.36-4.03h0Z"/></g><g><path class="cls-7" d="M848.86,752.56c-.69,0-1.38-.06-2.06-.17l-39.78-6.69c-3.25-.55-6.09-2.32-8-5.01-1.91-2.68-2.66-5.95-2.12-9.2,1-5.96,6.11-10.29,12.14-10.29,.69,0,1.38,.06,2.06,.17l39.78,6.69c3.25,.55,6.09,2.32,8,5.01,1.91,2.68,2.66,5.95,2.12,9.2-1,5.96-6.11,10.29-12.14,10.29Z"/><path d="M809.05,718.2v6c.52,0,1.05,.04,1.57,.13l.66,.11,38.46,6.47,.66,.11c5.08,.85,8.51,5.68,7.66,10.75-.76,4.51-4.62,7.79-9.19,7.79-.52,0-1.05-.04-1.57-.13l-.66-.11-38.46-6.47-.66-.11c-2.46-.41-4.61-1.76-6.05-3.79-1.45-2.03-2.02-4.5-1.6-6.96,.76-4.51,4.62-7.79,9.19-7.79v-6m0,0c-7.35,0-13.84,5.3-15.1,12.79-1.4,8.35,4.23,16.26,12.58,17.66l.66,.11,38.46,6.47,.66,.11c.86,.14,1.72,.21,2.56,.21,7.35,0,13.84-5.3,15.1-12.79h0c1.4-8.35-4.23-16.26-12.58-17.66l-.66-.11-38.46-6.47-.66-.11c-.86-.14-1.72-.21-2.56-.21h0Z"/></g><g><path class="cls-7" d="M756.44,777.07c-4.54,0-9.24-.67-13.96-2l-.15-.04c-7.19-1.62-12.09-7.18-10.91-12.38l11.99-53.22c.92-4.09,5.55-6.95,11.25-6.95,1.3,0,2.61,.15,3.92,.44l.14,.03,.14,.02c19.71,2.51,37.67,8.18,53.37,16.86l1,.55,34.47-7.76c.9-.2,1.81-.3,2.72-.3,5.71,0,10.76,4.05,12.02,9.63,1.49,6.64-2.69,13.25-9.33,14.74l-39.35,8.85c-.87,.2-1.77,.29-2.66,.29-.63,0-1.28-.05-1.91-.15l-1.74-.27-1.08,1.39c-15.83,20.36-32.16,30.26-49.91,30.26Z"/><path d="M754.65,705.48h0c1.07,0,2.17,.12,3.26,.37l.28,.06,.28,.04c19.34,2.46,36.93,8.01,52.29,16.51l2,1.1,2.22-.5,32.71-7.36,.65-.15c.68-.15,1.38-.23,2.06-.23,4.32,0,8.14,3.06,9.09,7.29,1.13,5.02-2.04,10.02-7.06,11.15l-.65,.15-38.05,8.56-.65,.15c-.66,.15-1.33,.22-2.01,.22-.48,0-.97-.04-1.46-.11l-3.49-.54-2.16,2.78c-15.23,19.58-30.78,29.1-47.54,29.1-4.26,0-8.69-.64-13.15-1.89l-.15-.04-.15-.03c-2.93-.66-5.54-2.17-7.17-4.13-.74-.9-1.92-2.7-1.48-4.67l11.99-53.22c.6-2.67,4.1-4.61,8.33-4.61m0-6c-6.98,0-12.91,3.66-14.18,9.29l-11.99,53.22c-1.54,6.83,4.36,13.98,13.18,15.97,5.07,1.42,9.99,2.11,14.78,2.11,19.46,0,36.71-11.4,52.27-31.42,.78,.12,1.57,.18,2.37,.18,1.1,0,2.21-.12,3.32-.37l.65-.15,38.05-8.56,.65-.15c8.26-1.86,13.45-10.06,11.59-18.33-1.6-7.13-7.93-11.97-14.95-11.97-1.11,0-2.25,.12-3.38,.38l-.65,.15-32.71,7.36c-16.52-9.13-34.75-14.7-54.44-17.21-1.55-.35-3.09-.52-4.58-.52h0Z"/></g><g><path class="cls-7" d="M722.13,784.04c-2.41,0-4.79-.44-7.07-1.3-10.32-3.9-15.53-15.47-11.63-25.78l24.05-63.6c2.93-7.74,10.44-12.93,18.71-12.93,2.41,0,4.79,.44,7.07,1.3,5,1.89,8.96,5.61,11.16,10.48,2.2,4.87,2.37,10.3,.48,15.3l-24.05,63.6c-2.93,7.74-10.45,12.93-18.71,12.93Z"/><path d="M746.19,683.42h0c2.05,0,4.07,.37,6.01,1.11,4.25,1.61,7.61,4.77,9.48,8.91,1.87,4.14,2.01,8.76,.41,13l-24.05,63.6c-2.49,6.58-8.88,10.99-15.9,10.99-2.05,0-4.07-.37-6.01-1.11-4.25-1.61-7.61-4.77-9.48-8.91-1.87-4.14-2.01-8.76-.41-13.01l24.05-63.6c2.49-6.57,8.88-10.99,15.91-10.99m0-6c-9.29,0-18.04,5.67-21.52,14.87l-24.05,63.6c-4.49,11.88,1.5,25.16,13.38,29.65,2.68,1.01,5.43,1.49,8.13,1.49,9.29,0,18.04-5.67,21.52-14.87l24.05-63.6c4.49-11.88-1.5-25.16-13.38-29.65-2.68-1.01-5.43-1.49-8.13-1.49h0Z"/></g><g><path class="cls-7" d="M807.41,799.31c-3.01,0-5.91-1.1-8.17-3.1l-30.2-26.73c-5.09-4.51-5.57-12.32-1.06-17.41,2.34-2.64,5.71-4.16,9.24-4.16,3.01,0,5.91,1.1,8.17,3.1l30.21,26.73c5.09,4.5,5.57,12.31,1.06,17.41-2.34,2.64-5.71,4.16-9.24,4.16Z"/><path d="M777.22,750.91h0c2.28,0,4.47,.83,6.18,2.34l.5,.44,29.21,25.85,.5,.44c3.85,3.41,4.21,9.32,.8,13.18-1.77,2-4.32,3.15-7,3.15-2.28,0-4.47-.83-6.18-2.34l-.5-.44-29.21-25.85-.5-.44c-1.87-1.65-2.98-3.93-3.13-6.42-.15-2.49,.67-4.89,2.33-6.75,1.77-2,4.32-3.15,7-3.15m0-6c-4.24,0-8.46,1.75-11.49,5.17h0c-5.61,6.34-5.02,16.03,1.32,21.64l.5,.44,29.21,25.85,.5,.44c2.92,2.58,6.54,3.85,10.16,3.85,4.24,0,8.46-1.75,11.49-5.17,5.61-6.34,5.02-16.03-1.32-21.64l-.5-.44-29.21-25.85-.5-.44c-2.92-2.58-6.54-3.85-10.16-3.85h0Z"/></g></g><g><path class="cls-9" d="M347.17,700.27c32.35-33.2,68.97-49.35,111.88-49.35,5.35,0,10.87,.26,16.43,.78l20.68,54.69c-6.51-.73-12.93-1.1-19.15-1.1-41.9,0-78.6,16.71-109.15,49.69l-20.69-54.71Z"/><path d="M459.05,653.92c4.66,0,9.45,.2,14.28,.6l18.31,48.4c-4.96-.42-9.86-.64-14.64-.64-41.26,0-77.56,15.86-108.03,47.16l-18.32-48.44c15.56-15.66,32.47-27.52,50.33-35.3,17.94-7.82,37.48-11.78,58.07-11.78h0m0-6c-41.99,0-80.8,15.54-115.36,51.63l23.1,61.09c31.74-36.03,68.78-52.35,110.22-52.35,7.75,0,15.67,.57,23.72,1.69l-23.1-61.09c-6.26-.65-12.45-.98-18.58-.98h0Z"/></g><g><g><path class="cls-7" d="M238.82,774.55c-3.45,0-6.76-1.46-9.09-4-4.6-5.01-4.26-12.83,.75-17.42l29.73-27.26c2.28-2.09,5.24-3.25,8.33-3.25,3.45,0,6.76,1.46,9.09,4,2.23,2.43,3.38,5.58,3.23,8.87-.14,3.29-1.56,6.33-3.99,8.56l-29.72,27.26c-2.28,2.09-5.24,3.25-8.33,3.25h0Z"/><path d="M268.54,725.62c2.65,0,5.09,1.07,6.88,3.03,1.68,1.84,2.55,4.22,2.45,6.71-.11,2.49-1.18,4.79-3.02,6.48l-.49,.45-28.74,26.36-.49,.45c-1.73,1.58-3.97,2.45-6.3,2.45-2.65,0-5.09-1.07-6.88-3.02-1.69-1.84-2.55-4.22-2.45-6.71s1.18-4.79,3.02-6.48l.49-.45,28.74-26.36,.49-.45c1.73-1.58,3.97-2.45,6.3-2.45m0-6c-3.7,0-7.42,1.33-10.36,4.03l-.49,.45-28.74,26.36-.49,.45c-6.24,5.72-6.66,15.42-.94,21.66h0c3.02,3.3,7.16,4.97,11.3,4.97,3.7,0,7.42-1.33,10.36-4.03l.49-.45,28.74-26.36,.49-.45c6.24-5.72,6.66-15.42,.94-21.66h0c-3.02-3.3-7.16-4.97-11.3-4.97h0Z"/></g><g><path class="cls-7" d="M231.14,752.56c-6.03,0-11.14-4.33-12.14-10.29-.55-3.25,.21-6.52,2.12-9.2,1.91-2.68,4.75-4.46,8-5.01l39.78-6.69c.68-.12,1.38-.17,2.06-.17,6.03,0,11.14,4.33,12.14,10.29,.55,3.25-.21,6.52-2.12,9.2-1.91,2.68-4.75,4.46-8,5.01l-39.78,6.69c-.68,.12-1.38,.17-2.06,.17h0Z"/><path d="M270.95,724.2c4.56,0,8.43,3.28,9.19,7.79,.41,2.46-.16,4.93-1.6,6.96-1.45,2.03-3.6,3.38-6.06,3.79l-.66,.11-38.46,6.47-.66,.11c-.52,.09-1.05,.13-1.57,.13-4.56,0-8.43-3.28-9.19-7.79-.85-5.08,2.58-9.9,7.66-10.75l.66-.11,38.46-6.47,.66-.11c.52-.09,1.05-.13,1.57-.13m0-6c-.84,0-1.7,.07-2.56,.21l-.66,.11-38.46,6.47-.66,.11c-8.35,1.4-13.98,9.31-12.58,17.66h0c1.26,7.49,7.75,12.79,15.1,12.79,.84,0,1.7-.07,2.56-.21l.66-.11,38.46-6.47,.66-.11c8.35-1.4,13.98-9.31,12.58-17.66-1.26-7.49-7.75-12.79-15.1-12.79h0Z"/></g><g><path class="cls-7" d="M323.56,777.07c-17.75,0-34.07-9.9-49.91-30.26l-1.08-1.39-1.74,.27c-.64,.1-1.28,.15-1.91,.15-.9,0-1.79-.1-2.66-.29l-39.35-8.85c-3.21-.72-5.95-2.66-7.72-5.44-1.76-2.78-2.33-6.09-1.61-9.3,1.25-5.58,6.31-9.63,12.02-9.63,.91,0,1.83,.1,2.72,.3l34.47,7.76,1-.55c15.7-8.68,33.65-14.35,53.37-16.86l.14-.02,.14-.03c1.3-.29,2.62-.44,3.92-.44,5.7,0,10.33,2.86,11.25,6.95l11.99,53.22c1.17,5.21-3.72,10.76-10.91,12.38l-.15,.04c-4.73,1.33-9.43,2-13.96,2h0Z"/><path d="M325.35,705.48c4.22,0,7.72,1.94,8.33,4.61l11.99,53.22c.44,1.96-.74,3.77-1.48,4.66-1.62,1.97-4.24,3.47-7.17,4.13l-.15,.03-.15,.04c-4.46,1.25-8.89,1.89-13.15,1.89-16.76,0-32.31-9.52-47.54-29.1l-2.16-2.78-3.49,.54c-.49,.07-.98,.11-1.46,.11-.68,0-1.35-.07-2-.22l-.65-.15-38.05-8.56-.65-.15c-5.02-1.13-8.19-6.13-7.06-11.15,.95-4.22,4.77-7.29,9.09-7.29,.69,0,1.38,.08,2.06,.23l.65,.15,32.71,7.36,2.22,.5,2-1.1c15.36-8.49,32.96-14.04,52.29-16.51l.28-.04,.28-.06c1.09-.24,2.18-.37,3.26-.37m0-6c-1.49,0-3.03,.17-4.58,.52-19.69,2.51-37.91,8.07-54.44,17.21l-32.71-7.36-.65-.15c-1.13-.25-2.27-.38-3.38-.38-7.01,0-13.34,4.84-14.95,11.97-1.86,8.26,3.33,16.47,11.59,18.33l.65,.15,38.05,8.56,.65,.15c1.11,.25,2.23,.37,3.32,.37,.8,0,1.59-.06,2.37-.18,15.56,20.02,32.81,31.42,52.27,31.42,4.79,0,9.71-.69,14.78-2.11,8.82-1.99,14.72-9.14,13.18-15.97l-11.99-53.22c-1.27-5.63-7.2-9.29-14.18-9.29h0Z"/></g><g><path class="cls-7" d="M357.87,784.04c-8.27,0-15.79-5.2-18.71-12.93l-24.05-63.6c-1.89-5-1.72-10.43,.48-15.3,2.2-4.87,6.16-8.59,11.16-10.48,2.28-.86,4.66-1.3,7.07-1.3,8.27,0,15.79,5.2,18.71,12.93l24.05,63.6c3.9,10.31-1.32,21.88-11.63,25.78-2.28,.86-4.66,1.3-7.07,1.3h0Z"/><path d="M333.81,683.42c7.03,0,13.42,4.42,15.9,10.99l24.05,63.6c1.61,4.25,1.46,8.87-.41,13-1.87,4.14-5.23,7.3-9.48,8.91-1.94,.73-3.96,1.11-6.01,1.11-7.03,0-13.42-4.42-15.9-10.99l-24.05-63.6c-1.61-4.25-1.46-8.87,.41-13,1.87-4.14,5.23-7.3,9.48-8.91,1.94-.73,3.96-1.11,6.01-1.11m0-6c-2.7,0-5.45,.48-8.13,1.49-11.88,4.49-17.87,17.77-13.38,29.65l24.05,63.6c3.48,9.2,12.23,14.87,21.52,14.87,2.7,0,5.45-.48,8.13-1.49,11.88-4.49,17.87-17.77,13.38-29.65l-24.05-63.6c-3.48-9.2-12.23-14.87-21.52-14.87h0Z"/></g><g><path class="cls-7" d="M272.59,799.31c-3.53,0-6.9-1.52-9.24-4.16-4.51-5.09-4.03-12.9,1.06-17.41l30.2-26.73c2.26-2,5.16-3.1,8.17-3.1,3.53,0,6.9,1.52,9.24,4.16,4.51,5.09,4.03,12.9-1.06,17.41l-30.21,26.73c-2.25,2-5.16,3.1-8.17,3.1h0Z"/><path d="M302.78,750.91h0c2.67,0,5.22,1.15,7,3.15,1.65,1.87,2.48,4.27,2.33,6.75-.15,2.49-1.26,4.77-3.13,6.42l-.5,.44-29.21,25.85-.5,.44c-1.71,1.51-3.9,2.34-6.18,2.34-2.67,0-5.22-1.15-7-3.15-3.41-3.85-3.05-9.76,.8-13.17l.5-.44,29.21-25.85,.5-.44c1.71-1.51,3.9-2.34,6.18-2.34m0-6c-3.61,0-7.24,1.27-10.16,3.85l-.5,.44-29.21,25.85-.5,.44c-6.34,5.61-6.93,15.3-1.32,21.64,3.03,3.42,7.25,5.17,11.49,5.17,3.61,0,7.24-1.27,10.16-3.85l.5-.44,29.21-25.85,.5-.44c6.34-5.61,6.93-15.3,1.32-21.64h0c-3.03-3.42-7.25-5.17-11.49-5.17h0Z"/></g></g><g><g><path class="cls-11" d="M569.87,974c-23.43,0-42.5-19.07-42.5-42.5s19.07-42.5,42.5-42.5h23c23.43,0,42.5,19.07,42.5,42.5s-19.07,42.5-42.5,42.5h-23Z"/><path d="M592.87,892c21.78,0,39.5,17.72,39.5,39.5s-17.72,39.5-39.5,39.5h-23c-21.78,0-39.5-17.72-39.5-39.5s17.72-39.5,39.5-39.5h23m0-6h-23c-25.13,0-45.5,20.37-45.5,45.5s20.37,45.5,45.5,45.5h23c25.13,0,45.5-20.37,45.5-45.5s-20.37-45.5-45.5-45.5h0Z"/></g><g><path class="cls-11" d="M582.44,1067c-13.78,0-27.48-3.02-36.62-8.08-18.29-10.11-33.95-45.81-33.95-67.94,0-45.76,31.18-82.98,69.5-82.98s69.5,37.22,69.5,82.98c0,21.32-15.2,56.41-34.07,68.01-8.41,5.17-20.61,8.01-34.35,8.01h0Z"/><path d="M581.37,911c36.67,0,66.5,35.88,66.5,79.98,0,10.4-3.7,24.21-9.91,36.92-6.44,13.21-14.73,23.61-22.74,28.53-7.83,4.81-19.78,7.57-32.78,7.57s-26.45-2.88-35.17-7.71c-7.82-4.32-16.01-14.5-22.49-27.92-6.21-12.88-9.92-26.85-9.92-37.39,0-44.1,29.83-79.98,66.5-79.98m0-6h0c-40.04,0-72.5,38.49-72.5,85.98,0,23.25,16.2,59.89,35.5,70.56,9.9,5.48,24.05,8.46,38.08,8.46s26.53-2.68,35.92-8.46c19.3-11.86,35.5-47.31,35.5-70.56,0-47.49-32.46-85.98-72.5-85.98h0Z"/></g><g><path class="cls-11" d="M582.44,1067c-13.84,0-27.59-2.65-36.77-7.08-18.21-8.79-33.8-39.72-33.8-58.88,0-39.72,31.18-72.04,69.5-72.04s69.5,32.32,69.5,72.04c0,18.46-15.13,48.86-33.92,58.94-8.45,4.53-20.7,7.02-34.5,7.02h0Z"/><path d="M581.37,932c36.67,0,66.5,30.97,66.5,69.04,0,8.86-3.65,20.67-9.75,31.59-6.38,11.42-14.62,20.43-22.59,24.7-7.9,4.24-19.96,6.67-33.09,6.67s-26.67-2.54-35.47-6.78c-7.79-3.76-15.93-12.57-22.34-24.17-6.11-11.06-9.76-23.03-9.76-32.01,0-38.07,29.83-69.04,66.5-69.04m0-6h0c-40.04,0-72.5,33.6-72.5,75.04h0c0,20.29,16.2,52.27,35.5,61.58,9.9,4.78,24.05,7.38,38.08,7.38s26.53-2.34,35.92-7.38c19.3-10.35,35.5-41.29,35.5-61.58h0c0-41.44-32.46-75.04-72.5-75.04h0Z"/></g><g><path class="cls-11" d="M582.44,1067c-13.9,0-27.7-2.29-36.93-6.12-18.12-7.53-33.65-33.93-33.65-50.26,0-33.98,31.18-61.62,69.5-61.62s69.5,27.64,69.5,61.62c0,15.72-15.06,41.67-33.76,50.31-8.49,3.92-20.8,6.08-34.66,6.08h0Z"/><path d="M581.37,952c36.67,0,66.5,26.29,66.5,58.62,0,7.36-3.57,17.25-9.55,26.46-6.33,9.75-14.52,17.45-22.47,21.12-7.98,3.69-20.16,5.8-33.41,5.8s-26.89-2.2-35.77-5.9c-16.83-6.99-31.8-32.38-31.8-47.49,0-32.32,29.83-58.62,66.5-58.62m0-6h0c-40.04,0-72.5,28.93-72.5,64.62h0c0,17.47,16.2,45.01,35.5,53.03,9.9,4.12,24.05,6.35,38.08,6.35s26.53-2.02,35.92-6.35c19.3-8.91,35.5-35.56,35.5-53.03h0c0-35.69-32.46-64.62-72.5-64.62h0Z"/></g></g><g><g><path class="cls-8" d="M525.76,657.17c-50.07-41.25-86.04-41.26-101.51-41.26-1.42,0-2.77,.01-4.06,.02-1.15,0-2.25,.02-3.3,.02-10.94,0-12.73-1.19-12.73-8.46,0-12.83,12.63-25.61,34.65-35.07,23.15-9.95,53.99-15.43,86.85-15.43s63.7,5.48,86.85,15.43c22.02,9.46,34.65,22.25,34.65,35.07,0,9.03-3.13,9.5-17.91,10.23-20.33,1.01-54.17,2.69-103.5,39.44Z"/><path d="M525.67,559.99c32.46,0,62.88,5.39,85.67,15.18,20.87,8.97,32.83,20.75,32.83,32.32,0,4.66-1.13,5.21-1.8,5.54-2.33,1.15-7.4,1.4-13.26,1.69-19.07,.95-54.15,2.69-103.25,38.64-49.96-40.46-86-40.46-101.6-40.46-1.43,0-2.79,.01-4.08,.02-1.14,0-2.24,.02-3.28,.02-2.32,0-7.16,0-8.75-.94-.91-.54-.98-3.59-.98-4.52,0-11.57,11.97-23.35,32.83-32.32,22.78-9.79,53.21-15.18,85.67-15.18m0-6c-68.76,0-124.5,23.95-124.5,53.5,0,10.54,5.22,11.46,15.73,11.46,2.22,0,4.67-.04,7.36-.04,20.28,0,53.99,2.32,101.41,42.08,84.5-64,124.5-23.95,124.5-53.5s-55.74-53.5-124.5-53.5h0Z"/></g><ellipse cx="525.67" cy="667.49" rx="70.5" ry="40.5"/><path class="cls-4" d="M452.13,708.86c27.98,23.56,50.19,33.13,78.37,33.13,28.18,0,51.02-21.8,51.02-48.7s-31.05-31.01-56.86-41.8c-38.4-16.06-78.17-35.81-84.11-33-13.37,6.32-10.52,17.07-33.66,23.09-23.14,6.02-19.26,22.2-12.62,34.14,6.67,12,22.09,3.01,57.86,33.13Z"/><path class="cls-4" d="M517.74,645.49c-27.32-23.11,10.44-56.47-49.13-85.45-39.79,8.93-66.96,26.83-66.96,47.45,0,27.96,35.81-6.39,111.25,44.05l5.01,3.18,6.24-2.82-6.41-6.42Z"/><g><path class="cls-8" d="M514.15,661.35c.99-.91,2.59-2.21,5.18-3.96,28.32-11.55,29.01-27.87,29.69-43.65,.72-16.78,1.46-34.12,34.56-50.54,38.67,8.88,63.59,26.21,63.59,44.29,0,9.03-3.13,9.5-17.91,10.23-20.57,1.02-54.99,2.74-105.28,40.78-2.25,1.34-6.68,2.59-9.83,2.84Z"/><path d="M583.95,566.37c18.2,4.28,33.46,10.46,44.24,17.94,7.29,5.06,15.98,13.19,15.98,23.18,0,4.66-1.13,5.21-1.8,5.54-2.33,1.15-7.4,1.4-13.26,1.69-16.26,.81-44.17,2.19-82.48,24.88,4.64-8.4,5.03-17.36,5.39-25.74,.71-16.47,1.37-32.04,31.94-47.5m-.75-6.33c-68.08,33.12-9.04,71.95-65.3,94.68-10.85,7.29-9.4,9.67-4.81,9.67,3.76,0,9.63-1.6,12.56-3.4,84.5-64,124.5-23.95,124.5-53.5,0-20.63-27.17-38.52-66.96-47.45h0Z"/></g><path class="cls-4" d="M609.5,708.86c-26.67,23.56-47.84,33.13-74.7,33.13s-48.63-21.8-48.63-48.7,24.03-37.9,48.63-48.7c36.6-16.06,80.07-28.91,85.73-26.11,12.75,6.32,10.03,17.07,32.09,23.09,22.06,6.02,18.36,22.2,12.03,34.14-6.36,12-21.06,3.01-55.15,33.13Z"/><g><g><path class="cls-10" d="M531.33,731c-19.76,0-35.83-16.07-35.83-35.83s16.07-35.83,35.83-35.83,35.83,16.08,35.83,35.83-16.07,35.83-35.83,35.83Z"/><path d="M531.33,662.33c18.1,0,32.83,14.73,32.83,32.83s-14.73,32.83-32.83,32.83-32.83-14.73-32.83-32.83,14.73-32.83,32.83-32.83m0-6c-21.45,0-38.83,17.39-38.83,38.83s17.39,38.83,38.83,38.83,38.83-17.39,38.83-38.83-17.39-38.83-38.83-38.83h0Z"/></g><g><circle class="cls-10" cx="531.33" cy="695.17" r="25.53"/><path d="M531.33,672.63c12.43,0,22.53,10.11,22.53,22.53s-10.11,22.53-22.53,22.53-22.53-10.11-22.53-22.53,10.11-22.53,22.53-22.53m0-6c-15.76,0-28.53,12.77-28.53,28.53s12.77,28.53,28.53,28.53,28.53-12.77,28.53-28.53-12.77-28.53-28.53-28.53h0Z"/></g><g><path class="cls-10" d="M531.85,728.8c-.41,0-1.43-.12-1.92-1.26l-9.06-20.67c-.7-1.59-1.86-2.89-3.37-3.76l-10.61-6.13c-.95-.55-1.05-1.45-1.05-1.82s.1-1.27,1.05-1.82l10.61-6.13c1.5-.87,2.67-2.17,3.37-3.76l9.06-20.68c.5-1.13,1.51-1.26,1.92-1.26s1.43,.12,1.92,1.26l9.42,21.48c.7,1.59,1.86,2.89,3.37,3.76l9.21,5.32c.95,.55,1.05,1.45,1.05,1.82s-.1,1.27-1.05,1.82l-9.21,5.32c-1.5,.87-2.67,2.17-3.37,3.76l-9.42,21.48c-.5,1.13-1.51,1.26-1.92,1.26Z"/><path d="M531.85,665.87l4.24,9.67,4.35,9.93c.96,2.18,2.55,3.96,4.62,5.16l7.86,4.54-7.86,4.54c-2.06,1.19-3.66,2.97-4.62,5.16l-4.35,9.93-4.24,9.67-4.24-9.67-4-9.12c-.96-2.18-2.55-3.96-4.61-5.16l-1.4-.81-7.86-4.54,7.86-4.54,1.4-.81c2.06-1.19,3.66-2.97,4.62-5.16l4-9.12,4.24-9.67m0-7.34c-1.89,0-3.78,1.02-4.67,3.05l-5.06,11.55-4,9.12c-.44,1-1.18,1.83-2.12,2.37l-1.4,.81-9.21,5.32c-3.4,1.96-3.4,6.87,0,8.83l9.21,5.32,1.4,.81c.94,.54,1.68,1.37,2.12,2.37l4,9.12,5.06,11.55c.89,2.03,2.78,3.05,4.67,3.05s3.78-1.02,4.67-3.05l5.06-11.55,4.35-9.93c.44-1,1.18-1.83,2.12-2.37l9.21-5.32c3.4-1.96,3.4-6.87,0-8.83l-9.21-5.32c-.94-.54-1.68-1.37-2.12-2.37l-4.35-9.93-5.06-11.55c-.89-2.03-2.78-3.05-4.67-3.05h0Z"/></g></g></g><g><path class="cls-6" d="M829.12,484.24h1.27c-37.48-69.28-90.15-118.44-155.35-151H375.04c-65.28,37.24-115.97,88.39-154.65,151h1.42c-.93,1.32-1.42,2.65-1.42,4,0,22.92,136.55,41.5,305,41.5s305-18.58,305-41.5c0-2.03-1.09-4.02-3.16-5.98,.78,.65,1.42,1.31,1.89,1.98Z"/><g><g><path class="cls-7" d="M413.55,314h224.73c17.18,0,31.13,13.95,31.13,31.13v224.73c0,17.18-13.95,31.14-31.14,31.14h-224.73c-17.18,0-31.13-13.95-31.13-31.13v-224.73c0-17.18,13.95-31.13,31.13-31.13Z"/><path d="M638.28,317c15.51,0,28.14,12.62,28.14,28.14v224.73c0,15.51-12.62,28.14-28.14,28.14h-224.73c-15.51,0-28.14-12.62-28.14-28.14v-224.73c0-15.51,12.62-28.14,28.14-28.14h224.73m0-6h-224.73c-18.85,0-34.14,15.28-34.14,34.14v224.73c0,18.85,15.28,34.14,34.14,34.14h224.73c18.85,0,34.14-15.28,34.14-34.14v-224.73c0-18.85-15.28-34.14-34.14-34.14h0Z"/></g><g><path d="M617.52,506.17l18.8-10.85c-4.41-17.88-20.55-31.15-39.8-31.15-22.64,0-41,18.36-41,41s18.36,41,41,41c18.62,0,34.33-12.42,39.33-29.42l-18.33-10.58Z"/><path d="M477.52,506.17l18.8-10.85c-4.41-17.88-20.55-31.15-39.8-31.15-22.64,0-41,18.36-41,41s18.36,41,41,41c18.62,0,34.33-12.42,39.33-29.42l-18.33-10.58Z"/></g></g><g><polygon class="cls-1" points="381.64 228.76 381.64 180.42 339.78 156.26 297.93 180.42 297.93 228.76 339.78 252.92 381.64 228.76"/><path class="cls-5" d="M340,156.13l-.07-.04-41.93,24.21-.07,.04v48.5l41.93,24.21,.07,.04,41.93-24.21,.07-.04v-48.5l-41.93-24.21Zm41.5,24.29l-41.57,24-41.57-24,41.57-24,41.57,24Zm-83.29,.25l41.57,24v48l-41.57-24v-48Zm41.86,72.01v-48l41.57-24v48l-41.57,24Z"/></g><g><path class="cls-9" d="M822.16,475.18c-12.3-5.91-35.71-11.82-73.43-18.71-1.56-1.32-4.69-3.52-11-7.96-6.01-4.23-14.4-10.06-24.91-17.33-17.89-12.37-36.01-24.78-36.19-24.9l-5.46-3.74,.78,6.57c2.77,23.24,4,33.61,4.57,38.28-38.17-2.45-99.45-4.14-150.98-4.14-76.46,0-149.64,3.86-206.06,10.88-31.98,3.98-70.16,10.42-89.37,19.95,38.34-58.37,87.31-104.86,145.73-138.33h298.49c32.47,16.29,61.64,36.77,86.7,60.89,23.44,22.56,43.97,48.94,61.12,78.54Z"/><path d="M673.62,338.74c31.95,16.1,60.65,36.3,85.34,60.06,21.21,20.41,40.01,43.97,56.06,70.24-13.61-4.9-34.61-9.82-65.02-15.39-2-1.59-5.25-3.87-10.54-7.59-6.02-4.24-14.41-10.07-24.93-17.35-17.9-12.37-36.02-24.79-36.2-24.91l-10.91-7.47,1.56,13.13c2.2,18.49,3.44,28.86,4.14,34.71-38.4-2.33-97.57-3.92-147.57-3.92-76.58,0-149.89,3.87-206.43,10.9-27.68,3.44-50.33,7.5-67.32,12.06-5.08,1.36-9.59,2.75-13.56,4.17,16.21-23.58,34.22-45.17,53.73-64.38,25.2-24.81,53.69-46.42,84.69-64.26h296.98m1.42-6H375.04c-65.28,37.24-115.97,88.39-154.65,151h1.56c14.79-21.04,145.06-37.5,303.58-37.5,49.02,0,113.35,1.57,154.39,4.37-.03-.13-5-41.87-5-41.87,0,0,73,50,72.4,50.51,35.6,6.49,75.15,15.04,81.79,24.49h1.27c-37.48-69.28-90.15-118.44-155.35-151h0Zm4.89,117.87h0Z"/></g><g><path class="cls-8" d="M378.39,330.74v-56.08c0-12.64,10.28-22.92,22.92-22.92h248.15c12.64,0,22.92,10.28,22.92,22.92v56.08H378.39Z"/><path d="M649.47,254.74c10.99,0,19.92,8.94,19.92,19.92v53.08H381.39v-53.08c0-10.99,8.94-19.92,19.92-19.92h248.15m0-6h-248.15c-14.32,0-25.92,11.61-25.92,25.92v59.08h300v-59.08c0-14.32-11.61-25.92-25.92-25.92h0Z"/></g><path class="cls-2" d="M649.93,248.74h-249.07c39.5-119.81,9.34-149.44-60.43-103.5C388.43-17.76,603.43-2.76,649.93,248.74Z"/><g><g><circle class="cls-10" cx="478.76" cy="291.25" r="65.5"/><path d="M478.76,228.74c34.46,0,62.5,28.04,62.5,62.5s-28.04,62.5-62.5,62.5-62.5-28.04-62.5-62.5,28.04-62.5,62.5-62.5m0-6c-37.83,0-68.5,30.67-68.5,68.5s30.67,68.5,68.5,68.5,68.5-30.67,68.5-68.5-30.67-68.5-68.5-68.5h0Z"/></g><g><circle class="cls-10" cx="478.76" cy="291.25" r="47.33"/><path d="M478.76,246.91c24.45,0,44.33,19.89,44.33,44.33s-19.89,44.33-44.33,44.33-44.33-19.89-44.33-44.33,19.89-44.33,44.33-44.33m0-6c-27.8,0-50.33,22.53-50.33,50.33s22.53,50.33,50.33,50.33,50.33-22.53,50.33-50.33-22.53-50.33-50.33-50.33h0Z"/></g><g><path class="cls-10" d="M479.68,352.87c-2.45,0-4.5-1.34-5.49-3.59l-15.99-36.47c-1.03-2.36-2.76-4.28-4.99-5.57l-18.72-10.8c-1.88-1.08-3-3.02-3-5.19s1.12-4.11,3-5.19l18.72-10.81c2.23-1.29,3.95-3.21,4.99-5.57l15.99-36.47c.98-2.25,3.04-3.59,5.49-3.59s4.5,1.34,5.49,3.59l16.61,37.89c1.03,2.36,2.76,4.28,4.99,5.57l16.25,9.38c1.88,1.08,3,3.02,3,5.19s-1.12,4.11-3,5.19l-16.25,9.38c-2.23,1.29-3.95,3.21-4.99,5.57l-16.61,37.89c-.99,2.25-3.04,3.59-5.49,3.59Z"/><path d="M479.68,232.62c.59,0,2.03,.17,2.74,1.79l8.93,20.38,7.68,17.52c1.29,2.95,3.45,5.36,6.24,6.97l16.25,9.38c1.35,.78,1.5,2.07,1.5,2.59,0,.52-.15,1.81-1.5,2.59l-16.25,9.38c-2.79,1.61-4.94,4.02-6.24,6.96l-7.68,17.52-8.93,20.38c-.71,1.62-2.15,1.79-2.74,1.79s-2.03-.17-2.74-1.79l-8.93-20.38-7.05-16.09c-1.29-2.95-3.45-5.36-6.24-6.97l-2.47-1.42-16.25-9.38c-1.35-.78-1.5-2.07-1.5-2.59,0-.52,.15-1.81,1.5-2.59l16.25-9.38,2.47-1.42c2.79-1.61,4.94-4.02,6.24-6.97l7.05-16.09,8.93-20.38c.71-1.62,2.15-1.79,2.74-1.79m0-6c-3.33,0-6.66,1.79-8.24,5.38l-8.93,20.38-7.05,16.09c-.77,1.76-2.08,3.22-3.74,4.18l-2.47,1.42-16.25,9.38c-6,3.46-6,12.12,0,15.58l16.25,9.38,2.47,1.42c1.66,.96,2.97,2.42,3.74,4.18l7.05,16.09,8.93,20.38c1.57,3.59,4.91,5.38,8.24,5.38s6.66-1.79,8.24-5.38l8.93-20.38,7.68-17.52c.77-1.76,2.08-3.22,3.74-4.18h0l16.25-9.38c6-3.46,6-12.12,0-15.58l-16.25-9.38c-1.66-.96-2.97-2.42-3.74-4.18l-7.68-17.52-8.93-20.38c-1.57-3.59-4.91-5.38-8.24-5.38h0Z"/></g></g><circle class="cls-3" cx="339.93" cy="155.74" r="17.5"/></g></svg>