<?xml version="1.0" encoding="UTF-8"?><svg id="Front" xmlns="http://www.w3.org/2000/svg" viewBox="0 0 1080 1080"><defs><style>.cls-1,.cls-2,.cls-3,.cls-4,.cls-5,.cls-6{stroke:#000;stroke-miterlimit:10;}.cls-1,.cls-2,.cls-3,.cls-4,.cls-6{stroke-width:6px;}.cls-1,.cls-7,.cls-5{fill:#e6e6e6;}.cls-8,.cls-4{fill:#9e005d;}.cls-2,.cls-9{fill:#6c5cc4;}.cls-3,.cls-10{fill:#fbb03b;}.cls-11{fill:#736357;}.cls-5{stroke-width:3px;}.cls-6{fill:#1b1464;}</style></defs><g><g><path class="cls-11" d="M502.05,1067.13c-13.85,0-27.61-2.56-36.81-6.85-18.19-8.48-33.77-38.31-33.77-56.78,0-38.32,31.18-69.5,69.5-69.5s69.5,31.18,69.5,69.5c0,17.79-15.11,47.11-33.88,56.84-8.46,4.38-20.72,6.79-34.54,6.79h0Z"/><path d="M500.97,937c36.67,0,66.5,29.83,66.5,66.5,0,8.49-3.63,19.84-9.71,30.35-6.37,11.01-14.59,19.7-22.55,23.82-7.92,4.1-20.01,6.46-33.16,6.46s-26.72-2.46-35.54-6.57c-7.78-3.63-15.92-12.13-22.32-23.31-6.09-10.64-9.72-22.14-9.72-30.75,0-36.67,29.83-66.5,66.5-66.5m0-6c-40.04,0-72.5,32.46-72.5,72.5,0,19.61,16.2,50.5,35.5,59.5,9.9,4.62,24.05,7.13,38.08,7.13s26.53-2.26,35.92-7.13c19.3-10,35.5-39.89,35.5-59.5,0-40.04-32.46-72.5-72.5-72.5h0Z"/></g><g><path class="cls-11" d="M494.47,1000c-26.19,0-47.5-21.31-47.5-47.5s21.31-47.5,47.5-47.5h13c26.19,0,47.5,21.31,47.5,47.5s-21.31,47.5-47.5,47.5h-13Z"/><path d="M507.47,908c24.54,0,44.5,19.96,44.5,44.5s-19.96,44.5-44.5,44.5h-13c-24.54,0-44.5-19.96-44.5-44.5s19.96-44.5,44.5-44.5h13m0-6h-13c-27.89,0-50.5,22.61-50.5,50.5s22.61,50.5,50.5,50.5h13c27.89,0,50.5-22.61,50.5-50.5s-22.61-50.5-50.5-50.5h0Z"/></g></g><path class="cls-4" d="M424.67,750.45c74.75,110.54,152.1,117.54,232.59,0,22.96-43.4,34.51-79.36,0-85.31,0-50.85-232.59-50.85-232.59,0-17.75,18.29-18.63,46.22,0,85.31Z"/><g><path class="cls-9" d="M498.73,958c-20.13,0-36.5-13.15-36.5-29.32v-97.36c0-16.17,16.37-29.32,36.5-29.32s36.5,13.15,36.5,29.32v97.36c0,16.17-16.37,29.32-36.5,29.32Z"/><path d="M498.73,805c18.47,0,33.5,11.81,33.5,26.32v97.36c0,14.51-15.03,26.32-33.5,26.32s-33.5-11.81-33.5-26.32v-97.36c0-14.51,15.03-26.32,33.5-26.32m0-6h0c-21.82,0-39.5,14.47-39.5,32.32v97.36c0,17.85,17.68,32.32,39.5,32.32h0c21.82,0,39.5-14.47,39.5-32.32v-97.36c0-17.85-17.68-32.32-39.5-32.32h0Z"/></g><rect class="cls-2" x="460.03" y="622" width="174" height="224" rx="41.43" ry="41.43"/><g><path class="cls-9" d="M670.23,785.85c-7.89-50.99-34.5-88.66-79.15-112.06l47.74-33.76c43.99,24.06,69.91,60.75,79.18,112.04l-47.76,33.77Z"/><path d="M639,643.57c20.05,11.25,36.45,25.54,48.79,42.5,13.1,18.01,22.14,39.75,26.89,64.66l-42.29,29.9c-8.64-47.96-34.04-83.95-75.65-107.19l42.25-29.88m-.4-7.06l-53.33,37.71c46.34,22.7,75.37,60.39,82.67,116.92l53.33-37.71c-9.69-56.44-39.09-93.61-82.67-116.92h0Z"/></g><g><g><path class="cls-7" d="M731.12,893.77c-.76,0-1.52-.07-2.28-.21-3.24-.6-6.05-2.43-7.91-5.15s-2.56-6-1.95-9.23l7.39-39.65c1.09-5.84,6.18-10.08,12.11-10.08,.76,0,1.52,.07,2.28,.21,6.69,1.25,11.11,7.7,9.86,14.38l-7.39,39.65c-1.09,5.84-6.18,10.08-12.11,10.08Z"/><path d="M738.47,832.45h0c.57,0,1.16,.05,1.73,.16,2.45,.46,4.58,1.84,5.99,3.9,1.41,2.06,1.93,4.54,1.48,6.99l-.12,.65-7.15,38.34-.12,.66c-.82,4.42-4.68,7.63-9.16,7.63-.57,0-1.16-.05-1.73-.16-2.45-.46-4.58-1.84-5.99-3.9-1.41-2.06-1.93-4.54-1.48-6.99l.12-.65,7.15-38.34,.12-.65c.82-4.42,4.68-7.63,9.16-7.63m0-6c-7.24,0-13.68,5.15-15.06,12.53l-.12,.66-7.15,38.34-.12,.66c-1.55,8.32,3.94,16.33,12.26,17.88,.95,.18,1.89,.26,2.83,.26,7.24,0,13.68-5.15,15.06-12.53l.12-.66,7.15-38.34,.12-.66c1.55-8.32-3.94-16.33-12.26-17.88-.95-.18-1.89-.26-2.83-.26h0Z"/></g><g><path class="cls-7" d="M753.82,888.63c-5.02,0-9.49-3-11.41-7.63l-15.38-37.28c-1.26-3.05-1.25-6.4,.01-9.44,1.26-3.04,3.64-5.41,6.68-6.67,1.51-.62,3.09-.94,4.7-.94,5.02,0,9.49,3,11.41,7.63l15.38,37.28c2.59,6.29-.41,13.51-6.7,16.11-1.51,.62-3.09,.94-4.7,.94Z"/><path d="M738.42,829.67h0c3.8,0,7.19,2.27,8.63,5.78l.25,.62,14.88,36.05,.25,.62c1.96,4.76-.31,10.22-5.07,12.19-1.14,.47-2.34,.71-3.55,.71-3.8,0-7.19-2.27-8.63-5.78l-.25-.62-14.88-36.05-.25-.62c-.95-2.3-.95-4.84,0-7.14,.96-2.3,2.75-4.09,5.06-5.04,1.14-.47,2.34-.71,3.55-.71m0-6c-1.95,0-3.93,.37-5.84,1.16-7.83,3.23-11.56,12.19-8.33,20.02l.25,.62,14.88,36.05,.25,.62c2.44,5.91,8.16,9.49,14.18,9.49,1.95,0,3.93-.37,5.84-1.16,7.83-3.23,11.56-12.19,8.33-20.02l-.25-.62-14.88-36.05-.25-.62c-2.44-5.92-8.16-9.49-14.18-9.49h0Z"/></g><g><path class="cls-7" d="M767.85,881.69c-3.32,0-6.44-1.3-8.77-3.67l-28.35-28.7c-1.07-1.09-1.93-2.37-2.55-3.8l-.7-1.62-1.75-.18c-32.14-3.32-51.04-16.15-57.79-39.22l-.05-.15c-1.22-3.5-1.33-7.13-.3-10.21,.94-2.81,2.73-4.8,5.03-5.61l51.49-18c.75-.26,1.53-.39,2.34-.39,4.58,0,9.2,4.04,11.22,9.82l.05,.13,.06,.13c8.31,18.05,13,36.29,13.95,54.2l.06,1.14,24.83,25.14c2.32,2.34,3.58,5.45,3.56,8.74-.02,3.29-1.32,6.38-3.67,8.7-2.32,2.29-5.4,3.56-8.67,3.56Z"/><path d="M726.45,773.14c2.74,0,6.61,2.74,8.39,7.81l.09,.27,.12,.26c8.15,17.71,12.75,35.57,13.68,53.1l.12,2.28,1.6,1.62,23.56,23.85,.47,.47c1.75,1.77,2.71,4.12,2.69,6.62-.02,2.49-1,4.83-2.77,6.58-1.76,1.74-4.09,2.69-6.56,2.69s-4.87-.99-6.64-2.77l-.47-.47-27.41-27.75-.47-.47c-.81-.82-1.46-1.79-1.93-2.88l-1.39-3.24-3.51-.36c-30.79-3.18-48.85-15.31-55.22-37.08l-.04-.15-.05-.15c-.99-2.84-1.1-5.85-.29-8.27,.37-1.11,1.27-3.06,3.17-3.73l51.49-18c.43-.15,.88-.22,1.35-.22m0-6c-1.12,0-2.24,.18-3.33,.56l-51.49,18c-6.61,2.31-9.55,11.1-6.57,19.64,7.47,25.57,28.93,38.12,60.36,41.37,.73,1.71,1.78,3.32,3.17,4.73l.47,.47,27.41,27.75,.47,.47c3,3.04,6.95,4.56,10.91,4.56s7.79-1.47,10.77-4.42c6.02-5.95,6.08-15.66,.13-21.68l-.47-.47-23.56-23.85c-1-18.85-5.93-37.26-14.22-55.29-2.49-7.13-8.34-11.83-14.05-11.83h0Z"/></g><g><path class="cls-7" d="M666.51,801.4c-9.5,0-17.74-6.77-19.59-16.1-1.04-5.24,.02-10.57,2.99-15.01,2.97-4.44,7.49-7.46,12.73-8.5l66.69-13.27c1.3-.26,2.62-.39,3.93-.39,9.5,0,17.73,6.77,19.59,16.1,1.04,5.24-.02,10.57-2.99,15.01-2.97,4.44-7.49,7.46-12.73,8.5l-66.69,13.27c-1.3,.26-2.62,.39-3.93,.39Z"/><path d="M733.26,745.13v6c8.07,0,15.07,5.76,16.65,13.69,.89,4.45-.02,8.99-2.54,12.76-2.52,3.78-6.36,6.34-10.82,7.23l-66.69,13.27c-1.1,.22-2.23,.33-3.34,.33-8.07,0-15.07-5.76-16.65-13.69-.89-4.45,.02-8.99,2.54-12.76,2.52-3.78,6.36-6.34,10.82-7.23l66.69-13.27c1.1-.22,2.23-.33,3.34-.33v-6m0,0c-1.49,0-3,.15-4.51,.45l-66.69,13.27c-12.46,2.48-20.55,14.59-18.07,27.04,2.18,10.94,11.78,18.52,22.53,18.52,1.49,0,3-.15,4.51-.45l66.69-13.27c12.46-2.48,20.55-14.59,18.07-27.04-2.18-10.94-11.78-18.52-22.53-18.52h0Z"/></g><g><path class="cls-7" d="M692.24,878.23c-.69,0-1.38-.06-2.06-.17-3.25-.55-6.09-2.32-8-5.01-1.91-2.68-2.66-5.95-2.12-9.2l6.69-39.78c1-5.96,6.11-10.29,12.14-10.29,.69,0,1.38,.06,2.06,.17,6.71,1.13,11.25,7.5,10.12,14.21l-6.69,39.78c-1,5.96-6.11,10.29-12.14,10.29Z"/><path d="M698.89,816.79h0c.52,0,1.05,.04,1.57,.13,2.46,.41,4.61,1.76,6.06,3.79,1.45,2.03,2.02,4.5,1.6,6.96l-.11,.66-6.47,38.46-.11,.66c-.76,4.51-4.62,7.79-9.19,7.79-.52,0-1.05-.04-1.57-.13-2.46-.41-4.61-1.76-6.06-3.79-1.45-2.03-2.02-4.5-1.6-6.96l.11-.66,6.47-38.46,.11-.66c.76-4.51,4.62-7.79,9.19-7.79m0-6c-7.35,0-13.84,5.3-15.1,12.79l-.11,.66-6.47,38.46-.11,.66c-1.4,8.35,4.23,16.26,12.58,17.66,.86,.14,1.72,.21,2.56,.21,7.35,0,13.84-5.3,15.1-12.79l.11-.66,6.47-38.46,.11-.66c1.4-8.35-4.23-16.26-12.58-17.66-.86-.14-1.72-.21-2.56-.21h0Z"/></g></g><g><path class="cls-9" d="M370.46,752.08c9.27-51.29,35.19-87.98,79.18-112.04l47.74,33.76c-44.66,23.4-71.26,61.06-79.15,112.06l-47.76-33.77Z"/><path d="M449.45,643.57l42.25,29.88c-41.61,23.24-67.01,59.23-75.65,107.19l-42.29-29.9c4.75-24.91,13.79-46.65,26.89-64.66,12.34-16.96,28.74-31.25,48.79-42.5m.4-7.06c-43.59,23.3-72.98,60.48-82.67,116.92l53.33,37.71c7.3-56.53,36.34-94.22,82.67-116.92l-53.33-37.71h0Z"/></g><g><g><path class="cls-7" d="M357.34,893.77c-5.93,0-11.02-4.24-12.11-10.08l-7.39-39.65c-1.25-6.69,3.18-13.14,9.86-14.38,.75-.14,1.52-.21,2.28-.21,5.93,0,11.02,4.24,12.11,10.08l7.39,39.65c.6,3.24-.09,6.52-1.95,9.23s-4.67,4.55-7.91,5.15c-.75,.14-1.52,.21-2.28,.21Z"/><path d="M349.98,832.45c4.48,0,8.33,3.21,9.16,7.63l.12,.66,7.15,38.34,.12,.66c.46,2.45-.07,4.93-1.48,6.99-1.41,2.06-3.54,3.44-5.99,3.9-.57,.11-1.15,.16-1.73,.16-4.48,0-8.33-3.21-9.16-7.63l-.12-.66-7.15-38.34-.12-.66c-.46-2.45,.07-4.93,1.48-6.99,1.41-2.06,3.54-3.44,5.99-3.9,.57-.11,1.15-.16,1.73-.16m0-6c-.93,0-1.88,.09-2.83,.26h0c-8.32,1.55-13.82,9.56-12.26,17.88l.12,.66,7.15,38.34,.12,.66c1.37,7.38,7.82,12.53,15.06,12.53,.93,0,1.88-.09,2.83-.26h0c8.32-1.55,13.82-9.56,12.26-17.88l-.12-.66-7.15-38.34-.12-.66c-1.37-7.38-7.82-12.53-15.06-12.53h0Z"/></g><g><path class="cls-7" d="M334.63,888.63c-1.61,0-3.19-.32-4.7-.94-6.29-2.59-9.29-9.82-6.7-16.11l15.38-37.28c1.91-4.64,6.39-7.63,11.41-7.63,1.61,0,3.19,.31,4.7,.94,3.05,1.26,5.42,3.62,6.68,6.67,1.27,3.04,1.27,6.39,.01,9.44l-15.38,37.28c-1.91,4.64-6.39,7.63-11.41,7.63h0Z"/><path d="M350.03,829.67c1.22,0,2.41,.24,3.55,.71,4.76,1.96,7.03,7.43,5.07,12.19l-.25,.62-14.88,36.05-.25,.61c-1.45,3.51-4.84,5.78-8.63,5.78-1.22,0-2.41-.24-3.55-.71-2.3-.95-4.1-2.74-5.06-5.04s-.96-4.84,0-7.14l.25-.62,14.88-36.05,.25-.62c1.45-3.51,4.84-5.78,8.63-5.78m0-6c-6.02,0-11.74,3.57-14.18,9.49l-.25,.62-14.88,36.05-.25,.62c-3.23,7.83,.5,16.79,8.33,20.02h0c1.91,.79,3.89,1.16,5.84,1.16,6.02,0,11.74-3.57,14.18-9.49l.25-.62,14.88-36.05,.25-.62c3.23-7.83-.5-16.79-8.32-20.02h0c-1.91-.79-3.89-1.16-5.84-1.16h0Z"/></g><g><path class="cls-7" d="M320.61,881.69c-3.27,0-6.34-1.26-8.67-3.56-2.34-2.32-3.65-5.41-3.67-8.7-.02-3.29,1.24-6.4,3.56-8.74l24.83-25.14,.06-1.14c.95-17.91,5.64-36.14,13.95-54.2l.06-.13,.05-.13c2.02-5.78,6.63-9.82,11.22-9.82,.8,0,1.59,.13,2.34,.39l51.49,18c2.3,.8,4.09,2.8,5.03,5.61,1.03,3.08,.92,6.71-.3,10.21l-.05,.15c-6.74,23.07-25.64,35.9-57.79,39.22l-1.75,.18-.7,1.62c-.62,1.44-1.47,2.72-2.55,3.81l-28.34,28.7c-2.33,2.36-5.45,3.66-8.77,3.66h0Z"/><path d="M362,773.14c.47,0,.92,.08,1.35,.22l51.49,18c2.98,1.04,4.9,6.23,2.89,11.99l-.05,.15-.04,.15c-6.36,21.77-24.42,33.9-55.22,37.08l-3.51,.36-1.39,3.24c-.47,1.09-1.12,2.06-1.93,2.88l-.47,.47-27.41,27.75-.47,.47c-1.77,1.79-4.13,2.77-6.64,2.77s-4.8-.96-6.56-2.69c-3.66-3.62-3.7-9.54-.08-13.2l.47-.47,23.56-23.85,1.6-1.62,.12-2.28c.93-17.53,5.53-35.39,13.68-53.1l.12-.26,.09-.27c1.77-5.07,5.64-7.81,8.39-7.81m0-6c-5.71,0-11.56,4.69-14.05,11.83-8.3,18.03-13.22,36.44-14.22,55.29l-23.56,23.85-.47,.47c-5.95,6.02-5.89,15.73,.13,21.68,2.99,2.95,6.88,4.42,10.77,4.42s7.91-1.52,10.91-4.56l.47-.47,27.41-27.75,.47-.47c1.39-1.41,2.44-3.02,3.17-4.73,31.43-3.25,52.88-15.79,60.36-41.37,2.98-8.53,.04-17.33-6.57-19.64l-51.49-18c-1.09-.38-2.2-.56-3.33-.56h0Z"/></g><g><path class="cls-7" d="M421.94,801.4c-1.31,0-2.63-.13-3.93-.39l-66.69-13.27c-10.82-2.15-17.87-12.7-15.71-23.52,1.86-9.33,10.09-16.1,19.59-16.1,1.31,0,2.63,.13,3.93,.39l66.69,13.27c5.24,1.04,9.76,4.06,12.73,8.5,2.97,4.44,4.03,9.77,2.99,15.01-1.86,9.33-10.09,16.1-19.59,16.1h0Z"/><path d="M355.2,751.13c1.11,0,2.24,.11,3.34,.33l66.69,13.27c4.45,.89,8.3,3.45,10.82,7.23,2.52,3.78,3.42,8.31,2.54,12.76-1.58,7.93-8.58,13.69-16.65,13.69-1.11,0-2.24-.11-3.34-.33l-66.69-13.27c-4.45-.89-8.3-3.45-10.82-7.23-2.52-3.78-3.42-8.31-2.54-12.76,1.58-7.93,8.58-13.69,16.65-13.69m0-6c-10.75,0-20.36,7.57-22.53,18.52-2.48,12.46,5.61,24.57,18.07,27.04l66.69,13.27c1.51,.3,3.02,.45,4.51,.45,10.75,0,20.36-7.57,22.53-18.52,2.48-12.46-5.61-24.57-18.07-27.04l-66.69-13.27c-1.51-.3-3.02-.45-4.51-.45h0Z"/></g><g><path class="cls-7" d="M396.21,878.23c-6.03,0-11.14-4.33-12.15-10.29l-6.68-39.77c-.55-3.25,.21-6.52,2.12-9.2,1.91-2.68,4.75-4.46,8-5.01,.68-.12,1.38-.17,2.06-.17,6.03,0,11.14,4.33,12.15,10.29l6.68,39.77c.55,3.25-.21,6.52-2.12,9.2-1.91,2.68-4.75,4.46-8,5.01-.68,.11-1.38,.17-2.06,.17h0Z"/><path d="M389.56,816.79c4.56,0,8.43,3.28,9.19,7.79l.11,.66,6.47,38.46,.11,.66c.41,2.46-.16,4.93-1.6,6.96-1.45,2.03-3.6,3.38-6.06,3.79-.52,.09-1.05,.13-1.57,.13-4.56,0-8.43-3.28-9.19-7.79l-.11-.66-6.47-38.46-.11-.66c-.41-2.46,.16-4.93,1.6-6.96,1.45-2.03,3.6-3.38,6.06-3.79,.52-.09,1.05-.13,1.57-.13m0-6c-.84,0-1.7,.07-2.56,.21h0c-8.35,1.4-13.98,9.31-12.58,17.66l.11,.66,6.47,38.46,.11,.66c1.26,7.49,7.75,12.79,15.1,12.79,.84,0,1.7-.07,2.56-.21,8.35-1.4,13.98-9.31,12.58-17.66l-.11-.66-6.47-38.46-.11-.66c-1.26-7.49-7.75-12.79-15.1-12.79h0Z"/></g></g><g><path class="cls-9" d="M596.12,940c-20.13,0-36.5-16.37-36.5-36.5v-65c0-20.13,16.37-36.5,36.5-36.5s36.5,16.37,36.5,36.5v65c0,20.13-16.37,36.5-36.5,36.5Z"/><path d="M596.13,805c18.47,0,33.5,15.03,33.5,33.5v65c0,18.47-15.03,33.5-33.5,33.5s-33.5-15.03-33.5-33.5v-65c0-18.47,15.03-33.5,33.5-33.5m0-6h0c-21.82,0-39.5,17.68-39.5,39.5v65c0,21.82,17.68,39.5,39.5,39.5h0c21.82,0,39.5-17.68,39.5-39.5v-65c0-21.82-17.68-39.5-39.5-39.5h0Z"/></g><g><g><path class="cls-11" d="M584.47,952c-23.43,0-42.5-19.07-42.5-42.5s19.07-42.5,42.5-42.5h23c23.43,0,42.5,19.07,42.5,42.5s-19.07,42.5-42.5,42.5h-23Z"/><path d="M607.47,870c21.78,0,39.5,17.72,39.5,39.5s-17.72,39.5-39.5,39.5h-23c-21.78,0-39.5-17.72-39.5-39.5s17.72-39.5,39.5-39.5h23m0-6h-23c-25.13,0-45.5,20.37-45.5,45.5s20.37,45.5,45.5,45.5h23c25.13,0,45.5-20.37,45.5-45.5s-20.37-45.5-45.5-45.5h0Z"/></g><g><path class="cls-11" d="M597.05,1019.13c-13.85,0-27.61-2.56-36.81-6.85-18.19-8.48-33.77-38.31-33.77-56.78,0-38.32,31.18-69.5,69.5-69.5s69.5,31.18,69.5,69.5c0,17.79-15.11,47.11-33.88,56.84-8.46,4.38-20.72,6.79-34.54,6.79h0Z"/><path d="M595.97,889c36.67,0,66.5,29.83,66.5,66.5,0,8.49-3.63,19.84-9.71,30.35-6.37,11.01-14.59,19.7-22.55,23.82-7.92,4.1-20.01,6.46-33.16,6.46s-26.72-2.46-35.54-6.57c-7.78-3.63-15.92-12.13-22.32-23.31-6.09-10.64-9.72-22.14-9.72-30.75,0-36.67,29.83-66.5,66.5-66.5m0-6c-40.04,0-72.5,32.46-72.5,72.5,0,19.61,16.2,50.5,35.5,59.5,9.9,4.62,24.05,7.13,38.08,7.13s26.53-2.26,35.92-7.13c19.3-10,35.5-39.89,35.5-59.5,0-40.04-32.46-72.5-72.5-72.5h0Z"/></g></g><g><g><path class="cls-8" d="M540.37,657.17c-50.07-41.25-86.04-41.26-101.51-41.26-1.42,0-2.77,.01-4.06,.02-1.15,0-2.25,.02-3.3,.02-10.94,0-12.73-1.19-12.73-8.46,0-12.83,12.63-25.61,34.65-35.07,23.15-9.95,53.99-15.43,86.85-15.43s63.7,5.48,86.85,15.43c22.02,9.46,34.65,22.25,34.65,35.07,0,9.03-3.13,9.5-17.91,10.23-20.33,1.01-54.17,2.69-103.5,39.44Z"/><path d="M540.28,559.99c32.46,0,62.88,5.39,85.67,15.18,20.87,8.97,32.83,20.75,32.83,32.32,0,4.66-1.13,5.21-1.8,5.54-2.33,1.15-7.4,1.4-13.26,1.69-19.07,.95-54.15,2.69-103.25,38.64-49.96-40.46-86-40.46-101.6-40.46-1.43,0-2.79,.01-4.08,.02-1.14,0-2.24,.02-3.28,.02-2.32,0-7.16,0-8.75-.94-.91-.54-.98-3.59-.98-4.52,0-11.57,11.97-23.35,32.83-32.32,22.78-9.79,53.21-15.18,85.67-15.18m0-6c-68.76,0-124.5,23.95-124.5,53.5,0,10.54,5.22,11.46,15.73,11.46,2.22,0,4.67-.04,7.36-.04,20.28,0,53.99,2.32,101.41,42.08,84.5-64,124.5-23.95,124.5-53.5s-55.74-53.5-124.5-53.5h0Z"/></g><ellipse cx="540.28" cy="667.49" rx="70.5" ry="40.5"/><path class="cls-4" d="M466.74,708.86c27.98,23.56,50.19,33.13,78.37,33.13,28.18,0,51.02-21.8,51.02-48.7s-31.05-31.01-56.86-41.8c-38.4-16.06-78.17-35.81-84.11-33-13.37,6.32-10.52,17.07-33.66,23.09-23.14,6.02-19.26,22.2-12.62,34.14,6.67,12,22.09,3.01,57.86,33.13Z"/><path class="cls-4" d="M532.35,645.49c-27.32-23.11,10.44-56.47-49.13-85.45-39.79,8.93-66.96,26.83-66.96,47.45,0,27.96,35.81-6.39,111.25,44.05l5.01,3.18,6.24-2.82-6.41-6.42Z"/><g><path class="cls-8" d="M528.76,661.35c.99-.91,2.59-2.21,5.18-3.96,28.32-11.55,29.01-27.87,29.69-43.65,.72-16.78,1.46-34.12,34.56-50.54,38.67,8.88,63.59,26.21,63.59,44.29,0,9.03-3.13,9.5-17.91,10.23-20.57,1.02-54.99,2.74-105.28,40.78-2.25,1.34-6.68,2.59-9.83,2.84Z"/><path d="M598.56,566.37c18.2,4.28,33.46,10.46,44.24,17.94,7.29,5.06,15.98,13.19,15.98,23.18,0,4.66-1.13,5.21-1.8,5.54-2.33,1.15-7.4,1.4-13.26,1.69-16.26,.81-44.17,2.19-82.48,24.88,4.64-8.4,5.03-17.36,5.39-25.74,.71-16.47,1.37-32.04,31.94-47.5m-.75-6.33c-68.08,33.12-9.04,71.95-65.3,94.68-10.85,7.29-9.4,9.67-4.81,9.67,3.76,0,9.63-1.6,12.56-3.4,84.5-64,124.5-23.95,124.5-53.5,0-20.63-27.17-38.52-66.96-47.45h0Z"/></g><path class="cls-4" d="M624.11,708.86c-26.67,23.56-47.84,33.13-74.7,33.13s-48.63-21.8-48.63-48.7,24.03-37.9,48.63-48.7c36.6-16.06,80.07-28.91,85.73-26.11,12.75,6.32,10.03,17.07,32.09,23.09,22.06,6.02,18.36,22.2,12.03,34.14-6.36,12-21.06,3.01-55.15,33.13Z"/><g><g><path class="cls-10" d="M545.94,731c-19.76,0-35.83-16.07-35.83-35.83s16.07-35.83,35.83-35.83,35.83,16.08,35.83,35.83-16.08,35.83-35.83,35.83Z"/><path d="M545.94,662.33c18.1,0,32.83,14.73,32.83,32.83s-14.73,32.83-32.83,32.83-32.83-14.73-32.83-32.83,14.73-32.83,32.83-32.83m0-6c-21.45,0-38.83,17.39-38.83,38.83s17.39,38.83,38.83,38.83,38.83-17.39,38.83-38.83-17.39-38.83-38.83-38.83h0Z"/></g><g><circle class="cls-10" cx="545.94" cy="695.17" r="25.53"/><path d="M545.94,672.63c12.43,0,22.53,10.11,22.53,22.53s-10.11,22.53-22.53,22.53-22.53-10.11-22.53-22.53,10.11-22.53,22.53-22.53m0-6c-15.76,0-28.53,12.77-28.53,28.53s12.77,28.53,28.53,28.53,28.53-12.77,28.53-28.53-12.77-28.53-28.53-28.53h0Z"/></g><g><path class="cls-10" d="M546.46,728.8c-.41,0-1.43-.12-1.92-1.26l-9.07-20.68c-.69-1.59-1.86-2.89-3.37-3.76l-10.61-6.12c-.95-.55-1.05-1.45-1.05-1.82s.1-1.27,1.05-1.82l10.61-6.13c1.48-.86,2.68-2.19,3.37-3.76l9.06-20.67c.5-1.13,1.51-1.26,1.92-1.26s1.42,.12,1.92,1.26l9.42,21.48c.7,1.59,1.86,2.89,3.37,3.76l9.21,5.32c.95,.55,1.05,1.45,1.05,1.82s-.1,1.27-1.05,1.82l-9.21,5.32c-1.5,.87-2.67,2.17-3.37,3.76l-9.42,21.48c-.5,1.13-1.51,1.26-1.92,1.26Z"/><path d="M546.46,665.87l4.24,9.67,4.35,9.93c.96,2.18,2.55,3.96,4.62,5.16l7.86,4.54-7.86,4.54c-2.06,1.19-3.66,2.97-4.62,5.16l-4.35,9.93-4.24,9.67-4.24-9.67-4-9.12c-.96-2.18-2.55-3.97-4.62-5.16l-1.4-.81-7.86-4.54,7.86-4.54,1.4-.81c2.06-1.19,3.66-2.97,4.62-5.16l4-9.12,4.24-9.67m0-7.34c-1.89,0-3.78,1.02-4.67,3.05l-5.06,11.55-4,9.12c-.44,1-1.18,1.83-2.12,2.37l-1.4,.81-9.21,5.32c-3.4,1.96-3.4,6.87,0,8.83l9.21,5.32,1.4,.81c.94,.54,1.68,1.37,2.12,2.37l4,9.12,5.06,11.55c.89,2.03,2.78,3.05,4.67,3.05s3.78-1.02,4.67-3.05l5.06-11.55,4.35-9.93c.44-1,1.18-1.83,2.12-2.37l9.21-5.32c3.4-1.96,3.4-6.87,0-8.83l-9.21-5.32c-.94-.54-1.68-1.37-2.12-2.37l-4.35-9.93-5.06-11.55c-.89-2.03-2.78-3.05-4.67-3.05h0Z"/></g></g></g><g><path class="cls-6" d="M843.73,484.24h1.27c-37.48-69.28-90.15-118.44-155.35-151H389.65c-65.28,37.24-115.97,88.39-154.65,151h1.42c-.93,1.32-1.42,2.65-1.42,4,0,22.92,136.55,41.5,305,41.5s305-18.58,305-41.5c0-2.03-1.09-4.02-3.16-5.98,.78,.65,1.42,1.31,1.89,1.98Z"/><g><g><rect class="cls-7" x="397.03" y="314" width="287" height="287" rx="31.13" ry="31.13"/><path d="M652.89,317c15.51,0,28.14,12.62,28.14,28.14v224.73c0,15.51-12.62,28.14-28.14,28.14h-224.73c-15.51,0-28.14-12.62-28.14-28.14v-224.73c0-15.51,12.62-28.14,28.14-28.14h224.73m0-6h-224.73c-18.85,0-34.14,15.28-34.14,34.14v224.73c0,18.85,15.28,34.14,34.14,34.14h224.73c18.85,0,34.14-15.28,34.14-34.14v-224.73c0-18.85-15.28-34.14-34.14-34.14h0Z"/></g><g><path d="M632.13,506.17l18.8-10.85c-4.41-17.88-20.55-31.15-39.8-31.15-22.64,0-41,18.36-41,41s18.36,41,41,41c18.62,0,34.33-12.42,39.33-29.42l-18.33-10.58Z"/><path d="M492.13,506.17l18.8-10.85c-4.41-17.88-20.55-31.15-39.8-31.15-22.64,0-41,18.36-41,41s18.36,41,41,41c18.62,0,34.33-12.42,39.33-29.42l-18.33-10.58Z"/></g></g><g><polygon class="cls-1" points="396.25 228.76 396.25 180.42 354.39 156.26 312.54 180.42 312.54 228.76 354.39 252.92 396.25 228.76"/><path class="cls-5" d="M354.61,156.13l-.07-.04-41.93,24.21-.07,.04v48.5l41.93,24.21,.07,.04,41.93-24.21,.07-.04v-48.5l-41.93-24.21Zm41.5,24.29l-41.57,24-41.57-24,41.57-24,41.57,24Zm-83.29,.25l41.57,24v48l-41.57-24v-48Zm41.86,72.01v-48l41.57-24v48l-41.57,24Z"/></g><g><path class="cls-9" d="M836.76,475.18c-12.3-5.91-35.71-11.82-73.43-18.71-1.56-1.32-4.69-3.52-11-7.96-6.01-4.23-14.4-10.06-24.91-17.33-17.89-12.37-36.01-24.78-36.19-24.9l-5.46-3.74,.78,6.57c2.77,23.24,4,33.61,4.57,38.28-38.17-2.45-99.44-4.14-150.98-4.14-76.46,0-149.64,3.86-206.06,10.88-31.98,3.98-70.16,10.42-89.37,19.95,38.34-58.37,87.31-104.86,145.73-138.33h298.49c32.47,16.29,61.64,36.77,86.7,60.89,23.44,22.56,43.97,48.94,61.12,78.54Z"/><path d="M688.22,338.74c31.95,16.1,60.65,36.3,85.34,60.06,21.21,20.41,40.01,43.97,56.06,70.24-13.61-4.9-34.61-9.82-65.02-15.39-2-1.59-5.25-3.87-10.54-7.59-6.02-4.24-14.41-10.07-24.93-17.35-17.9-12.37-36.02-24.79-36.2-24.91l-10.91-7.47,1.56,13.13c2.2,18.49,3.44,28.86,4.14,34.71-38.4-2.33-97.57-3.92-147.57-3.92-76.58,0-149.89,3.87-206.43,10.9-27.68,3.44-50.33,7.5-67.32,12.06-5.08,1.36-9.59,2.75-13.56,4.17,16.21-23.58,34.22-45.17,53.73-64.38,25.2-24.81,53.69-46.42,84.69-64.26h296.98m1.42-6H389.65c-65.28,37.24-115.97,88.39-154.65,151h1.56c14.79-21.04,145.06-37.5,303.58-37.5,49.02,0,113.35,1.57,154.39,4.37-.03-.13-5-41.87-5-41.87,0,0,73,50,72.4,50.51,35.6,6.49,75.15,15.04,81.79,24.49h1.27c-37.48-69.28-90.15-118.44-155.35-151h0Zm4.89,117.87h0Z"/></g><g><path class="cls-8" d="M393,330.74v-56.08c0-12.64,10.28-22.92,22.92-22.92h248.15c12.64,0,22.92,10.28,22.92,22.92v56.08H393Z"/><path d="M664.08,254.74c10.99,0,19.92,8.94,19.92,19.92v53.08H396v-53.08c0-10.99,8.94-19.92,19.92-19.92h248.15m0-6h-248.15c-14.32,0-25.92,11.61-25.92,25.92v59.08h300v-59.08c0-14.32-11.61-25.92-25.92-25.92h0Z"/></g><path class="cls-2" d="M664.54,248.74h-249.07c39.5-119.81,9.34-149.44-60.43-103.5C403.04-17.76,618.04-2.76,664.54,248.74Z"/><g><g><path class="cls-10" d="M493.37,356.75c-36.12,0-65.5-29.38-65.5-65.5s29.38-65.5,65.5-65.5,65.5,29.38,65.5,65.5-29.38,65.5-65.5,65.5Z"/><path d="M493.37,228.74c34.46,0,62.5,28.04,62.5,62.5s-28.04,62.5-62.5,62.5-62.5-28.04-62.5-62.5,28.04-62.5,62.5-62.5m0-6c-37.83,0-68.5,30.67-68.5,68.5s30.67,68.5,68.5,68.5,68.5-30.67,68.5-68.5-30.67-68.5-68.5-68.5h0Z"/></g><g><path class="cls-10" d="M493.37,338.58c-26.1,0-47.33-21.23-47.33-47.33s21.23-47.33,47.33-47.33,47.33,21.23,47.33,47.33-21.23,47.33-47.33,47.33Z"/><path d="M493.37,246.91c24.45,0,44.33,19.89,44.33,44.33s-19.89,44.33-44.33,44.33-44.33-19.89-44.33-44.33,19.89-44.33,44.33-44.33m0-6c-27.8,0-50.33,22.53-50.33,50.33s22.53,50.33,50.33,50.33,50.33-22.53,50.33-50.33-22.53-50.33-50.33-50.33h0Z"/></g><g><path class="cls-10" d="M494.29,352.87c-2.45,0-4.5-1.34-5.49-3.59l-15.99-36.47c-1.04-2.36-2.76-4.29-4.99-5.57l-18.71-10.8c-1.88-1.08-3-3.02-3-5.19s1.12-4.11,3-5.19l18.72-10.81c2.23-1.29,3.95-3.21,4.99-5.57l15.99-36.47c.98-2.25,3.04-3.59,5.49-3.59s4.51,1.34,5.49,3.59l16.61,37.89c1.03,2.36,2.76,4.28,4.99,5.57l16.25,9.38c1.88,1.08,3,3.02,3,5.19s-1.12,4.11-3,5.19l-16.25,9.38c-2.23,1.29-3.95,3.21-4.99,5.57l-16.61,37.89c-.98,2.25-3.04,3.59-5.49,3.59Z"/><path d="M494.29,232.62c.59,0,2.03,.17,2.74,1.79l8.93,20.38,7.68,17.52c1.29,2.95,3.45,5.36,6.24,6.97l16.25,9.38c1.35,.78,1.5,2.07,1.5,2.59s-.15,1.81-1.5,2.59l-16.25,9.38c-2.79,1.61-4.94,4.02-6.24,6.97l-7.68,17.52-8.93,20.38c-.71,1.62-2.15,1.79-2.74,1.79s-2.03-.17-2.74-1.79l-8.93-20.38-7.05-16.09c-1.29-2.95-3.45-5.36-6.24-6.96l-2.47-1.42-16.25-9.38c-1.35-.78-1.5-2.07-1.5-2.59s.15-1.81,1.5-2.59l16.25-9.38,2.47-1.42c2.79-1.61,4.94-4.02,6.24-6.97l7.05-16.09,8.93-20.38c.71-1.62,2.15-1.79,2.74-1.79m0-6c-3.33,0-6.66,1.79-8.24,5.38l-8.93,20.38-7.05,16.09c-.77,1.76-2.08,3.22-3.74,4.18l-2.47,1.42-16.25,9.38c-6,3.46-6,12.12,0,15.58l16.25,9.38,2.47,1.42c1.66,.96,2.97,2.42,3.74,4.18l7.05,16.09,8.93,20.38c1.57,3.59,4.91,5.38,8.24,5.38s6.66-1.79,8.24-5.38l8.93-20.38,7.68-17.52c.77-1.76,2.08-3.22,3.74-4.18h0l16.25-9.38c6-3.46,6-12.12,0-15.58l-16.25-9.38c-1.66-.96-2.97-2.42-3.74-4.18l-7.68-17.52-8.93-20.38c-1.57-3.59-4.91-5.38-8.24-5.38h0Z"/></g></g><circle class="cls-3" cx="354.54" cy="155.74" r="17.5"/></g></svg>